<?xml version="1.0" standalone="no"?>
<!DOCTYPE svg PUBLIC "-//W3C//DTD SVG 20010904//EN"
 "http://www.w3.org/TR/2001/REC-SVG-20010904/DTD/svg10.dtd">
<svg version="1.0" xmlns="http://www.w3.org/2000/svg"
 width="980.000000pt" height="980.000000pt" viewBox="0 0 980.000000 980.000000"
 preserveAspectRatio="xMidYMid meet">
<metadata>
Created by potrace 1.16, written by Peter Selinger 2001-2019
</metadata>
<g transform="translate(0.000000,980.000000) scale(0.100000,-0.100000)"
fill="#000000" stroke="none">
<path d="M6160 9400 c-155 -18 -312 -76 -444 -164 -202 -135 -368 -374 -419
-601 -48 -218 -26 -348 105 -628 39 -85 61 -147 65 -180 5 -49 1 -60 -65 -192
-99 -196 -109 -276 -39 -329 17 -13 109 -62 202 -109 297 -150 338 -191 57
-58 -174 82 -217 99 -267 102 -55 4 -73 -1 -104 -27 -46 -39 -41 -84 18 -147
l26 -29 -47 7 c-94 14 -148 -18 -148 -87 0 -76 92 -140 434 -307 l168 -82 -5
-33 c-7 -44 -66 -186 -78 -186 -5 0 -107 73 -226 163 -226 170 -513 377 -643
464 -102 68 -415 253 -595 350 -296 161 -469 217 -557 180 -78 -33 -87 -100
-24 -192 33 -48 220 -237 316 -321 215 -188 558 -453 830 -641 354 -246 574
-351 711 -341 76 5 100 24 165 121 l52 78 248 -199 c647 -518 1013 -877 1002
-982 -6 -55 -99 -64 -250 -26 -186 47 -444 160 -925 407 -378 193 -450 239
-766 497 -106 86 -620 532 -637 552 -17 19 -467 414 -599 524 -340 283 -497
370 -588 323 -53 -28 -141 -134 -187 -226 -104 -206 -147 -443 -182 -1001 -18
-306 -36 -446 -63 -525 -46 -129 -144 -272 -357 -519 -324 -374 -419 -501
-476 -637 -53 -127 -51 -219 8 -287 76 -89 241 -143 583 -192 112 -16 207 -32
212 -37 4 -4 -1 -57 -12 -118 -51 -286 -59 -341 -68 -452 -21 -261 29 -427
153 -508 115 -76 263 -106 641 -129 132 -9 250 -18 261 -22 30 -8 34 -42 34
-276 0 -356 -42 -704 -88 -723 -9 -4 -113 -10 -230 -13 -168 -3 -238 -1 -335
13 -182 26 -341 81 -436 152 l-33 26 66 35 c82 43 171 135 186 193 25 90 -24
177 -121 219 -231 99 -426 -130 -309 -361 12 -22 20 -43 18 -45 -3 -2 -40 -9
-84 -15 -160 -23 -326 5 -607 100 -81 28 -176 58 -210 67 -291 75 -536 55
-794 -67 -140 -67 -333 -207 -333 -244 0 -17 27 -45 45 -45 7 0 37 20 67 44
202 165 418 253 645 263 186 9 252 -4 583 -112 107 -34 233 -71 280 -81 109
-23 318 -24 408 -1 l64 16 55 -45 c124 -101 298 -163 543 -193 105 -14 389
-14 490 -1 111 15 125 23 144 83 41 133 66 357 73 657 8 359 -6 418 -103 441
-21 5 -145 15 -276 24 -324 20 -440 38 -542 84 -183 80 -213 282 -119 786 38
208 44 284 24 309 -18 22 -64 33 -225 56 -376 53 -507 91 -580 168 -26 28 -28
35 -24 91 9 122 113 285 375 587 294 338 388 462 457 607 60 124 74 213 101
657 40 639 109 915 269 1073 45 44 53 49 84 43 109 -17 346 -203 1037 -816
879 -778 957 -836 1507 -1113 501 -252 731 -350 922 -392 229 -51 374 51 295
208 -92 180 -486 551 -1104 1038 l-170 134 38 87 c52 120 64 182 44 230 -14
34 -29 43 -204 128 -214 105 -311 159 -356 201 l-32 28 26 1 c47 0 159 -40
353 -126 192 -86 232 -96 260 -68 37 36 11 66 -120 138 -247 136 -310 174
-348 208 -23 20 -38 39 -34 43 12 13 119 -26 264 -95 230 -110 283 -122 331
-74 20 20 24 31 19 57 -3 17 -14 40 -24 50 -30 35 -133 96 -313 187 -96 49
-181 96 -188 104 -19 22 6 93 80 234 92 174 91 211 -22 455 -33 71 -69 163
-81 205 -87 309 84 697 395 896 249 159 587 185 895 70 186 -71 361 -186 463
-308 67 -79 140 -217 166 -316 26 -97 24 -328 -5 -432 -64 -235 -214 -459
-372 -559 -30 -19 -100 -59 -155 -88 -191 -102 -290 -192 -365 -332 -17 -32
-33 -59 -36 -59 -3 0 -35 19 -72 43 -37 24 -75 47 -86 50 -16 6 -17 14 -12 50
4 23 21 71 38 107 47 98 136 180 296 275 266 158 343 250 329 391 -7 67 -36
123 -89 168 -40 35 -117 66 -163 66 -13 0 -27 12 -39 35 -28 51 -85 105 -136
128 -48 21 -174 29 -237 15 -29 -7 -34 -4 -48 22 -49 95 -139 150 -246 150
-112 0 -194 -55 -257 -173 -25 -48 -27 -61 -27 -162 0 -100 4 -122 40 -240 37
-120 40 -139 40 -245 0 -104 -3 -120 -27 -174 -16 -32 -44 -80 -63 -106 -65
-88 -53 -108 168 -273 158 -119 217 -171 217 -192 0 -6 -23 -77 -51 -156 -66
-189 -91 -296 -92 -394 -1 -165 41 -224 275 -390 433 -306 636 -484 800 -700
152 -200 199 -410 135 -597 -47 -137 -124 -265 -364 -605 -90 -127 -200 -288
-244 -358 -146 -228 -255 -473 -293 -659 -36 -173 -83 -608 -151 -1411 -17
-199 -30 -302 -38 -307 -7 -4 -92 -8 -189 -8 -179 0 -379 13 -743 50 -909 91
-1170 100 -1192 44 -3 -8 -2 -25 1 -39 5 -20 18 -28 74 -44 221 -66 1213 -219
4022 -621 305 -44 693 -100 862 -124 169 -25 314 -43 322 -40 32 12 30 68 -2
78 -27 9 -232 39 -1332 197 -2152 308 -3437 502 -3485 524 -16 7 108 -3 535
-46 838 -82 1162 -91 1211 -33 8 9 21 117 35 282 67 782 112 1221 144 1407 52
304 182 565 507 1015 49 69 130 186 180 260 205 310 258 436 257 615 -2 110
-23 194 -76 304 -62 125 -143 229 -307 391 -172 171 -276 256 -542 443 -108
76 -217 157 -242 182 -101 97 -99 212 8 532 36 106 65 202 65 213 0 57 -49
107 -250 256 -74 55 -141 108 -148 117 -12 13 -7 26 28 84 94 157 104 302 35
533 -64 213 -59 329 18 417 41 47 77 63 139 63 64 0 108 -21 143 -69 33 -46
32 -55 -10 -81 -87 -54 -145 -166 -125 -241 25 -93 162 -127 228 -56 40 42 55
96 54 188 l0 87 30 6 c46 9 108 7 150 -4 37 -11 108 -68 108 -87 0 -6 -21 -18
-47 -28 -174 -66 -244 -215 -151 -321 41 -46 80 -66 134 -66 107 0 185 108
188 259 1 69 5 72 59 49 44 -18 95 -78 103 -121 20 -110 -40 -180 -286 -325
-63 -38 -137 -87 -165 -110 -146 -122 -238 -310 -203 -415 11 -33 23 -45 68
-70 30 -17 77 -45 104 -63 91 -59 133 -42 196 78 49 93 163 204 268 260 268
144 355 215 462 371 142 207 211 446 197 677 -21 344 -231 628 -590 797 -224
106 -456 149 -667 125z m-44 -1075 c11 -28 -7 -126 -27 -146 -24 -24 -41 -24
-69 -1 -21 17 -22 22 -11 53 11 33 77 109 93 109 5 0 11 -7 14 -15z m411 -185
c-6 -70 -31 -126 -69 -153 -24 -18 -30 -18 -58 -7 -66 27 -78 88 -30 144 34
38 103 76 139 76 23 0 24 -2 18 -60z m-2785 -725 c75 -19 239 -93 373 -167
204 -113 489 -281 580 -342 234 -156 875 -629 875 -645 0 -12 -60 -103 -89
-133 -48 -53 -144 -34 -339 68 -188 97 -454 278 -787 534 -423 326 -759 643
-730 689 9 15 51 14 117 -4z m-1087 -5218 c37 -18 75 -61 75 -84 0 -36 -25
-77 -69 -115 -52 -44 -146 -92 -166 -84 -26 10 -59 96 -59 153 0 64 22 99 84
131 45 23 88 23 135 -1z"/>
</g>
</svg>
