<?xml version="1.0" standalone="no"?>
<!DOCTYPE svg PUBLIC "-//W3C//DTD SVG 20010904//EN"
 "http://www.w3.org/TR/2001/REC-SVG-20010904/DTD/svg10.dtd">
<svg version="1.0" xmlns="http://www.w3.org/2000/svg"
 width="980.000000pt" height="980.000000pt" viewBox="0 0 980.000000 980.000000"
 preserveAspectRatio="xMidYMid meet">
<metadata>
Created by potrace 1.16, written by Peter Selinger 2001-2019
</metadata>
<g transform="translate(0.000000,980.000000) scale(0.100000,-0.100000)"
fill="#000000" stroke="none">
<path d="M6160 9410 c-230 -27 -441 -132 -606 -302 -135 -138 -230 -307 -267
-473 -48 -218 -26 -348 105 -628 39 -85 61 -147 65 -180 5 -49 1 -60 -67 -195
-64 -125 -73 -150 -78 -211 -4 -64 -3 -70 25 -100 19 -22 103 -71 253 -146
124 -63 220 -114 213 -115 -7 0 -94 41 -195 90 -187 92 -257 115 -311 99 -41
-12 -87 -57 -87 -86 0 -33 24 -77 56 -102 19 -15 22 -21 11 -21 -9 0 -19 5
-22 10 -8 13 -64 13 -103 -1 -39 -13 -62 -48 -62 -94 0 -75 118 -157 448 -315
114 -55 152 -78 152 -91 0 -25 -63 -189 -72 -189 -4 0 -106 73 -225 163 -226
170 -513 377 -643 464 -102 68 -415 253 -595 350 -360 196 -531 235 -610 142
-30 -37 -32 -69 -5 -124 76 -157 622 -625 1180 -1012 406 -281 645 -383 773
-329 40 16 98 82 131 148 13 27 26 45 28 40 1 -4 113 -96 248 -203 630 -505
990 -855 990 -967 0 -48 -96 -55 -242 -18 -186 47 -444 160 -925 407 -378 193
-450 239 -763 494 -108 88 -626 536 -640 554 -15 19 -464 412 -599 525 -340
283 -497 370 -588 323 -55 -29 -151 -143 -197 -235 -104 -207 -147 -444 -182
-1002 -18 -306 -36 -446 -63 -525 -46 -129 -144 -272 -357 -519 -235 -272
-315 -370 -381 -468 -104 -157 -147 -284 -129 -381 10 -54 76 -121 159 -162
97 -47 232 -80 475 -115 112 -15 205 -30 207 -32 2 -2 -5 -53 -16 -113 -51
-290 -59 -341 -68 -452 -27 -335 56 -500 289 -577 109 -36 228 -52 520 -72
135 -9 253 -16 263 -17 16 -1 17 -20 13 -312 -4 -308 -10 -381 -42 -567 -12
-68 -22 -99 -33 -104 -9 -4 -112 -9 -229 -12 -240 -5 -396 11 -537 55 -80 25
-183 74 -240 112 -25 18 -27 21 -10 21 36 0 120 57 178 119 62 68 83 119 72
182 -9 53 -71 121 -136 149 -235 100 -443 -147 -316 -375 l23 -41 -55 -4
c-214 -18 -347 3 -624 96 -87 30 -186 61 -220 70 -291 75 -536 55 -794 -67
-144 -68 -343 -215 -343 -254 0 -19 35 -55 54 -55 8 0 38 20 68 44 202 165
418 253 645 263 186 9 252 -4 583 -112 107 -34 233 -71 280 -81 109 -23 318
-24 408 -1 l64 16 55 -45 c169 -137 429 -204 793 -204 172 1 295 12 343 31 33
14 50 51 72 155 29 142 46 331 52 574 7 292 -2 369 -45 413 -39 39 -71 44
-344 62 -565 36 -664 83 -699 331 -14 105 1 280 48 529 42 225 45 285 19 314
-25 27 -63 38 -230 61 -369 52 -508 92 -575 163 -21 23 -23 33 -19 86 9 122
113 285 375 587 294 338 388 462 457 607 60 124 74 213 101 657 40 632 109
915 264 1068 40 39 49 43 79 38 109 -17 346 -204 1037 -816 879 -778 957 -836
1507 -1113 630 -317 896 -418 1064 -404 151 12 222 112 163 230 -74 144 -331
402 -744 747 -245 204 -489 398 -524 416 -14 8 -21 14 -15 14 15 0 82 157 96
224 10 46 9 58 -8 92 -18 37 -33 46 -240 149 -200 100 -360 192 -351 201 11
11 202 -57 369 -131 105 -47 203 -85 219 -85 32 0 69 31 69 56 0 25 -49 65
-146 118 -236 130 -308 172 -345 204 -22 19 -38 37 -35 40 3 2 11 0 18 -5 7
-5 33 -15 57 -22 24 -7 109 -44 188 -82 235 -112 282 -122 335 -69 25 26 29
36 24 63 -13 64 -72 107 -346 247 l-185 95 2 35 c2 20 34 97 74 176 45 89 73
157 76 186 7 60 -15 134 -88 291 -33 71 -69 163 -81 205 -87 307 80 691 385
886 249 159 587 185 895 70 184 -70 360 -186 457 -302 64 -76 137 -216 162
-312 26 -97 24 -328 -5 -432 -64 -233 -208 -452 -362 -549 -30 -19 -103 -61
-161 -92 -133 -71 -212 -128 -271 -198 -42 -49 -111 -154 -121 -182 -2 -6 -36
11 -75 37 -40 26 -78 44 -84 40 -21 -13 1 88 34 156 43 90 130 173 253 245
203 119 295 192 343 275 36 61 38 173 5 236 -45 85 -179 168 -244 151 -13 -4
-19 0 -19 11 -1 42 -90 130 -161 159 -54 22 -217 26 -241 5 -13 -11 -17 -9
-22 11 -10 40 -87 118 -141 143 -36 17 -68 24 -116 24 -113 0 -202 -61 -266
-182 -26 -49 -28 -62 -28 -163 0 -100 4 -122 40 -240 37 -120 40 -139 40 -245
0 -104 -3 -120 -27 -174 -16 -32 -44 -80 -63 -106 -65 -88 -50 -112 178 -283
158 -119 207 -161 207 -182 0 -6 -23 -77 -51 -156 -66 -189 -91 -296 -92 -394
-1 -166 45 -230 285 -400 432 -305 629 -477 790 -690 152 -200 199 -410 135
-597 -47 -137 -124 -265 -364 -605 -90 -127 -200 -288 -244 -358 -146 -228
-255 -473 -293 -659 -32 -153 -85 -637 -136 -1236 -11 -135 -25 -294 -31 -353
-5 -59 -7 -112 -4 -117 10 -15 -349 -12 -557 5 -101 8 -273 24 -383 35 -758
75 -1074 94 -1149 69 -47 -17 -61 -37 -52 -73 5 -19 18 -32 44 -43 144 -60
1114 -211 4062 -633 305 -44 694 -100 863 -125 321 -47 339 -47 352 -5 8 24
-9 57 -32 64 -29 9 -226 38 -1363 201 -1202 173 -2020 292 -2460 359 -453 69
-753 114 -883 132 -65 9 -116 19 -113 21 3 3 56 -2 118 -11 134 -20 733 -79
1008 -101 227 -17 488 -20 559 -4 82 17 81 15 107 317 67 782 112 1221 144
1407 52 304 182 565 507 1015 49 69 130 186 180 260 205 310 258 436 257 615
-2 110 -23 194 -76 304 -62 126 -143 229 -312 396 -176 176 -280 260 -546 447
-243 171 -274 200 -296 276 -26 87 -8 193 71 429 36 106 65 202 65 213 0 57
-59 117 -261 267 -75 55 -140 106 -143 112 -4 6 11 41 34 78 94 156 104 302
35 533 -62 208 -59 327 12 411 36 42 74 59 133 59 64 0 108 -20 138 -63 28
-42 28 -51 -4 -68 -15 -7 -46 -36 -70 -62 -106 -118 -84 -252 47 -287 66 -18
131 16 168 87 20 40 31 126 23 180 l-9 52 91 -2 c99 -2 147 -21 180 -72 16
-24 15 -25 -4 -25 -60 0 -176 -85 -209 -153 -35 -73 -25 -135 32 -195 44 -46
78 -62 133 -62 104 0 180 93 199 244 5 39 4 61 -5 71 -16 19 -11 19 42 -4 79
-33 119 -105 104 -184 -13 -72 -79 -131 -276 -247 -224 -133 -334 -256 -376
-419 -25 -101 -5 -155 74 -195 26 -13 71 -40 101 -60 94 -64 140 -47 206 75
55 102 156 202 263 259 268 145 363 221 472 381 218 318 260 710 109 1012
-166 331 -583 580 -1004 601 -55 2 -134 1 -175 -4z m-50 -1112 c-1 -102 -36
-150 -85 -115 -16 12 -17 18 -6 48 11 33 67 99 83 99 4 0 8 -15 8 -32z m409
-162 c-13 -78 -32 -121 -63 -141 -22 -15 -31 -16 -56 -5 -92 38 -44 157 78
194 26 7 48 13 48 12 1 0 -2 -27 -7 -60z m-2777 -731 c75 -19 239 -93 373
-167 191 -106 487 -280 565 -331 217 -145 880 -632 880 -647 0 -9 -59 -100
-83 -127 -42 -48 -148 -25 -335 73 -143 74 -234 132 -462 294 -343 244 -696
528 -881 710 -99 97 -169 181 -169 202 0 12 49 10 112 -7z m-1087 -5218 c112
-55 75 -154 -89 -241 -27 -14 -55 -26 -63 -26 -22 0 -57 89 -57 146 0 64 22
99 77 125 43 19 89 18 132 -4z"/>
</g>
</svg>
