<svg xmlns="http://www.w3.org/2000/svg" viewBox="0 0 980 980">
  <path fill="none" stroke="#1B2A4A" stroke-width="6"
        stroke-linecap="round" stroke-linejoin="round"
        d="M 516.1,839.5 L 385.5,816.7 L 388.7,823.2 L 532.5,836.3 L 558.6,852.6 L 911.4,901.6 L 581.5,855.9 L 581.5,833.0 L 548.8,839.5 L 558.6,849.3 L 601.1,826.5 L 620.7,643.5 L 640.3,601.1 L 695.8,525.9 L 708.9,499.8 L 712.1,463.9 L 692.5,427.9 L 581.5,326.7 L 597.8,290.7 L 588.0,264.6 L 574.9,271.1 L 542.3,258.1 L 532.5,277.7 L 516.1,287.5 L 512.9,277.7 L 525.9,258.1 L 542.3,261.3 L 535.7,228.7 L 548.8,209.1 L 529.2,124.1 L 545.5,81.7 L 568.4,58.8 L 594.5,45.7 L 646.8,42.5 L 695.8,62.1 L 731.7,104.5 L 735.0,156.8 L 712.1,202.5 L 630.5,267.9 L 614.1,251.5 L 620.7,228.7 L 679.5,182.9 L 679.5,166.6 L 663.1,153.5 L 679.5,163.3 L 679.5,186.2 L 617.4,235.2 L 614.1,258.1 L 640.3,267.9 L 643.5,254.8 L 663.1,235.2 L 686.0,225.4 L 728.5,179.7 L 735.0,114.3 L 718.7,81.7 L 676.2,52.3 L 607.6,45.7 L 568.4,62.1 L 535.7,101.3 L 535.7,156.8 L 548.8,186.2 L 574.9,186.2 L 561.9,231.9 L 578.2,248.3 L 565.1,225.4 L 574.9,205.8 L 565.1,133.9 L 581.5,117.6 L 597.8,117.6 L 614.1,137.2 L 607.6,143.7 L 614.1,156.8 L 601.1,166.6 L 594.5,160.1 L 601.1,143.7 L 597.8,150.3 L 614.1,166.6 L 607.6,166.6 L 614.1,160.1 L 630.5,166.6 L 643.5,153.5 L 627.2,169.9 L 637.0,186.2 L 656.6,169.9 L 650.1,143.7 L 640.3,133.9 L 620.7,133.9 L 640.3,137.2 L 630.5,176.4 L 637.0,182.9 L 630.5,182.9 L 643.5,186.2"/>
</svg>
