<?xml version="1.0" encoding="UTF-8"?>
<svg version="1.0" xmlns="http://www.w3.org/2000/svg"
 width="644.000000pt" height="598.000000pt" viewBox="0 0 644.000000 598.000000"
 preserveAspectRatio="xMidYMid meet">
  <g transform="translate(0.000000,598.000000) scale(0.100000,-0.100000)" fill="#1b2c49">
    <path d="M1095 5645 c-341 -79 -618 -345 -715 -686 -32 -112 -41 -638 -37
-2184 4 -1442 0 -1370 66 -1525 118 -283 330 -458 660 -548 96 -26 96 -26
2179 -29 1443 -3 2088 0 2102 7 19 10 20 24 22 293 l3 282 265 6 c146 4 327 7
403 8 123 1 137 3 137 18 0 10 -184 202 -409 428 l-408 410 -11 1219 c-7 849
-14 1222 -21 1229 -6 6 -41 13 -79 15 -88 5 -89 6 -46 96 57 119 49 169 -39
252 -95 90 -211 146 -316 152 -137 8 -164 -16 -333 -301 -55 -95 -107 -178
-113 -185 -14 -16 -158 -19 -1023 -22 l-534 -2 -181 179 c-239 236 -269 263
-289 263 -21 0 -19 19 -27 -245 l-6 -200 -269 -3 c-154 -1 -274 2 -279 7 -5 5
-10 200 -10 454 -2 515 6 474 -112 538 -140 76 -420 112 -580 74z m355 -47
c101 -19 253 -85 283 -123 8 -10 3 -1352 -9 -2105 -3 -201 -1 -507 4 -680 5
-173 6 -319 2 -323 -4 -4 -33 8 -65 28 -60 36 -86 46 -185 70 -418 102 -870
-143 -1047 -568 -20 -48 -39 -85 -42 -81 -14 13 0 2966 14 3041 70 368 379
688 720 742 130 21 211 21 325 -1z m3520 -585 c83 -39 185 -114 211 -156 30
-48 21 -99 -37 -196 -53 -90 -66 -96 -110 -50 -66 70 -225 160 -344 195 -91
26 -92 29 -41 107 94 145 174 170 321 100z m-2450 -170 c52 -54 355 -355 673
-668 318 -313 583 -578 588 -588 9 -15 -10 -52 -94 -195 -58 -97 -111 -189
-118 -204 -23 -52 -32 -45 -309 222 -166 160 -277 260 -289 260 -16 0 -21 -9
-27 -57 -13 -110 9 -1728 25 -1747 13 -15 77 -16 795 -14 911 2 1039 6 1044
29 2 10 -136 152 -373 384 -206 203 -375 374 -375 382 0 27 232 423 248 423
19 0 40 -20 847 -815 352 -347 709 -697 793 -779 83 -83 152 -156 152 -164 0
-12 -544 -10 -586 3 -8 2 -11 37 -10 102 1 98 1 98 40 104 89 15 87 139 -2
139 -62 0 -66 -12 -72 -187 -5 -158 -5 -158 -60 -158 -55 0 -55 0 -58 52 -4
74 -30 74 -34 1 -3 -53 -3 -53 -58 -53 -55 0 -55 0 -60 50 -3 28 -9 50 -15 50
-5 0 -12 -22 -15 -50 -5 -50 -5 -50 -60 -50 -55 0 -55 0 -58 123 -2 101 -5
122 -18 122 -13 0 -15 -18 -13 -119 2 -139 1 -141 -55 -141 -53 0 -66 13 -66
66 0 63 -17 62 -25 -1 -7 -59 -15 -64 -82 -56 -31 3 -32 5 -35 55 -4 64 -22
67 -26 4 -4 -57 -18 -70 -74 -66 -43 3 -43 3 -48 118 -3 67 -9 115 -15 115 -6
0 -12 -48 -15 -115 -5 -115 -5 -115 -60 -115 -55 0 -55 0 -60 55 -3 30 -9 55
-15 55 -5 0 -12 -25 -15 -55 -5 -55 -5 -55 -60 -55 -55 0 -55 0 -60 55 -3 30
-9 55 -15 55 -5 0 -12 -25 -15 -55 -5 -55 -5 -55 -60 -55 -55 0 -55 0 -60 127
-3 69 -9 130 -13 134 -19 19 -27 -29 -25 -141 3 -120 3 -120 -50 -123 -31 -2
-60 2 -68 9 -11 9 -17 9 -28 0 -8 -7 -37 -11 -68 -9 -53 3 -53 3 -56 48 -5 65
-18 70 -25 9 -8 -62 -6 -60 -59 -66 -61 -7 -67 4 -70 128 -4 142 -22 135 -28
-11 -5 -115 -5 -115 -60 -115 -55 0 -55 0 -60 55 -3 30 -9 55 -15 55 -5 0 -12
-25 -15 -55 -5 -55 -5 -55 -48 -58 -56 -4 -72 10 -72 64 0 68 -28 60 -32 -9
-3 -52 -3 -52 -49 -55 -33 -2 -51 2 -63 13 -15 15 -17 15 -32 0 -12 -11 -31
-15 -68 -13 -51 3 -51 3 -54 56 -2 36 -7 52 -17 52 -10 0 -15 -16 -17 -52 -3
-52 -4 -53 -37 -56 -68 -7 -81 3 -81 59 0 36 -4 49 -12 46 -8 -2 -13 -23 -13
-53 0 -49 0 -49 -55 -49 -55 0 -55 0 -60 138 -5 131 -6 140 -29 158 -57 46
-145 -10 -121 -76 14 -38 35 -48 113 -54 4 -1 7 -38 5 -83 l-3 -83 -185 0
-185 0 -3 207 c-2 178 0 208 14 222 14 15 14 17 0 32 -19 19 -21 77 -3 92 7 6
33 12 57 14 63 4 56 22 -10 28 -55 5 -55 5 -58 48 -4 56 9 70 66 74 64 4 59
22 -8 28 -55 5 -55 5 -58 53 -2 27 2 55 9 63 9 11 9 17 0 28 -7 8 -11 36 -9
63 3 48 3 48 56 51 36 2 52 7 52 17 0 10 -16 15 -52 17 -53 3 -53 3 -53 58 0
55 0 55 55 60 30 3 55 10 55 15 0 6 -25 12 -55 15 -55 5 -55 5 -58 51 -2 33 2
51 14 63 15 16 15 18 0 29 -13 10 -16 25 -14 67 3 55 3 55 56 58 36 2 52 7 49
15 -2 7 -17 11 -32 9 -65 -7 -76 3 -73 66 3 57 3 57 117 62 163 7 165 28 4 32
-118 3 -118 3 -121 52 -4 58 6 71 52 68 19 -1 37 2 41 8 3 5 -2 10 -12 11 -86
4 -78 -2 -78 64 0 60 0 60 45 63 25 2 49 7 55 13 9 9 2 10 -70 13 -29 1 -30 3
-33 54 -2 32 2 60 9 68 9 11 9 18 1 26 -15 15 -15 101 0 116 8 8 8 15 -1 26
-7 8 -11 35 -9 63 3 48 3 48 53 53 28 3 50 10 50 15 0 6 -22 12 -50 15 -50 5
-50 5 -50 60 0 55 0 55 130 60 167 6 165 24 -2 27 -142 2 -143 2 -143 52 0 46
13 58 64 63 57 4 60 28 3 28 -55 0 -69 15 -65 72 3 43 3 43 58 48 30 3 55 10
55 15 0 6 -25 12 -55 15 -55 5 -55 5 -55 60 0 55 0 55 130 60 107 4 130 8 130
20 0 13 -21 15 -130 15 l-130 0 -5 345 c-3 190 -4 348 -2 353 6 14 40 -13 132
-110z m2156 -74 c103 -32 194 -81 286 -156 109 -87 111 -90 79 -122 -10 -10
-21 -30 -25 -45 -9 -36 -20 -33 -83 24 -99 91 -268 179 -374 196 -46 8 -53 41
-11 59 12 5 20 16 17 22 -17 45 15 52 111 22z m-93 -148 c25 -11 48 -24 51
-30 4 -6 19 -11 34 -11 33 0 128 -53 141 -79 6 -10 21 -21 34 -25 14 -3 48
-28 77 -55 61 -57 72 -21 -95 -311 -62 -107 -202 -355 -313 -550 -282 -500
-542 -953 -553 -965 -6 -6 -17 0 -32 17 -28 33 -57 48 -94 48 -21 0 -44 14
-82 50 -39 36 -64 52 -92 56 -22 4 -42 10 -45 15 -3 5 -14 3 -26 -4 -17 -10
-22 -9 -32 7 -21 36 -47 57 -77 63 -16 3 -32 9 -35 14 -4 7 190 345 474 824
52 88 133 225 179 305 47 80 133 226 192 325 59 99 127 213 150 253 49 82 64
87 144 53z m711 -80 c3 -3 7 -532 11 -1174 6 -1059 5 -1167 -9 -1167 -14 0
-931 894 -949 926 -10 17 3 43 158 314 68 118 131 231 142 250 56 105 472 831
483 846 11 12 157 17 164 5z m-948 -16 c4 -9 -11 -42 -34 -78 -21 -34 -106
-174 -187 -312 -82 -137 -181 -304 -220 -370 -44 -73 -77 -120 -87 -120 -20 0
-890 854 -885 869 3 8 134 12 448 16 1030 12 959 12 965 -5z m-1995 -1495 c7
-1504 11 -1756 27 -1772 13 -13 369 -15 1712 -7 906 5 1208 4 1217 -4 7 -8 12
-92 15 -267 l3 -255 -2075 0 c-2075 0 -2075 0 -2175 28 -348 96 -576 321 -646
637 -85 387 158 825 543 979 83 34 165 54 179 46 5 -4 9 -143 9 -339 0 -298 2
-335 17 -347 31 -27 282 -16 380 15 244 79 348 286 249 502 -23 51 -24 58 -30
460 -7 468 5 1783 17 1802 7 9 69 12 280 10 l272 -3 6 -1485z m903 323 c172
-170 246 -250 246 -265 0 -12 -32 -78 -71 -146 -71 -125 -71 -125 -77 -433 -5
-323 -4 -339 38 -339 9 0 98 48 196 106 350 208 368 220 402 269 18 26 37 45
42 43 5 -2 141 -131 302 -288 161 -158 314 -305 341 -329 26 -24 47 -49 47
-56 0 -16 -1699 -39 -1716 -23 -2 2 -6 193 -9 424 -2 230 -7 614 -11 852 -6
387 -5 434 9 430 8 -1 126 -112 261 -245z m234 -549 c12 -8 31 -33 43 -55 16
-31 24 -39 37 -33 35 15 80 15 109 0 27 -13 38 -31 57 -88 4 -15 13 -17 50
-12 66 9 95 -1 112 -41 20 -49 17 -52 -142 -145 -197 -115 -176 -109 -225 -66
-23 19 -58 39 -78 42 -20 4 -41 10 -46 15 -17 13 -11 379 6 390 21 13 52 11
77 -7z m-2007 -393 c413 -108 414 -549 0 -637 -74 -15 -257 -19 -265 -5 -8 13
-20 625 -13 645 9 24 180 22 278 -3z m4101 -806 c8 -19 8 -28 -2 -40 -30 -36
-82 -3 -62 40 7 15 20 25 32 25 12 0 25 -10 32 -25z m-2812 -44 c16 -31 -11
-71 -49 -71 -22 0 -43 47 -31 69 14 28 65 29 80 2z"/>
    <path d="M2490 3371 c-58 -12 -13 -22 86 -19 51 2 89 7 89 13 0 12 -125 16
-175 6z"/>
    <path d="M2515 2621 c-17 -8 -18 -10 -4 -15 24 -10 124 -3 124 9 0 13 -93 17
-120 6z"/>
    <path d="M2527 2183 c-50 -8 -17 -23 49 -23 50 0 64 3 64 15 0 15 -44 18 -113
8z"/>
    <path d="M2470 1748 c-23 -10 -20 -12 38 -21 69 -10 177 1 177 18 0 14 -184
17 -215 3z"/>
    <path d="M3224 1525 c-10 -25 1 -174 14 -187 15 -15 24 40 20 126 -3 68 -20
98 -34 61z"/>
    <path d="M3980 1391 c0 -11 5 -23 10 -26 6 -4 10 5 10 19 0 14 -4 26 -10 26
-5 0 -10 -9 -10 -19z"/>
    <path d="M4543 4423 c-53 -82 -163 -272 -341 -583 -58 -102 -115 -201 -127
-220 -38 -59 -127 -231 -122 -236 7 -8 287 453 417 686 29 52 72 127 95 166
54 88 138 255 132 260 -3 3 -27 -30 -54 -73z"/>
    <path d="M4489 3925 c-105 -168 -151 -245 -379 -640 -85 -147 -201 -367 -197
-372 3 -2 13 11 24 29 11 18 58 94 103 168 45 74 133 223 195 330 62 107 138
239 169 292 31 53 56 100 56 103 0 3 21 42 46 86 61 108 50 111 -17 4z"/>
  </g>
  <g transform="translate(0.000000,598.000000) scale(0.100000,-0.100000)" fill="#24344b">
    <path d="M1111 5649 c-337 -66 -631 -343 -731 -689 -33 -115 -41 -564 -37
-2145 3 -1228 5 -1367 20 -1428 94 -386 406 -652 830 -707 118 -15 4139 -13
4160 3 15 11 17 43 19 292 l3 280 295 6 c162 3 343 7 403 8 94 1 107 3 107 18
0 10 -184 202 -409 428 l-409 410 -6 935 c-8 1265 -14 1501 -34 1518 -9 6 -43
12 -78 12 -79 0 -83 7 -43 77 42 75 48 181 13 226 -66 83 -229 179 -334 196
-145 24 -190 -14 -360 -298 -78 -130 -121 -193 -135 -196 -30 -6 -595 -14
-1094 -16 l-444 -1 -181 180 c-231 229 -267 262 -288 262 -22 0 -20 20 -27
-235 l-6 -210 -275 0 -275 0 -5 452 c-5 439 -6 452 -26 480 -82 110 -430 186
-653 142z m370 -60 c123 -30 247 -92 256 -127 3 -15 1 -605 -5 -1312 -6 -707
-8 -1395 -4 -1530 4 -135 5 -249 1 -253 -3 -4 -32 8 -63 27 -109 66 -291 104
-436 91 -360 -31 -656 -248 -796 -585 -20 -50 -39 -88 -42 -85 -13 13 -1 2969
13 3040 97 513 595 853 1076 734z m3489 -576 c150 -70 234 -156 227 -229 -5
-47 -94 -204 -115 -204 -8 0 -38 21 -67 48 -92 83 -306 192 -380 192 -58 0 49
179 130 216 47 22 130 13 205 -23z m-2473 -147 c43 -46 347 -348 676 -671 328
-323 602 -596 608 -606 8 -16 -7 -48 -89 -187 -55 -92 -107 -183 -117 -202
-35 -69 -25 -74 -223 121 -346 341 -389 377 -406 333 -18 -47 4 -1764 23
-1787 12 -16 79 -17 790 -16 889 2 1044 6 1049 30 3 15 -133 153 -600 609 -82
79 -148 150 -148 157 0 30 232 423 250 423 10 0 351 -328 776 -747 418 -412
817 -804 887 -872 70 -69 127 -130 127 -137 0 -11 -549 -11 -585 1 -7 1 -11
42 -10 101 0 99 0 99 39 105 89 15 87 139 -2 139 -62 0 -66 -12 -72 -187 -5
-158 -5 -158 -60 -158 -55 0 -55 0 -58 52 -4 74 -30 74 -34 1 -3 -53 -3 -53
-58 -53 -55 0 -55 0 -60 50 -3 28 -9 50 -15 50 -5 0 -12 -22 -15 -50 -5 -50
-5 -50 -60 -50 -55 0 -55 0 -58 123 -2 99 -5 122 -17 122 -12 0 -15 -22 -15
-125 0 -125 0 -125 -26 -131 -56 -14 -88 7 -94 61 -6 64 -24 64 -30 0 -5 -50
-5 -50 -55 -50 -50 0 -50 0 -55 50 -6 63 -24 65 -28 3 -4 -57 -18 -70 -74 -66
-43 3 -43 3 -48 118 -3 67 -9 115 -15 115 -6 0 -12 -48 -15 -115 -5 -115 -5
-115 -60 -115 -55 0 -55 0 -60 55 -3 30 -9 55 -15 55 -5 0 -12 -25 -15 -55 -5
-55 -5 -55 -60 -55 -55 0 -55 0 -60 55 -3 30 -9 55 -15 55 -5 0 -12 -25 -15
-55 -5 -55 -5 -55 -60 -55 -55 0 -55 0 -60 130 -4 107 -8 130 -20 130 -13 0
-15 -21 -15 -130 0 -130 0 -130 -55 -133 -65 -4 -83 12 -70 59 9 32 4 59 -11
59 -10 0 -12 -7 -13 -70 -1 -45 -1 -45 -61 -45 -60 0 -60 0 -65 50 -6 64 -24
65 -28 2 -4 -56 -29 -73 -85 -59 -32 8 -32 8 -37 118 -7 145 -24 142 -30 -6
-5 -115 -5 -115 -48 -118 -56 -4 -70 9 -74 66 -4 64 -22 59 -28 -8 -5 -55 -5
-55 -48 -58 -56 -4 -72 10 -72 64 0 68 -28 60 -32 -9 -3 -52 -3 -52 -47 -55
-60 -4 -64 2 -62 125 1 111 -9 152 -30 123 -6 -9 -9 -56 -5 -128 5 -127 5
-127 -80 -120 -39 3 -39 3 -42 56 -2 36 -7 52 -17 52 -10 0 -15 -16 -17 -52
-3 -53 -3 -53 -46 -56 -57 -4 -72 10 -72 65 0 59 -25 54 -26 -6 -1 -53 -11
-63 -65 -59 -44 3 -44 3 -49 141 -6 170 -30 204 -114 166 -70 -32 -32 -149 45
-139 38 6 40 1 37 -82 l-3 -83 -185 0 -185 0 -3 204 c-2 135 1 208 8 215 7 7
61 11 135 11 84 0 128 4 136 12 21 21 -15 26 -141 20 -130 -6 -140 -2 -140 48
0 43 16 55 72 55 75 0 66 28 -9 32 -58 3 -58 3 -61 46 -4 58 10 72 69 72 75 0
68 28 -8 32 -58 3 -58 3 -61 49 -2 33 2 51 14 63 15 16 15 18 0 29 -13 10 -17
25 -14 62 3 50 3 50 56 53 36 2 52 7 52 17 0 10 -16 15 -52 17 -53 3 -53 3
-53 58 0 55 0 55 55 60 30 3 55 10 55 15 0 6 -25 12 -55 15 -55 5 -55 5 -58
51 -2 33 2 51 13 63 15 15 15 17 1 32 -19 19 -21 97 -3 112 7 6 33 12 57 14
63 4 56 22 -10 28 -55 5 -55 5 -55 60 0 55 0 55 120 60 70 3 120 9 120 15 0 6
-50 12 -120 15 -120 5 -120 5 -120 60 0 55 0 55 40 58 22 2 44 8 50 13 9 9 3
10 -60 13 -30 1 -30 1 -30 61 0 60 0 60 53 63 69 4 66 27 -4 27 -49 0 -49 0
-52 53 -2 32 2 60 9 68 9 11 9 18 1 26 -15 15 -15 101 0 116 8 8 8 15 -1 26
-7 8 -11 35 -9 63 3 48 3 48 53 53 28 3 50 10 50 15 0 6 -22 12 -50 15 -50 5
-50 5 -50 60 0 55 0 55 130 60 170 7 172 24 3 28 -145 3 -157 9 -142 70 8 31
14 37 39 40 84 7 99 32 21 32 -54 0 -68 16 -64 72 3 43 3 43 58 48 30 3 55 10
55 15 0 6 -25 12 -55 15 -55 5 -55 5 -55 60 0 55 0 55 130 60 116 4 130 7 133
24 4 17 -4 18 -130 15 l-133 -4 -3 348 c-2 296 0 347 12 347 8 0 50 -38 93
-84z m2189 -102 c113 -37 198 -84 292 -164 89 -76 91 -81 63 -109 -10 -10 -21
-30 -25 -45 -9 -35 -25 -33 -67 10 -81 85 -256 182 -368 205 -67 14 -82 43
-33 64 12 5 22 17 21 25 -4 49 7 50 117 14z m-113 -140 c25 -8 51 -22 58 -30
6 -8 22 -14 35 -14 31 0 131 -56 145 -81 5 -10 16 -19 23 -19 18 0 112 -74
125 -99 8 -15 -6 -46 -75 -167 -80 -138 -154 -268 -394 -694 -157 -279 -522
-914 -531 -924 -4 -5 -23 7 -42 28 -28 30 -41 36 -74 36 -34 0 -47 7 -91 50
-38 37 -61 51 -92 56 -22 4 -43 10 -46 15 -3 5 -14 3 -26 -4 -17 -10 -22 -9
-32 7 -21 36 -47 57 -77 63 -46 9 -45 16 24 131 35 59 122 206 192 327 70 121
171 292 223 380 113 191 197 332 407 688 174 294 161 281 248 251z m722 -86
c2 -7 6 -536 10 -1175 6 -1037 5 -1163 -9 -1163 -14 0 -931 895 -949 926 -9
16 23 78 178 349 50 88 105 185 122 215 16 30 68 123 115 205 47 83 149 260
225 395 140 245 140 245 194 251 92 10 110 9 114 -3z m-949 -12 c4 -10 -10
-41 -34 -79 -38 -60 -146 -241 -369 -617 -69 -116 -115 -185 -125 -185 -21 0
-890 854 -885 869 3 8 135 12 453 16 247 3 563 7 701 8 225 3 254 2 259 -12z
m-1994 -1586 c4 -866 11 -1600 15 -1630 8 -55 8 -55 78 -62 73 -8 1686 -2
2426 8 350 5 427 3 436 -8 8 -9 12 -98 14 -268 l2 -255 -2074 0 c-2074 0
-2074 0 -2174 28 -418 116 -663 418 -659 812 3 316 194 620 483 769 89 46 233
92 251 81 6 -4 10 -128 10 -339 0 -298 2 -335 17 -347 32 -27 283 -17 380 15
248 81 349 289 246 505 -26 56 -26 56 -26 996 1 852 7 1247 20 1268 2 4 127 6
276 5 l272 -3 7 -1575z m914 400 c259 -257 252 -246 201 -331 -118 -196 -110
-161 -115 -490 -5 -327 -3 -349 31 -349 13 0 115 54 228 121 322 191 344 205
374 249 18 27 35 40 46 38 10 -2 150 -132 311 -289 161 -157 312 -302 336
-323 23 -21 42 -44 42 -51 0 -13 -598 -25 -1312 -25 l-408 0 0 98 c0 53 -5
432 -11 841 -5 409 -8 750 -5 758 9 22 23 9 282 -247z m235 -549 c16 -16 29
-36 29 -44 0 -27 24 -38 56 -26 67 25 122 -9 148 -93 4 -13 14 -15 63 -11 62
5 92 -12 107 -62 8 -30 4 -33 -165 -133 -182 -107 -157 -99 -199 -62 -19 17
-52 36 -75 42 -64 18 -63 16 -67 211 -3 167 -2 180 16 193 30 21 55 17 87 -15z
m-2025 -381 c397 -95 426 -509 45 -626 -70 -22 -283 -31 -298 -13 -13 16 -31
613 -20 643 9 24 168 22 273 -4z m4104 -800 c23 -42 -30 -81 -60 -45 -10 12
-10 21 -2 40 14 30 47 33 62 5z m-2815 -70 c0 -44 -54 -59 -75 -21 -17 34 4
63 43 59 29 -3 32 -6 32 -38z"/>
    <path d="M2460 3500 c0 -5 11 -10 25 -10 14 0 25 5 25 10 0 6 -11 10 -25 10
-14 0 -25 -4 -25 -10z"/>
    <path d="M2490 3371 c-54 -10 -21 -20 71 -23 83 -2 115 5 104 23 -7 10 -119
10 -175 0z"/>
    <path d="M2500 2621 c-25 -6 -31 -10 -19 -15 23 -10 154 -3 154 9 0 12 -86 16
-135 6z"/>
    <path d="M2495 2180 c-26 -10 -8 -17 65 -23 63 -5 80 -1 80 19 0 16 -109 19
-145 4z"/>
    <path d="M4640 4710 c20 -13 53 -13 45 0 -3 6 -18 10 -33 10 -21 0 -24 -2 -12
-10z"/>
    <path d="M4558 4448 c-36 -57 -116 -191 -179 -298 -363 -628 -435 -757 -426
-767 12 -12 451 731 603 1021 41 77 72 141 70 143 -1 2 -32 -43 -68 -99z"/>
    <path d="M4498 3942 c-244 -393 -598 -1016 -585 -1028 7 -7 119 175 322 526
43 74 109 187 145 250 37 63 91 160 120 215 29 55 68 126 87 158 19 32 33 60
31 62 -2 3 -57 -80 -120 -183z"/>
  </g>
  <g transform="translate(0.000000,598.000000) scale(0.100000,-0.100000)" fill="#f4c66e">
    <path d="M4708 4983 c-29 -33 -78 -117 -78 -134 0 -17 43 -35 60 -24 19 12 48
93 48 133 -1 46 -7 51 -30 25z"/>
    <path d="M5000 4961 c0 -11 71 -75 99 -91 23 -12 40 8 26 30 -23 38 -125 88
-125 61z"/>
    <path d="M4819 4776 c14 -17 128 -86 142 -86 40 0 -15 86 -60 94 -66 11 -95 8
-82 -8z"/>
    <path d="M4488 4626 c-20 -20 -401 -660 -816 -1371 -112 -192 -209 -356 -215
-364 -12 -14 14 -41 39 -41 7 0 27 -17 44 -37 36 -43 44 -39 97 57 14 25 38
63 53 85 15 22 46 76 70 120 24 44 78 141 120 215 42 74 135 236 205 360 148
260 379 657 472 813 71 119 74 135 23 152 -73 25 -78 26 -92 11z"/>
    <path d="M4646 4548 c-8 -13 -48 -84 -88 -158 -123 -223 -241 -427 -464 -800
-116 -195 -226 -380 -243 -410 -18 -30 -56 -93 -86 -140 -30 -47 -54 -89 -55
-93 0 -4 -18 -38 -40 -74 -48 -81 -51 -103 -12 -103 28 0 67 -21 90 -49 22
-27 38 -5 215 314 200 359 274 485 599 1030 268 448 262 434 183 477 -61 34
-80 35 -99 6z"/>
    <path d="M4818 4453 c-8 -10 -22 -31 -30 -48 -25 -51 -120 -220 -265 -475
-250 -439 -317 -554 -558 -960 -192 -324 -180 -293 -115 -304 24 -4 52 -17 66
-31 37 -37 46 -32 93 53 24 42 121 212 216 377 94 165 234 410 310 545 76 135
192 340 258 455 194 337 181 298 119 356 -58 53 -71 58 -94 32z"/>
  </g>
  <g transform="translate(0.000000,598.000000) scale(0.100000,-0.100000)" fill="#708e9c">
    <path d="M1824 4496 c-14 -11 -16 -18 -8 -26 19 -19 59 -8 62 18 4 26 -23 30
-54 8z"/>
    <path d="M5020 4338 c-30 -50 -20 -78 27 -78 25 0 37 28 29 70 -2 14 -5 28 -5
33 -2 19 -33 4 -51 -25z"/>
    <path d="M4836 3996 c-9 -15 -16 -32 -14 -38 2 -6 12 1 22 16 9 15 16 32 14
38 -2 6 -12 -1 -22 -16z"/>
    <path d="M4787 3913 c-17 -33 -16 -75 2 -81 9 -3 11 2 7 15 -3 10 1 28 9 39
16 22 20 54 5 54 -5 0 -16 -12 -23 -27z"/>
    <path d="M4607 3583 c-13 -12 -7 -43 8 -43 9 0 15 9 15 25 0 24 -10 32 -23 18z"/>
    <path d="M3076 3465 c-21 -21 -57 -105 -50 -116 9 -15 21 -1 28 32 5 27 9 30
31 25 32 -8 57 33 35 59 -16 19 -25 19 -44 0z"/>
    <path d="M4366 3188 c-21 -30 -20 -61 2 -81 26 -24 39 -21 57 13 20 38 19 53
-3 73 -25 23 -38 21 -56 -5z"/>
    <path d="M3030 3136 c0 -16 -7 -26 -21 -29 -19 -5 -20 -11 -16 -79 3 -40 7
-189 10 -331 5 -264 10 -294 42 -267 18 15 20 264 3 287 -6 7 -5 20 3 34 13
25 6 113 -11 134 -8 9 -6 14 5 19 26 9 20 256 -6 256 -5 0 -9 -11 -9 -24z"/>
    <path d="M4171 2843 c-35 -42 -44 -67 -39 -109 9 -83 112 9 106 96 -4 59 -26
63 -67 13z"/>
    <path d="M4092 2678 c-17 -17 -15 -48 3 -48 17 0 39 36 30 50 -8 13 -18 13
-33 -2z"/>
    <path d="M1210 2405 c-7 -9 -10 -29 -6 -52 22 -150 17 -137 63 -144 62 -8 76
-24 69 -78 -13 -97 -14 -171 -3 -178 25 -15 112 -9 144 9 35 21 53 17 53 -10
1 -24 22 -49 45 -53 11 -3 21 -13 23 -24 7 -34 18 -37 60 -16 42 21 92 82 92
112 0 16 -66 69 -87 69 -7 0 -22 14 -34 31 -28 39 -21 107 16 151 76 90 -15
173 -115 104 -29 -20 -60 -36 -70 -36 -10 0 -23 -7 -30 -15 -17 -20 -25 -19
-55 9 -25 24 -26 24 -9 65 23 59 10 71 -76 71 -47 0 -71 -4 -80 -15z"/>
    <path d="M3799 2400 c-63 -33 -64 -68 -1 -62 52 5 86 35 72 62 -13 25 -25 24
-71 0z"/>
    <path d="M4130 2406 c0 -17 89 -96 108 -96 15 0 16 34 2 61 -21 38 -110 66
-110 35z"/>
    <path d="M3026 2378 c-24 -37 -26 -141 -2 -146 27 -6 36 15 36 90 0 73 -11 91
-34 56z"/>
    <path d="M3608 2284 c-47 -25 -58 -64 -18 -64 15 0 70 58 70 74 0 10 -24 6
-52 -10z"/>
    <path d="M772 2246 c-20 -19 -34 -38 -29 -42 13 -13 97 36 97 57 0 29 -26 23
-68 -15z"/>
    <path d="M4500 2071 c0 -18 58 -99 72 -100 10 -1 38 29 38 41 0 6 -16 26 -36
44 -40 38 -74 45 -74 15z"/>
    <path d="M547 1992 c-25 -28 -21 -67 9 -91 57 -45 70 -21 48 87 -5 27 -34 29
-57 4z"/>
    <path d="M1030 1961 c-48 -13 -32 -46 20 -43 53 3 68 15 50 37 -13 16 -29 17
-70 6z"/>
    <path d="M3062 1926 c-14 -31 -8 -36 48 -36 46 0 100 28 100 51 0 5 -31 9 -68
9 -63 0 -70 -2 -80 -24z"/>
    <path d="M3772 1939 c-28 -10 -24 -36 4 -31 24 5 26 7 22 25 -2 11 -9 12 -26
6z"/>
    <path d="M4397 1932 c-23 -26 -13 -32 52 -32 68 0 91 11 72 34 -10 12 -18 13
-32 5 -13 -6 -25 -6 -38 1 -27 14 -35 13 -54 -8z"/>
    <path d="M1214 1927 c-3 -8 -4 -45 -2 -83 3 -66 4 -69 30 -72 20 -2 28 2 34
20 3 13 15 34 25 47 25 32 24 59 -3 82 -27 21 -76 25 -84 6z"/>
    <path d="M447 1753 c-13 -12 -7 -50 11 -66 28 -25 72 -33 72 -12 0 47 -59 103
-83 78z"/>
    <path d="M553 1623 c-15 -5 -18 -73 -4 -73 10 0 41 44 41 59 0 11 -21 19 -37
14z"/>
    <path d="M423 1464 c-8 -21 29 -157 44 -162 7 -2 16 5 19 15 3 10 10 26 15 35
13 26 11 45 -8 76 -31 50 -59 64 -70 36z"/>
    <path d="M4163 1243 c-47 -19 17 -48 127 -58 36 -3 73 -7 84 -8 33 -4 45 31
17 54 -23 18 -190 28 -228 12z"/>
    <path d="M4748 1243 c-21 -6 -31 -48 -16 -72 8 -13 17 -16 27 -11 9 4 34 12
55 17 77 16 71 74 -8 72 -22 -1 -48 -3 -58 -6z"/>
    <path d="M2417 1233 c-23 -23 22 -63 72 -63 38 0 71 28 71 60 0 11 -132 14
-143 3z"/>
    <path d="M2765 1226 c-43 -16 -55 -25 -55 -42 0 -18 58 -19 95 -2 19 9 28 9
37 0 18 -18 88 -15 110 4 15 14 26 15 69 7 55 -11 109 5 109 32 0 18 -319 19
-365 1z"/>
    <path d="M3303 1227 c-13 -5 -23 -14 -23 -19 0 -4 -11 -8 -24 -8 -33 0 -41
-16 -16 -30 14 -8 112 -10 311 -8 290 3 290 3 309 28 12 16 15 29 9 34 -13 14
-538 17 -566 3z"/>
    <path d="M5230 1213 c0 -9 -7 -25 -16 -35 -22 -23 -3 -48 36 -48 53 0 74 44
37 78 -28 26 -57 29 -57 5z"/>
  </g>
  <g transform="translate(0.000000,598.000000) scale(0.100000,-0.100000)" fill="#95b6ba">
    <path d="M4672 4738 c7 -19 38 -22 38 -4 0 10 -9 16 -21 16 -12 0 -19 -5 -17
-12z"/>
    <path d="M4691 4657 c-12 -16 12 -37 65 -57 14 -6 55 -31 90 -56 69 -49 91
-49 79 -1 -8 30 -17 39 -64 57 -18 7 -44 24 -57 37 -13 13 -34 23 -48 23 -13
0 -31 2 -39 5 -7 3 -19 0 -26 -8z"/>
    <path d="M5134 4532 c-6 -4 -19 -23 -29 -42 -10 -19 -68 -123 -130 -230 -61
-107 -176 -310 -255 -450 -79 -140 -176 -311 -215 -380 -171 -298 -169 -293
-131 -330 33 -30 45 -24 87 51 47 84 73 131 187 334 52 94 109 195 127 225 18
30 47 82 65 115 141 261 217 388 241 401 26 13 39 39 39 80 0 11 21 62 46 113
25 50 43 99 40 107 -6 15 -53 19 -72 6z"/>
    <path d="M1801 4506 c-10 -11 -13 -267 -14 -1108 -2 -1093 -2 -1093 20 -1140
67 -141 53 -277 -43 -393 -39 -49 -39 -53 6 -30 33 17 89 83 119 140 43 85 45
217 16 1105 -3 91 -6 448 -7 793 -1 346 -5 630 -8 631 -24 14 -79 15 -89 2z"/>
    <path d="M2285 4488 c4 -13 9 -40 12 -61 9 -68 34 -63 40 9 4 51 -8 74 -39 74
-17 0 -19 -4 -13 -22z"/>
    <path d="M2823 4494 c-5 -15 32 -64 49 -64 20 0 19 33 -2 56 -27 28 -38 30
-47 8z"/>
    <path d="M2546 4191 c-7 -11 22 -23 35 -15 5 3 9 9 9 15 0 12 -37 12 -44 0z"/>
    <path d="M2546 4133 c-12 -12 -37 -75 -32 -80 11 -11 67 10 77 29 15 28 -23
72 -45 51z"/>
    <path d="M4063 4118 c-30 -34 -45 -66 -33 -73 14 -9 48 12 54 32 2 10 7 28 11
41 3 12 2 22 -3 22 -4 0 -18 -10 -29 -22z"/>
    <path d="M2987 3413 c3 -98 8 -479 11 -848 l7 -670 135 1 c74 0 458 1 853 2
536 2 717 5 717 14 0 10 -484 490 -627 622 -58 53 -69 53 -98 -5 -9 -16 -53
-50 -112 -87 -144 -88 -442 -263 -476 -280 -37 -18 -22 -37 31 -36 34 0 229
102 544 285 36 22 72 39 80 39 7 -1 109 -94 227 -209 201 -196 212 -209 200
-229 -8 -12 -19 -24 -26 -26 -33 -13 -1234 -28 -1262 -16 -18 7 -46 9 -69 5
-39 -6 -39 -6 -45 52 -14 154 -9 1353 7 1353 8 0 95 -75 191 -167 183 -174
203 -187 219 -140 10 27 3 35 -239 272 -138 134 -255 244 -262 244 -8 1 -10
-46 -6 -176z"/>
    <path d="M4254 2993 c-21 -38 -45 -81 -54 -98 -9 -16 -42 -74 -73 -128 -32
-54 -57 -109 -57 -122 0 -23 32 -55 57 -55 15 0 122 181 226 383 20 38 20 38
-3 62 -37 40 -54 32 -96 -42z"/>
    <path d="M1222 2418 c-9 -12 -12 -90 -10 -329 l3 -314 95 -3 c288 -9 474 115
475 318 1 189 -173 318 -455 337 -78 5 -98 3 -108 -9z"/>
    <path d="M1035 2386 c-418 -137 -684 -573 -600 -986 29 -145 75 -222 75 -126
0 64 18 146 38 174 40 56 71 119 71 145 3 115 226 277 426 307 44 7 86 14 93
16 10 3 12 57 10 246 -3 281 6 263 -113 224z"/>
    <path d="M693 2323 c-14 -5 -18 -43 -5 -43 5 0 19 11 32 25 24 26 11 34 -27
18z"/>
    <path d="M4073 1538 c-6 -7 -13 -21 -16 -30 -3 -10 -19 -20 -34 -24 -49 -10
-53 -13 -53 -33 0 -11 9 -22 20 -26 11 -3 20 -11 20 -16 0 -17 29 -9 35 10 3
12 17 21 33 23 25 3 27 7 30 56 3 53 -12 70 -35 40z"/>
    <path d="M3410 1240 c-1005 -5 -1005 -5 -1008 -31 -6 -51 -81 -47 1188 -64
206 -3 447 -7 535 -10 88 -3 357 -8 599 -11 411 -6 440 -8 457 -25 23 -23 35
-24 47 -3 5 9 24 19 43 23 34 7 34 7 34 66 l0 60 -445 0 c-245 0 -897 -2
-1450 -5z"/>
  </g>
  <g transform="translate(0.000000,598.000000) scale(0.100000,-0.100000)" fill="#8bb6c3">
    <path d="M4672 4738 c7 -19 38 -22 38 -4 0 10 -9 16 -21 16 -12 0 -19 -5 -17
-12z"/>
    <path d="M4690 4647 c0 -14 50 -47 73 -47 8 0 34 -16 58 -36 67 -55 99 -70 99
-44 0 36 -17 56 -60 70 -26 9 -45 22 -50 36 -13 34 -120 53 -120 21z"/>
    <path d="M5130 4528 c-11 -14 -186 -317 -275 -478 -29 -52 -119 -212 -200
-355 -337 -593 -320 -557 -281 -595 40 -36 37 -39 151 165 187 337 234 421
272 483 23 40 43 75 43 77 0 16 209 375 232 399 16 16 31 41 34 55 4 14 29 73
56 129 27 57 47 110 44 118 -7 17 -61 19 -76 2z"/>
    <path d="M1801 4506 c-10 -11 -13 -267 -14 -1108 -2 -1093 -2 -1093 28 -1158
57 -124 38 -270 -51 -378 -42 -51 0 -42 50 11 57 59 93 131 106 209 9 62 2
546 -15 963 -2 72 -6 426 -7 788 -2 362 -5 662 -8 666 -11 17 -77 22 -89 7z"/>
    <path d="M2280 4500 c0 -6 7 -24 16 -41 8 -16 12 -39 9 -50 -7 -21 11 -52 25
-44 12 7 10 118 -2 133 -13 15 -48 16 -48 2z"/>
    <path d="M2830 4494 c1 -32 37 -71 52 -56 15 15 4 37 -30 60 -20 13 -22 13
-22 -4z"/>
    <path d="M2545 4122 c-12 -8 -38 -63 -32 -68 2 -2 20 1 41 7 32 9 37 14 34 37
-3 27 -24 39 -43 24z"/>
    <path d="M4046 4098 c-17 -24 -21 -58 -8 -58 15 0 52 46 52 63 0 24 -26 21
-44 -5z"/>
    <path d="M2987 3408 c3 -101 8 -482 12 -848 l6 -665 850 3 c468 2 853 7 857
11 6 6 -489 498 -634 630 -53 48 -64 46 -93 -10 -9 -16 -53 -50 -112 -86 -153
-94 -443 -265 -476 -281 -37 -18 -21 -37 31 -36 36 1 128 49 499 260 61 35
118 64 125 64 7 -1 109 -94 227 -209 281 -274 287 -256 -92 -265 -285 -7 -952
-10 -1048 -5 -57 3 -57 3 -62 58 -15 147 -8 1351 7 1351 9 0 95 -75 191 -167
183 -174 203 -187 219 -140 10 28 4 35 -239 272 -138 134 -255 244 -262 244
-9 1 -10 -45 -6 -181z"/>
    <path d="M4181 2864 c-114 -202 -124 -229 -93 -257 42 -38 56 -19 210 263 81
149 78 138 52 165 -43 45 -51 37 -169 -171z"/>
    <path d="M1222 2422 c-9 -6 -12 -79 -10 -328 l3 -319 107 -3 c280 -7 462 117
463 318 0 148 -109 263 -301 314 -69 19 -243 31 -262 18z"/>
    <path d="M1030 2386 c-431 -153 -690 -597 -590 -1012 33 -140 70 -193 70 -100
0 75 20 160 45 186 31 34 65 104 65 135 0 38 22 74 82 131 110 105 196 149
343 174 l100 17 0 244 c0 281 7 268 -115 225z"/>
    <path d="M4065 1516 c-19 -25 -36 -36 -58 -38 -39 -4 -52 -42 -18 -53 12 -3
21 -11 21 -16 0 -20 28 -8 34 15 4 18 14 26 34 28 24 3 27 8 30 42 5 56 -11
64 -43 22z"/>
    <path d="M3405 1240 c-1000 -5 -1000 -5 -1003 -31 -5 -46 -3 -47 518 -53 272
-4 711 -11 975 -16 264 -5 662 -12 885 -16 223 -4 413 -11 423 -16 12 -6 23
-6 30 0 7 6 26 12 42 14 30 3 30 4 30 63 l0 60 -450 0 c-247 0 -900 -2 -1450
-5z"/>
  </g>
  <g transform="translate(0.000000,598.000000) scale(0.100000,-0.100000)" fill="#b3d7e0">
    <path d="M1126 5595 c-372 -71 -695 -433 -721 -810 -9 -124 -13 -2925 -4
-2925 4 0 26 39 48 86 127 270 375 469 661 530 179 38 447 1 562 -78 56 -39
53 -76 50 674 -1 381 1 1073 6 1538 4 465 4 853 0 862 -11 24 -117 73 -221
103 -115 32 -271 40 -381 20z"/>
    <path d="M2397 4613 c2 -180 7 -334 9 -342 4 -11 27 -13 122 -9 131 6 142 4
142 -22 0 -27 -30 -33 -154 -29 -111 4 -111 4 -111 -46 0 -50 0 -50 50 -53 88
-6 85 -47 -3 -47 -47 0 -47 0 -47 -50 0 -50 0 -50 55 -55 40 -4 55 -9 55 -20
0 -11 -15 -16 -55 -20 -55 -5 -55 -5 -55 -55 0 -50 0 -50 135 -50 128 0 135
-1 135 -20 0 -19 -8 -20 -135 -25 -135 -5 -135 -5 -135 -50 0 -45 0 -45 55
-50 40 -4 55 -9 55 -20 0 -11 -15 -16 -55 -20 -55 -5 -55 -5 -55 -55 0 -50 0
-50 55 -55 40 -4 55 -9 55 -20 0 -11 -15 -16 -55 -20 -55 -5 -55 -5 -55 -50 0
-45 0 -45 135 -45 128 0 135 -1 135 -20 0 -19 -8 -20 -130 -25 -129 -5 -129
-5 -138 -43 -14 -58 -6 -67 58 -67 48 0 56 -3 53 -17 -2 -14 -16 -19 -53 -23
-50 -5 -50 -5 -50 -55 0 -50 0 -50 53 -53 74 -4 71 -35 -3 -42 -50 -5 -50 -5
-50 -55 0 -50 0 -50 116 -46 83 2 118 0 124 -9 16 -25 -16 -34 -128 -35 -112
0 -112 0 -112 -55 0 -55 0 -55 53 -58 74 -4 71 -35 -3 -42 -50 -5 -50 -5 -50
-55 0 -50 0 -50 115 -50 108 0 115 -1 115 -20 0 -19 -8 -20 -115 -25 -115 -5
-115 -5 -115 -55 0 -50 0 -50 55 -50 43 0 55 -3 58 -17 3 -17 -13 -22 -88 -30
-23 -3 -25 -7 -25 -53 0 -50 0 -50 47 -50 90 -1 88 -32 -2 -37 -45 -3 -45 -3
-45 -53 0 -50 0 -50 118 -53 106 -2 118 -4 115 -20 -3 -15 -20 -18 -118 -22
-115 -5 -115 -5 -115 -55 0 -50 0 -50 55 -55 40 -4 55 -9 55 -20 0 -11 -15
-16 -55 -20 -55 -5 -55 -5 -55 -55 0 -50 0 -50 58 -53 82 -4 79 -35 -3 -42
-55 -5 -55 -5 -55 -45 0 -40 0 -40 140 -40 133 0 140 -1 140 -20 0 -19 -8 -20
-140 -25 l-140 -5 0 -210 0 -210 172 0 c94 0 175 3 179 7 12 12 4 142 -9 150
-7 4 -24 8 -39 8 -75 0 -95 110 -27 145 40 21 64 19 96 -9 28 -24 28 -27 33
-158 5 -133 5 -133 50 -133 45 0 45 0 48 53 4 74 35 71 42 -3 5 -50 5 -50 55
-50 50 0 50 0 53 53 4 74 35 71 42 -3 5 -50 5 -50 55 -50 50 0 50 0 55 125 4
102 8 125 20 125 12 0 16 -23 20 -125 5 -125 5 -125 55 -125 50 0 50 0 47 48
-2 36 1 49 13 53 22 9 28 0 35 -54 5 -47 5 -47 50 -47 45 0 45 0 50 55 4 47 8
55 25 55 17 0 21 -8 25 -55 5 -55 5 -55 55 -55 50 0 50 0 47 105 -3 89 -1 108
12 120 28 22 35 0 38 -115 3 -110 3 -110 53 -110 50 0 50 0 55 55 4 40 9 55
20 55 11 0 16 -15 20 -55 5 -55 5 -55 55 -55 50 0 50 0 55 60 4 44 9 60 20 60
11 0 16 -16 20 -60 5 -60 5 -60 55 -60 50 0 50 0 53 130 1 71 7 134 12 139 22
22 34 -17 39 -136 6 -123 6 -123 51 -123 45 0 45 0 48 50 5 87 48 84 54 -3 3
-47 3 -47 48 -47 45 0 45 0 48 47 6 86 48 84 54 -2 3 -45 3 -45 53 -45 50 0
50 0 46 111 -2 78 1 114 9 119 26 16 35 -17 35 -123 0 -107 0 -107 50 -107 50
0 50 0 55 55 4 40 9 55 20 55 11 0 16 -15 20 -55 5 -55 5 -55 55 -55 50 0 50
0 53 58 4 82 35 79 42 -3 5 -55 5 -55 55 -55 50 0 50 0 50 125 0 118 1 125 20
125 19 0 20 -8 25 -125 5 -125 5 -125 55 -125 50 0 50 0 55 55 4 40 9 55 20
55 11 0 16 -15 20 -55 5 -55 5 -55 55 -55 50 0 50 0 53 58 4 82 35 79 42 -3 5
-55 5 -55 55 -55 50 0 50 0 46 152 -3 152 -3 152 23 178 33 33 79 33 111 0 48
-47 23 -120 -45 -134 -35 -7 -35 -7 -35 -101 l0 -95 279 -3 c154 -1 284 2 288
6 5 5 -80 96 -195 208 -112 109 -495 486 -850 837 -355 350 -652 637 -660 637
-15 0 -33 -27 -102 -155 -21 -38 -62 -111 -92 -162 -29 -50 -51 -98 -47 -106
3 -8 158 -164 345 -347 330 -323 361 -359 322 -375 -10 -4 -423 -9 -918 -12
-900 -6 -900 -6 -919 16 -19 21 -20 51 -26 759 -7 691 -5 986 6 1040 11 56 37
34 452 -373 133 -130 133 -130 153 -105 30 37 229 380 229 395 0 15 -1356
1359 -1375 1363 -11 3 -12 -60 -8 -325z"/>
    <path d="M4570 4770 c0 -12 28 -25 85 -39 48 -12 128 -76 85 -67 -14 2 -56 16
-93 30 -79 30 -105 32 -114 10 -7 -20 8 -30 59 -38 84 -14 292 -131 362 -205
17 -17 36 -31 43 -31 28 0 11 41 -32 77 -25 20 -45 41 -45 45 0 18 32 6 67
-26 39 -34 63 -37 63 -7 0 24 -150 142 -236 185 -122 62 -244 95 -244 66z"/>
    <path d="M5222 4524 c-22 -15 -36 -15 -74 1 -37 15 -64 -91 -37 -142 14 -27
-2 -71 -61 -163 -20 -30 -46 -75 -59 -100 -22 -42 -175 -319 -331 -595 -37
-66 -79 -140 -92 -165 -14 -25 -53 -93 -86 -152 -34 -58 -65 -113 -68 -122
-10 -25 876 -897 889 -875 1 2 0 526 -3 1164 -5 1160 -5 1160 -30 1163 -14 1
-35 -5 -48 -14z"/>
    <path d="M3228 4523 c-230 -3 -278 -6 -278 -17 0 -20 846 -851 867 -851 15 0
104 141 251 400 50 86 183 307 229 378 24 38 42 75 39 83 -5 14 -221 16 -1108
7z"/>
    <path d="M1889 4503 c-7 -35 5 -1410 16 -1828 15 -617 14 -638 -30 -655 -14
-5 -25 -17 -25 -25 0 -27 -65 -119 -111 -159 -103 -88 -227 -126 -412 -127
-172 -1 -175 1 -179 118 -3 88 -3 88 -63 85 -287 -13 -528 -245 -576 -555 -6
-39 -15 -80 -20 -89 -7 -13 -1 -35 21 -79 89 -181 265 -329 473 -400 193 -66
31 -61 2281 -59 1122 1 2044 4 2049 7 9 6 -2 374 -12 384 -3 4 -231 10 -506
13 -275 4 -547 9 -605 11 -58 3 -472 10 -920 16 -894 11 -835 6 -882 75 -36
52 -37 105 -43 1856 -2 769 -7 1402 -10 1408 -7 12 -444 14 -446 3z"/>
    <path d="M3067 2688 c3 -590 6 -715 18 -727 12 -12 113 -12 692 -2 373 6 699
11 726 11 28 0 47 5 47 11 0 6 -53 61 -117 123 -65 61 -174 166 -243 234 -69
67 -132 122 -139 122 -7 0 -65 -31 -129 -68 -124 -72 -315 -178 -419 -233 -63
-32 -63 -32 -104 -14 -63 29 -63 26 -55 365 7 305 7 305 65 410 32 57 57 110
54 117 -8 20 -375 363 -389 363 -9 0 -11 -157 -7 -712z"/>
    <path d="M4610 1953 c-25 -32 -19 -39 41 -48 60 -9 71 7 33 46 -34 36 -47 36
-74 2z"/>
    <path d="M5520 1605 c-10 -12 -10 -18 0 -30 26 -32 68 -8 54 30 -4 8 -14 15
-24 15 -10 0 -23 -7 -30 -15z"/>
    <path d="M2706 1564 c-9 -8 -16 -19 -16 -24 0 -11 29 -40 40 -40 11 0 40 29
40 40 0 11 -29 40 -40 40 -5 0 -16 -7 -24 -16z"/>
  </g>
</svg>
