<?xml version="1.0" standalone="no"?>
<!DOCTYPE svg PUBLIC "-//W3C//DTD SVG 20010904//EN"
 "http://www.w3.org/TR/2001/REC-SVG-20010904/DTD/svg10.dtd">
<svg version="1.0" xmlns="http://www.w3.org/2000/svg"
 width="644.000000pt" height="598.000000pt" viewBox="0 0 644.000000 598.000000"
 preserveAspectRatio="xMidYMid meet">
<metadata>
Created by potrace 1.16, written by Peter Selinger 2001-2019
</metadata>
<g transform="translate(0.000000,598.000000) scale(0.100000,-0.100000)"
fill="currentColor" stroke="none">
<path d="M1165 5664 c-204 -34 -379 -121 -520 -261 -118 -117 -206 -256 -257
-403 -47 -137 -47 -143 -48 -1865 -2 -1440 0 -1630 14 -1707 60 -330 274 -578
602 -697 176 -64 59 -61 2335 -61 l2068 0 12 22 c8 16 11 98 8 292 l-4 271
402 5 c221 3 405 8 409 13 4 4 1 19 -7 33 -7 14 -192 202 -411 418 l-398 391
-5 410 c-3 226 -8 743 -11 1150 -3 407 -9 778 -13 825 l-6 85 -82 3 c-46 2
-83 7 -83 11 0 5 16 38 36 72 67 120 56 190 -44 279 -95 85 -241 150 -337 150
-45 0 -109 -27 -142 -59 -26 -25 -86 -111 -134 -194 -41 -70 -42 -71 -103
-174 l-50 -83 -350 0 c-193 0 -540 -3 -771 -6 l-420 -6 -230 226 c-162 159
-236 225 -250 223 -19 -2 -20 -10 -23 -224 -1 -123 -3 -223 -5 -224 -1 0 -127
-3 -279 -6 l-278 -5 0 462 0 463 -33 31 c-81 76 -266 134 -447 140 -63 3 -128
2 -145 0z m330 -83 c85 -23 198 -71 228 -99 17 -15 18 -38 11 -467 -4 -247 -8
-946 -8 -1552 -1 -1100 -1 -1102 -21 -1087 -38 28 -140 73 -205 91 -102 28
-339 25 -445 -5 -297 -85 -539 -312 -639 -598 l-25 -69 4 1505 c4 1629 1 1557
57 1711 56 152 198 338 332 434 111 79 235 132 364 155 77 14 258 4 347 -19z
m3421 -553 c29 -13 45 -52 18 -41 -8 3 -11 10 -7 16 4 6 0 8 -9 4 -9 -3 -40 0
-68 8 -29 8 -49 11 -46 8 3 -3 -9 -13 -26 -22 -33 -17 -57 -46 -46 -57 4 -3
17 1 29 9 31 22 49 12 42 -24 -3 -19 -1 -29 6 -29 6 0 16 -10 21 -22 6 -17 9
-18 9 -6 1 10 8 16 19 16 9 -1 35 10 57 24 22 13 45 23 52 21 18 -6 24 14 8
27 -19 16 -19 40 0 40 25 0 169 -104 192 -139 27 -40 30 -86 7 -95 -9 -3 -31
-6 -49 -6 -27 0 -36 -6 -47 -27 -14 -29 -17 -58 -7 -58 3 0 13 -6 22 -13 9 -8
21 -11 27 -7 6 3 0 -14 -12 -40 l-22 -46 -40 42 c-77 80 -250 177 -373 208
l-65 17 54 79 c66 99 102 125 173 125 29 0 66 -6 81 -12z m-91 -57 c-3 -5 -1
-12 5 -16 14 -9 13 -25 -2 -25 -7 0 -14 11 -14 25 -1 14 2 25 8 25 5 0 7 -4 3
-9z m42 3 c-3 -3 -12 -4 -19 -1 -8 3 -5 6 6 6 11 1 17 -2 13 -5z m-1897 -584
c57 -54 789 -781 802 -796 17 -20 14 -26 -90 -202 -59 -99 -115 -195 -124
-212 l-18 -31 -277 266 c-200 191 -284 265 -298 263 -20 -3 -20 -10 -19 -889
0 -487 4 -897 7 -911 5 -20 15 -27 44 -32 44 -8 1787 2 1808 11 8 3 15 13 15
22 0 16 -56 72 -499 506 -101 99 -202 199 -223 222 l-39 42 68 118 c38 65 94
162 123 216 l53 98 36 -33 c39 -35 237 -229 1141 -1120 322 -317 596 -585 610
-597 l25 -20 -302 -1 -303 0 0 105 0 105 29 -6 c39 -8 81 31 81 76 0 70 -86
105 -135 55 -25 -24 -25 -25 -21 -180 l5 -155 -55 0 -54 0 0 34 c0 54 -11 96
-26 96 -11 0 -14 -17 -14 -65 l0 -65 -55 0 -55 0 0 46 c0 49 -15 88 -31 79 -5
-4 -9 -33 -9 -66 l0 -59 -57 0 -58 0 0 129 c0 71 -3 133 -7 136 -4 4 -15 5
-24 1 -15 -6 -16 -20 -11 -136 l6 -130 -54 0 -55 0 0 53 c0 28 -4 58 -9 66
-17 26 -31 -1 -31 -60 l0 -59 -55 0 -54 0 -3 63 c-2 47 -7 62 -18 62 -11 0
-16 -15 -18 -62 l-3 -63 -54 0 -55 0 0 119 c0 120 -7 144 -30 116 -10 -12 -11
-44 -7 -125 l7 -110 -25 -1 c-14 -1 -40 -2 -57 -3 l-33 -1 0 57 c0 60 -18 97
-31 64 -4 -9 -7 -41 -8 -69 l-1 -52 -55 1 -55 1 2 42 c1 23 -2 53 -8 67 -8 22
-12 24 -24 14 -10 -8 -15 -32 -15 -72 l0 -59 -51 3 -51 3 -4 134 c-2 74 -6
137 -9 139 -2 2 -11 2 -20 -2 -14 -5 -16 -25 -14 -138 l1 -133 -55 -3 -56 -3
-3 63 c-2 48 -7 63 -18 63 -11 0 -16 -15 -18 -62 l-3 -63 -54 0 -55 0 0 53 c0
28 -4 58 -9 66 -17 26 -31 -1 -31 -60 l0 -59 -55 0 -55 0 0 106 c0 102 -11
151 -31 139 -5 -4 -9 -60 -9 -126 l0 -119 -58 0 -57 0 3 44 c2 24 -1 54 -8 66
-19 35 -34 8 -31 -55 l2 -56 -58 3 -58 3 -2 35 c-1 19 -2 45 -2 58 -1 12 -7
22 -16 22 -16 0 -19 -19 -16 -82 l3 -38 -56 0 -55 0 -3 128 c-3 105 -6 127
-18 127 -12 0 -15 -22 -18 -127 l-3 -128 -54 0 -55 0 0 44 c0 54 -8 76 -26 76
-10 0 -14 -15 -14 -60 l0 -60 -55 0 -54 0 -3 57 c-2 46 -7 59 -20 61 -16 3
-18 -5 -18 -62 l0 -66 -50 0 -50 0 -1 93 c0 142 -4 173 -22 201 -44 66 -147
28 -147 -55 0 -11 12 -31 26 -45 19 -20 33 -25 59 -22 39 4 40 1 40 -102 l0
-65 -182 -3 -183 -2 0 215 0 215 138 0 c146 0 182 9 147 36 -17 12 -42 14
-152 8 l-133 -7 0 47 0 46 53 0 c28 0 58 4 66 9 26 17 -1 31 -60 31 l-59 0 0
55 0 55 33 1 c17 1 41 1 52 0 11 -1 26 3 34 8 26 17 -1 31 -60 31 l-59 0 0 55
0 55 109 0 c118 0 141 4 141 26 0 11 -25 14 -125 14 l-125 0 0 55 0 55 60 0
c47 0 60 3 60 15 0 12 -13 15 -60 15 l-60 0 0 60 0 60 59 0 c33 0 62 4 66 9
10 17 -26 28 -76 23 l-49 -5 0 57 0 56 113 0 c114 0 152 9 130 31 -7 7 -52 11
-126 10 l-115 -1 -4 54 -3 55 60 3 c45 2 60 7 60 18 0 11 -14 16 -57 18 l-58
3 0 59 0 59 128 3 c105 3 127 6 127 18 0 13 -21 15 -130 15 l-130 0 0 53 -1
52 51 0 c27 0 56 4 64 9 26 17 -1 31 -60 31 l-60 0 2 55 2 54 61 3 c46 2 61 7
61 18 0 11 -15 16 -62 18 l-63 3 0 54 0 55 134 0 c109 0 136 3 147 16 22 27
-6 32 -147 27 l-134 -6 0 51 0 51 63 3 c47 2 62 7 62 18 0 11 -15 16 -62 18
l-63 3 0 54 0 55 59 0 c59 0 86 14 60 31 -8 5 -38 9 -66 9 l-53 0 0 50 c0 58
-13 54 155 50 93 -2 113 1 125 15 25 30 -6 36 -147 29 l-133 -7 0 56 0 56 63
3 c47 2 62 7 62 18 0 12 -14 15 -63 15 l-62 0 0 57 0 57 63 3 c47 2 62 7 62
18 0 12 -13 15 -62 13 l-63 -1 0 59 0 59 129 -3 c130 -2 163 5 146 33 -6 10
-42 11 -141 8 l-134 -5 0 121 c0 66 -3 227 -6 356 l-6 235 288 -285 c159 -157
291 -287 294 -290z m1678 384 c101 -29 233 -100 325 -174 48 -39 87 -74 87
-78 0 -4 -7 -15 -14 -25 -12 -16 -14 -16 -27 0 -23 27 -91 73 -108 73 -9 0 11
-25 48 -58 63 -57 64 -59 49 -81 l-16 -23 -23 32 c-30 40 -103 95 -204 153
-72 41 -120 59 -224 84 -33 8 -33 8 -15 30 l19 23 75 -24 c41 -12 90 -31 108
-40 34 -18 49 -16 37 4 -11 17 -96 56 -152 70 -29 6 -53 13 -53 15 0 13 14 35
22 35 5 0 35 -7 66 -16z m-74 -154 c37 -12 65 -24 62 -28 -2 -4 -23 -38 -46
-76 -86 -142 -354 -605 -580 -1001 -291 -511 -429 -745 -440 -745 -5 0 -11 8
-14 18 -12 36 -54 66 -91 65 l-35 -1 19 26 c10 15 98 164 196 332 98 168 252
431 343 585 91 154 181 307 200 340 70 120 285 480 295 493 12 16 13 16 91 -8z
m165 -73 c30 -18 58 -39 64 -47 7 -12 -47 -111 -225 -410 -362 -608 -462 -782
-639 -1100 -89 -162 -164 -296 -165 -298 -1 -2 -18 13 -37 34 -27 30 -44 39
-80 43 l-45 6 55 95 c60 102 91 154 430 725 121 204 235 397 253 430 18 33 63
112 100 175 37 63 99 175 139 248 40 72 78 132 84 132 7 -1 36 -15 66 -33z
m561 -885 c0 -482 3 -1011 7 -1174 3 -164 3 -298 -1 -298 -4 0 -223 212 -487
472 l-479 472 37 65 c20 36 83 149 141 251 57 102 154 273 215 380 60 107 164
289 230 404 66 116 130 231 144 257 l24 48 84 0 85 0 0 -877z m-950 863 c0 -3
-67 -116 -148 -253 -165 -273 -343 -575 -361 -609 -6 -13 -16 -23 -22 -23 -6
0 -168 156 -362 348 -194 191 -393 388 -444 437 l-92 90 137 5 c195 7 1292 12
1292 5z m-2003 -745 c5 -2159 9 -2508 24 -2526 13 -16 94 -17 1477 -11 l1462
5 0 -56 c0 -32 3 -148 7 -260 l6 -202 -834 0 c-459 0 -1363 -2 -2009 -5 -759
-3 -1203 -1 -1255 5 -168 21 -336 82 -461 167 -99 68 -203 186 -252 285 -67
138 -86 219 -86 378 0 119 3 146 28 225 71 235 248 447 463 554 54 27 186 71
212 71 21 0 21 -3 21 -332 0 -192 4 -339 10 -348 14 -23 234 -27 335 -6 152
31 272 115 324 225 37 80 37 199 -1 291 -25 62 -27 76 -33 303 -4 131 -4 627
0 1102 7 769 9 864 23 867 9 2 133 3 276 3 l261 0 2 -735z m2562 643 l60 -58
-85 -145 c-47 -80 -139 -239 -204 -355 -65 -115 -165 -293 -222 -395 -115
-204 -499 -873 -503 -878 -2 -2 -18 13 -37 33 -25 28 -44 38 -80 43 l-47 7 73
125 c40 69 117 199 171 290 134 225 323 553 540 935 252 443 258 455 267 455
4 0 34 -26 67 -57z m-1486 -1243 c42 -40 77 -80 77 -87 0 -13 -28 -67 -89
-172 -60 -102 -58 -95 -66 -417 -8 -318 -5 -344 36 -344 11 0 109 52 217 117
346 204 368 219 397 269 l27 45 61 -57 c34 -32 168 -162 297 -289 129 -127
262 -257 295 -288 l60 -57 -750 -1 c-412 0 -803 -2 -867 -3 l-118 -2 0 450 c0
459 -6 893 -15 1136 l-5 135 182 -181 c101 -99 218 -213 261 -254z m66 -380
c10 -5 26 -27 35 -49 l16 -40 64 6 c59 5 66 4 90 -20 14 -14 28 -38 32 -54 9
-34 23 -44 45 -32 52 27 129 -11 129 -64 0 -21 -24 -38 -162 -120 l-163 -96
-25 24 c-28 26 -105 64 -132 65 -17 0 -18 16 -18 188 0 104 3 192 7 195 10 10
62 8 82 -3z m-2006 -396 c129 -33 240 -114 279 -202 30 -66 29 -163 -1 -224
-68 -141 -213 -208 -453 -208 l-96 0 -1 316 c-1 174 -4 320 -6 325 -3 4 3 10
12 13 32 9 202 -3 266 -20z m4087 -789 c26 -31 -13 -82 -44 -56 -21 18 -20 48
2 60 23 14 28 13 42 -4z m-2810 -50 c26 -32 -13 -81 -47 -59 -35 22 -23 74 17
74 10 0 23 -7 30 -15z"/>
<path d="M5045 4790 c-3 -5 -3 -14 0 -20 3 -6 -1 -7 -10 -4 -11 5 -14 1 -12
-15 2 -11 7 -24 12 -28 4 -5 5 -3 2 3 -3 6 3 18 14 27 10 9 19 24 19 32 0 17
-16 20 -25 5z"/>
</g>
</svg>
