<?xml version="1.0" encoding="UTF-8"?>
<svg version="1.0" xmlns="http://www.w3.org/2000/svg"
 width="506.000000pt" height="532.000000pt" viewBox="0 0 506.000000 532.000000"
 preserveAspectRatio="xMidYMid meet">
  <g transform="translate(0.000000,532.000000) scale(0.100000,-0.100000)" fill="#1f2e49">
    <path d="M2036 5120 c-77 -31 -156 -120 -156 -178 0 -39 -16 -42 -238 -42
-214 0 -214 0 -248 -34 -19 -19 -34 -43 -34 -53 0 -42 -7 -43 -404 -43 -413 0
-435 -3 -493 -53 -79 -70 -73 127 -73 -2067 0 -1955 0 -1955 24 -2006 27 -58
72 -97 131 -113 29 -9 465 -11 1650 -9 1828 3 1655 -5 1720 87 30 43 30 43 33
269 2 125 7 231 12 236 5 5 115 -94 265 -240 141 -137 266 -254 278 -261 62
-34 109 -13 217 99 173 180 181 160 -182 499 -396 372 -372 352 -431 346 -52
-5 -105 24 -141 75 -27 38 -22 167 9 228 105 208 109 527 10 749 -26 57 -26
57 -28 1032 -2 974 -2 974 -29 1019 -25 43 -60 76 -103 96 -11 5 -200 11 -419
14 -341 4 -400 7 -406 20 -54 117 -48 115 -308 115 -217 0 -217 0 -234 54 -39
122 -118 174 -273 178 -81 3 -109 -1 -149 -17z m270 -48 c56 -29 100 -82 119
-144 8 -28 21 -55 28 -60 6 -4 108 -8 225 -8 283 0 272 9 272 -220 0 -237 98
-210 -769 -210 -396 0 -727 3 -736 6 -36 14 -45 57 -45 219 0 219 -18 205 268
205 244 0 231 -4 252 75 17 61 78 125 141 148 62 23 190 18 245 -11z m-955
-437 c4 -55 3 -95 -3 -102 -8 -10 -87 -13 -333 -13 -288 0 -324 -2 -336 -17
-21 -24 -21 -3662 0 -3686 19 -23 2991 -26 3010 -4 7 9 12 119 13 338 2 220 6
324 14 324 5 0 39 -26 74 -57 64 -57 64 -57 65 -115 0 -46 6 -67 28 -99 43
-63 38 -496 -5 -562 -56 -84 109 -77 -1704 -77 -1610 0 -1610 0 -1652 28 -23
15 -51 45 -63 68 -33 65 -31 3907 1 3975 21 43 53 70 99 85 14 4 197 7 406 6
l380 -2 6 -90z m2467 67 c18 -8 45 -31 60 -50 27 -35 27 -35 30 -944 2 -732 0
-909 -10 -906 -7 2 -53 45 -102 96 l-90 93 -4 752 c-3 485 -8 756 -14 764 -8
10 -94 13 -347 15 l-336 3 0 95 0 95 225 5 c332 7 548 1 588 -18z m-2432 -271
c42 -46 42 -46 773 -49 812 -3 782 -5 822 63 21 35 21 35 348 33 l326 -3 3
-713 c2 -797 8 -744 -71 -697 -375 219 -887 133 -1185 -199 -32 -36 -32 -36
-146 -36 -130 0 -146 -4 -146 -34 0 -37 19 -46 101 -46 92 0 97 -5 66 -67 -14
-26 -35 -77 -47 -113 -29 -81 -36 -90 -71 -90 -26 0 -59 -22 -59 -39 0 -13 33
-39 55 -43 19 -3 20 -10 17 -98 -5 -122 12 -243 49 -353 34 -105 34 -107 -36
-107 -73 0 -101 -25 -68 -62 13 -15 31 -18 99 -18 83 0 83 0 137 -72 30 -40
78 -95 106 -123 80 -77 78 -79 -113 -70 -170 7 -228 0 -240 -30 -16 -42 13
-46 294 -44 227 1 271 -1 291 -14 37 -24 154 -66 229 -82 225 -47 444 -16 653
93 44 22 71 32 78 25 6 -6 8 -124 7 -304 l-3 -294 -1474 0 -1474 0 1 1820 c0
1001 1 1820 1 1820 1 1 144 -1 319 -3 317 -4 317 -4 358 -51z m1959 -1336
c645 -176 868 -978 406 -1459 -374 -389 -1036 -344 -1347 91 -371 518 -93
1238 531 1377 90 20 322 15 410 -9z m600 -1506 c78 -73 78 -80 18 -141 -60
-61 -69 -60 -142 8 -73 67 -75 82 -18 144 55 62 64 61 142 -11z m298 -186 c56
-54 181 -170 277 -259 254 -233 265 -247 239 -297 -23 -43 -175 -187 -197
-187 -27 0 -78 46 -399 362 -294 287 -283 260 -154 389 57 57 97 89 111 89 13
0 59 -36 123 -97z"/>
    <path d="M2123 4995 c-79 -34 -69 -149 16 -185 39 -16 76 -6 112 30 81 80 -19
203 -128 155z m91 -46 c49 -39 23 -109 -42 -109 -28 0 -72 42 -72 69 0 22 44
61 70 61 10 0 29 -9 44 -21z"/>
    <path d="M2068 4543 c-261 -3 -319 -9 -272 -27 26 -10 1032 -7 1039 3 3 5 1
13 -5 16 -14 9 -397 13 -762 8z"/>
    <path d="M506 4534 c-8 -20 -8 -422 0 -451 17 -61 24 10 24 228 0 216 -6 270
-24 223z"/>
    <path d="M500 3770 c0 -64 3 -80 15 -80 12 0 15 16 15 80 0 64 -3 80 -15 80
-12 0 -15 -16 -15 -80z"/>
    <path d="M506 1497 c-8 -29 -8 -225 0 -254 14 -53 24 -2 24 127 0 129 -10 180
-24 127z"/>
    <path d="M504 885 c-15 -38 16 -146 50 -174 20 -16 20 -14 1 39 -8 23 -15 60
-15 80 0 61 -22 94 -36 55z"/>
    <path d="M1736 3916 c-51 -54 -51 -54 -297 -59 -135 -4 -253 -9 -261 -12 -27
-11 -30 -31 -35 -251 -6 -225 0 -274 39 -295 27 -14 447 -13 501 2 54 14 58
33 56 261 -1 197 -1 197 38 260 47 75 55 95 48 118 -12 39 -37 32 -89 -24z
m-110 -120 c8 -20 -143 -236 -164 -236 -9 0 -32 23 -51 51 -73 107 -162 79
-94 -29 16 -26 47 -75 69 -110 65 -104 85 -97 201 70 43 62 83 111 88 108 13
-6 6 -281 -7 -295 -16 -17 -442 -19 -456 -2 -9 11 -12 73 -10 228 l3 214 70 6
c156 12 345 10 351 -5z"/>
    <path d="M2285 3813 c-175 -4 -210 -16 -169 -58 29 -28 1170 -13 1199 16 13
13 14 18 3 26 -13 11 -764 22 -1033 16z"/>
    <path d="M2116 3445 c-19 -19 -11 -42 17 -51 25 -8 1096 6 1152 15 59 9 53 34
-10 43 -116 15 -1143 9 -1159 -7z"/>
    <path d="M1747 2943 c-70 -80 -41 -73 -301 -73 -129 0 -246 -4 -260 -10 -36
-13 -39 -35 -40 -280 -1 -247 3 -263 71 -276 42 -8 460 2 485 11 32 12 38 53
38 256 0 200 0 200 45 277 50 85 52 94 29 116 -23 23 -32 20 -67 -21z m-121
-137 c7 -17 -142 -236 -161 -236 -7 0 -29 22 -49 50 -58 81 -108 99 -122 44
-5 -18 10 -49 63 -131 103 -160 105 -160 246 42 35 50 67 88 72 85 12 -6 7
-281 -5 -294 -14 -14 -437 -11 -455 4 -16 13 -24 428 -8 443 14 15 413 8 419
-7z"/>
    <path d="M1730 1940 c-48 -50 -48 -50 -294 -50 -227 0 -247 -1 -265 -19 -16
-16 -19 -42 -26 -227 -12 -341 -23 -329 309 -319 121 3 230 8 242 10 38 8 44
45 44 255 0 199 0 199 40 262 47 72 57 103 40 123 -21 25 -39 17 -90 -35z
m-104 -114 c6 -17 -143 -236 -161 -236 -6 0 -29 25 -50 55 -42 62 -66 79 -95
70 -34 -11 -34 -43 1 -98 17 -29 48 -78 67 -110 61 -102 88 -93 200 68 42 61
82 108 87 105 16 -8 8 -271 -8 -288 -19 -18 -430 -20 -452 -2 -16 13 -23 428
-8 443 14 15 413 8 419 -7z"/>
    <path d="M2931 2940 c-714 -187 -711 -1207 4 -1390 703 -180 1199 688 685
1200 -185 186 -438 255 -689 190z m353 -50 c330 -84 547 -412 491 -743 -74
-444 -542 -690 -953 -502 -66 30 -152 92 -152 109 0 15 150 26 356 26 183 0
284 10 291 28 11 28 -28 32 -372 32 -404 0 -374 -7 -428 102 -76 156 -100 412
-42 454 9 7 154 13 422 18 410 7 453 11 421 42 -10 9 -116 14 -413 21 -461 9
-431 0 -363 113 92 154 115 166 348 173 113 4 251 7 306 7 100 0 137 12 120
38 -3 5 -110 12 -238 16 -286 9 -308 19 -137 65 100 27 241 27 343 1z"/>
    <path d="M3260 2728 c0 -7 33 -28 73 -47 94 -44 182 -131 226 -223 35 -75 69
-95 57 -35 -20 103 -125 230 -236 285 -65 33 -120 42 -120 20z"/>
    <path d="M4058 1224 c-11 -10 3 -34 19 -34 8 0 13 7 11 17 -3 18 -20 27 -30
17z"/>
    <path d="M4190 1096 c0 -13 272 -279 319 -313 53 -36 40 -1 -19 55 -36 33
-114 108 -175 166 -111 107 -125 117 -125 92z"/>
  </g>
  <g transform="translate(0.000000,532.000000) scale(0.100000,-0.100000)" fill="#2f435a">
    <path d="M2108 5140 c-114 -18 -197 -83 -224 -177 -8 -29 -21 -56 -27 -60 -6
-4 -104 -6 -218 -5 -235 3 -243 0 -280 -85 -18 -43 -18 -43 -411 -43 -434 0
-439 -1 -500 -66 -62 -67 -58 85 -58 -2050 0 -1511 3 -1956 12 -1988 16 -52
84 -121 135 -136 27 -8 490 -10 1660 -8 1621 3 1621 3 1664 33 85 59 95 97 91
337 -3 187 -2 209 13 214 12 5 59 -34 173 -147 366 -360 365 -359 411 -359 61
0 86 17 184 125 157 172 168 147 -215 506 -366 344 -349 331 -413 327 -56 -3
-132 44 -139 86 -22 120 -24 161 -12 176 48 54 96 231 103 377 7 141 -8 238
-56 363 -36 95 -36 95 -41 1075 -6 1108 1 1030 -98 1100 -44 30 -44 30 -449
35 -405 5 -405 5 -426 49 -41 83 -48 86 -293 89 -211 3 -215 4 -223 25 -33 84
-49 113 -84 143 -66 56 -172 80 -279 64z m176 -61 c67 -25 118 -80 136 -147
21 -76 8 -72 252 -72 290 0 278 10 278 -220 0 -237 98 -210 -770 -210 -451 0
-728 4 -740 10 -31 16 -40 67 -40 216 0 212 -11 204 276 204 171 0 226 3 229
13 2 6 9 30 14 53 37 141 207 213 365 153z m-946 -364 c14 -5 18 -170 3 -179
-5 -3 -153 -9 -330 -13 -267 -5 -323 -9 -334 -21 -22 -27 -22 -3445 0 -3440
10 2 20 17 25 38 4 19 7 786 7 1703 0 918 2 1671 5 1674 3 3 146 5 318 4 313
-2 313 -2 348 -41 55 -62 29 -60 808 -60 787 0 749 -3 791 63 25 37 25 37 350
35 l326 -3 3 -709 c1 -442 -1 -713 -7 -719 -7 -7 -35 3 -79 26 -386 203 -838
131 -1147 -182 -59 -61 -59 -61 -176 -61 -94 0 -121 -3 -133 -16 -40 -39 -4
-64 94 -64 43 0 81 -4 84 -9 3 -5 -12 -46 -33 -92 -22 -46 -43 -97 -47 -114
-10 -42 -22 -55 -55 -55 -66 0 -77 -62 -13 -79 29 -7 29 -7 26 -122 -4 -129
14 -249 51 -350 31 -82 28 -89 -38 -89 -73 0 -101 -26 -68 -62 13 -15 31 -18
99 -18 83 0 83 0 128 -62 25 -35 72 -90 105 -123 34 -33 61 -64 61 -70 0 -7
-58 -9 -170 -6 -187 3 -214 0 -230 -28 -24 -47 0 -51 286 -51 251 0 267 -1
307 -21 263 -135 580 -128 870 18 37 18 72 31 77 28 13 -8 13 -592 0 -600 -5
-3 -258 -5 -562 -3 -716 3 -714 3 -1318 0 -1077 -6 -1059 -7 -1076 33 -17 42
-34 37 -34 -10 0 -71 -131 -65 1524 -65 1377 0 1495 1 1507 17 11 13 14 82 16
337 1 196 6 321 12 321 5 0 39 -28 75 -63 65 -63 65 -64 59 -107 -5 -37 -1
-49 26 -88 31 -46 31 -46 31 -274 0 -254 -5 -278 -69 -338 -32 -30 -32 -30
-1634 -35 -885 -3 -1618 -1 -1637 4 -51 12 -86 41 -110 90 -21 44 -21 44 -20
1986 1 2096 -3 1977 53 2028 50 46 72 49 464 44 203 -2 374 -5 381 -7z m2482
-17 c96 -49 90 14 90 -1005 0 -712 -3 -893 -13 -893 -7 0 -32 25 -56 55 -24
30 -63 71 -86 89 -42 35 -42 35 -48 797 -5 522 -10 766 -17 773 -8 7 -120 11
-338 11 -180 0 -333 4 -339 8 -14 9 -19 168 -6 180 3 4 178 7 388 7 375 0 381
0 425 -22z m-457 -1612 c486 -144 746 -653 581 -1138 -122 -358 -481 -595
-872 -575 -601 31 -990 631 -772 1194 158 412 636 645 1063 519z m578 -1497
c82 -73 83 -79 22 -141 -59 -60 -62 -60 -139 8 -76 66 -77 78 -21 143 54 63
55 63 138 -10z m384 -264 c93 -89 215 -202 270 -252 125 -113 175 -167 175
-193 0 -22 -162 -206 -189 -215 -39 -12 -36 -15 -458 397 -148 144 -203 204
-203 221 0 50 175 223 213 211 12 -4 98 -80 192 -169z"/>
    <path d="M2125 4994 c-97 -51 -61 -189 50 -189 112 0 145 138 45 190 -36 19
-57 18 -95 -1z m95 -46 c43 -46 7 -116 -54 -104 -61 12 -82 61 -41 101 30 31
68 32 95 3z"/>
    <path d="M2217 4536 c-51 -23 -14 -26 299 -26 305 0 363 6 299 30 -39 15 -563
12 -598 -4z"/>
    <path d="M505 4539 c-10 -42 -1 -524 10 -524 13 0 19 525 6 538 -6 6 -12 1
-16 -14z"/>
    <path d="M1735 3916 c-46 -53 -46 -53 -293 -59 -136 -3 -255 -8 -264 -12 -29
-11 -32 -34 -36 -268 -4 -256 -2 -268 63 -286 43 -12 423 -3 478 10 53 14 57
31 57 260 0 199 0 199 45 271 49 78 53 98 29 122 -23 24 -29 21 -79 -38z
m-109 -120 c7 -17 -144 -236 -163 -236 -7 0 -31 25 -53 55 -44 60 -81 78 -107
52 -22 -22 -13 -48 57 -157 95 -149 106 -148 220 20 45 66 85 118 91 115 18
-12 11 -271 -8 -286 -27 -23 -424 -26 -447 -4 -14 15 -16 42 -14 228 l3 212
95 6 c204 12 320 10 326 -5z"/>
    <path d="M506 3802 c-11 -67 -7 -112 9 -112 12 0 15 14 15 69 0 77 -14 102
-24 43z"/>
    <path d="M2190 3814 c-80 -10 -105 -29 -79 -60 22 -27 1179 -13 1206 14 39 40
15 42 -552 46 -297 3 -556 2 -575 0z"/>
    <path d="M2132 3463 c-24 -10 -33 -40 -16 -57 18 -19 236 -21 838 -9 361 7
402 12 366 46 -15 14 -1154 34 -1188 20z"/>
    <path d="M1744 2943 c-19 -20 -34 -40 -34 -45 0 -25 -53 -30 -280 -29 -315 2
-284 32 -284 -277 -1 -310 -18 -286 207 -290 89 -2 204 -1 256 3 137 10 131
-2 131 256 0 212 0 212 40 275 49 78 57 106 35 128 -24 23 -33 20 -71 -21z
m-118 -134 c8 -14 -143 -239 -161 -239 -8 0 -28 21 -46 47 -58 84 -82 99 -113
67 -26 -25 -19 -45 54 -157 99 -153 104 -152 234 35 40 57 76 101 81 98 10 -5
8 -276 -2 -292 -8 -14 -447 -10 -461 4 -13 13 -18 429 -5 441 11 12 411 8 419
-4z"/>
    <path d="M1732 1943 c-41 -47 -116 -73 -154 -52 -7 4 -98 4 -202 0 -244 -8
-224 14 -232 -261 -11 -327 -22 -316 310 -307 307 7 280 -18 286 258 5 214 5
214 48 283 44 73 50 94 30 114 -22 22 -46 12 -86 -35z m-106 -117 c6 -15 -142
-231 -159 -231 -6 0 -29 24 -52 53 -46 61 -67 76 -95 67 -46 -15 -39 -39 48
-178 85 -135 103 -132 222 39 42 60 80 107 85 104 13 -7 6 -271 -7 -287 -14
-18 -439 -18 -456 -1 -17 17 -17 419 0 436 18 18 407 17 414 -2z"/>
    <path d="M506 1554 c-9 -23 -6 -425 3 -448 14 -35 19 -3 26 165 9 214 -4 347
-29 283z"/>
    <path d="M503 884 c-8 -20 13 -42 27 -28 12 12 3 44 -11 44 -5 0 -12 -7 -16
-16z"/>
    <path d="M3030 2960 c-560 -67 -828 -706 -486 -1156 339 -446 1053 -333 1247
196 183 503 -229 1024 -761 960z m298 -83 c391 -137 567 -575 376 -937 -153
-291 -492 -428 -804 -324 -87 29 -230 115 -230 138 0 15 199 26 457 26 153 0
193 7 193 34 0 24 -25 26 -298 27 -444 2 -449 3 -488 74 -44 79 -72 164 -83
250 -9 74 2 212 18 228 5 5 195 13 422 19 414 10 457 14 427 44 -10 10 -106
15 -411 20 -316 6 -400 10 -404 20 -8 23 67 145 126 205 56 56 56 56 360 62
254 5 307 9 320 22 31 30 -1 36 -230 41 -251 5 -268 8 -224 32 108 58 337 67
473 19z"/>
    <path d="M3263 2734 c-7 -18 -12 -15 72 -54 91 -43 178 -130 223 -222 18 -39
39 -68 47 -68 45 0 -22 148 -105 231 -80 81 -223 149 -237 113z"/>
    <path d="M4190 1096 c0 -15 86 -96 101 -96 20 0 6 23 -38 65 -49 47 -63 54
-63 31z"/>
    <path d="M4350 942 c0 -19 161 -172 180 -172 24 0 2 30 -76 104 -75 70 -104
89 -104 68z"/>
  </g>
  <g transform="translate(0.000000,532.000000) scale(0.100000,-0.100000)" fill="#597589">

  </g>
  <g transform="translate(0.000000,532.000000) scale(0.100000,-0.100000)" fill="#77a8b7">
    <path d="M519 4698 c-19 -13 -44 -43 -56 -68 -23 -44 -23 -44 -23 -1977 0
-2103 -3 -1971 53 -2031 51 -55 -53 -52 1685 -52 1609 0 1609 0 1643 23 70 47
76 65 84 275 8 218 2 291 -31 348 -17 28 -24 56 -24 90 0 47 -3 53 -58 107
-32 31 -63 57 -70 57 -9 0 -12 -75 -12 -319 0 -266 -2 -322 -15 -334 -32 -33
-2989 -37 -3022 -4 -21 21 -20 3675 1 3696 13 12 70 16 343 20 l328 6 0 90 0
90 -396 3 c-396 2 -396 2 -430 -20z m9 -419 c-2 -174 -7 -274 -13 -274 -11 0
-20 528 -10 554 19 49 25 -28 23 -280z m0 -512 c2 -70 0 -87 -11 -87 -23 0
-38 121 -21 165 15 39 29 4 32 -78z m9 -2423 c3 -235 -3 -290 -27 -254 -11 17
-14 483 -3 494 23 23 28 -13 30 -240z m4 -500 c4 -41 16 -88 28 -112 16 -32
18 -42 8 -42 -37 0 -77 85 -77 163 0 98 32 90 41 -9z"/>
    <path d="M3004 4707 c-3 -8 -4 -49 -2 -93 l3 -79 336 -3 c298 -2 338 -4 350
-19 12 -13 15 -152 17 -767 l4 -752 92 -97 c51 -53 96 -94 100 -90 10 10 7
1741 -4 1787 -11 48 -63 103 -110 116 -58 16 -779 13 -786 -3z"/>
    <path d="M3020 3114 c-120 -21 -153 -30 -219 -56 -259 -102 -437 -294 -527
-568 -38 -116 -41 -339 -6 -465 109 -397 448 -652 862 -649 397 3 729 257 832
636 31 111 33 356 4 458 -88 315 -334 552 -647 625 -72 16 -249 28 -299 19z
m245 -163 c524 -109 750 -734 416 -1151 -362 -454 -1073 -326 -1258 225 -40
119 -40 323 1 440 125 362 472 563 841 486z"/>
    <path d="M4014 1408 c-87 -84 -100 -104 -89 -137 3 -11 140 -151 305 -310 356
-347 321 -331 442 -205 96 99 102 108 94 137 -5 19 -420 417 -573 550 -73 63
-81 61 -179 -35z m364 -459 c157 -150 195 -196 159 -187 -24 5 -357 317 -357
333 0 35 41 5 198 -146z"/>
  </g>
  <g transform="translate(0.000000,532.000000) scale(0.100000,-0.100000)" fill="#7cb3c2">
    <path d="M535 4706 c-39 -17 -64 -46 -81 -93 -17 -49 -21 -3853 -4 -3915 14
-48 55 -97 97 -114 27 -12 303 -14 1628 -14 1763 0 1637 -5 1691 66 29 37 29
37 32 288 3 246 3 250 -20 280 -15 22 -23 49 -26 91 -4 57 -6 62 -60 118 -31
31 -62 57 -69 57 -10 0 -13 -66 -13 -319 0 -266 -2 -322 -15 -334 -23 -24
-487 -30 -1808 -25 -1092 5 -1200 7 -1215 22 -26 26 -26 3667 1 3693 16 16 49
18 345 23 l327 5 0 90 0 90 -390 2 c-307 2 -396 -1 -420 -11z m-4 -153 c12
-55 -3 -553 -17 -553 -15 0 -22 549 -7 563 11 12 21 8 24 -10z m-1 -784 c0
-69 -3 -89 -14 -89 -26 0 -39 153 -14 178 21 21 28 1 28 -89z m7 -2430 c3
-240 -3 -295 -27 -259 -11 17 -14 493 -3 504 24 23 28 -14 30 -245z m5 -498
c5 -45 16 -88 30 -112 23 -42 21 -54 -7 -43 -54 21 -95 249 -41 231 6 -2 14
-36 18 -76z"/>
    <path d="M3011 4706 c-8 -9 -11 -43 -9 -93 l3 -78 336 -3 c298 -2 338 -4 350
-19 12 -13 15 -154 19 -768 l5 -752 88 -93 c48 -51 91 -90 95 -86 14 15 2
1786 -12 1815 -19 36 -55 66 -95 80 -54 18 -765 15 -780 -3z"/>
    <path d="M2999 3111 c-499 -71 -841 -548 -740 -1036 118 -572 730 -866 1256
-606 519 257 637 954 235 1385 -172 184 -491 294 -751 257z m258 -157 c472
-97 719 -605 503 -1034 -274 -543 -1059 -523 -1310 34 -183 405 70 909 500
995 30 6 64 13 75 15 49 9 162 5 232 -10z"/>
    <path d="M4014 1408 c-86 -84 -100 -104 -89 -137 12 -39 602 -601 631 -601 31
0 201 158 210 196 9 34 3 40 -197 226 -395 369 -428 398 -450 398 -13 0 -53
-30 -105 -82z m367 -460 c157 -152 188 -188 157 -188 -19 0 -352 313 -356 333
-8 42 41 6 199 -145z"/>
  </g>
  <g transform="translate(0.000000,532.000000) scale(0.100000,-0.100000)" fill="#85b7c5">
    <path d="M533 4704 c-41 -21 -62 -44 -79 -91 -17 -49 -21 -3853 -4 -3915 14
-48 55 -97 97 -114 27 -12 303 -14 1628 -14 1763 0 1637 -5 1691 66 44 57 51
513 9 573 -19 29 -25 49 -25 91 0 54 -1 55 -61 112 -33 32 -65 58 -70 58 -5 0
-9 -131 -9 -324 0 -289 -2 -325 -17 -337 -29 -24 -2996 -20 -3020 4 -28 28
-28 3666 0 3694 16 16 48 18 345 23 l327 5 0 90 0 90 -390 2 c-338 2 -394 1
-422 -13z m3 -150 c13 -51 -7 -554 -22 -554 -15 0 -22 528 -8 564 9 24 23 19
30 -10z m-5 -711 c13 -35 1 -163 -16 -163 -25 0 -37 154 -13 178 16 16 17 16
29 -15z m4 -2514 c0 -219 -2 -254 -15 -254 -13 0 -15 35 -18 245 -2 252 -1
275 21 267 9 -3 12 -63 12 -258z m7 -482 c3 -37 16 -88 28 -113 24 -49 22 -61
-8 -45 -29 15 -55 78 -60 143 -8 110 29 124 40 15z"/>
    <path d="M3012 4703 c-4 -10 -8 -52 -7 -93 l0 -75 336 -3 c298 -2 338 -4 350
-19 12 -13 15 -154 19 -768 l5 -752 87 -92 c62 -66 89 -88 95 -79 15 23 3
1779 -12 1808 -45 86 -67 90 -496 90 -341 0 -369 -1 -377 -17z"/>
    <path d="M2995 3110 c-699 -110 -1001 -950 -522 -1457 565 -599 1557 -176
1514 645 -26 505 -495 889 -992 812z m310 -165 c536 -144 712 -810 320 -1210
-336 -342 -930 -255 -1152 170 -224 429 17 943 492 1049 86 19 252 15 340 -9z"/>
    <path d="M4008 1402 c-62 -62 -88 -95 -88 -113 0 -26 546 -573 604 -605 43
-24 64 -12 159 84 104 106 106 118 40 180 -412 387 -586 542 -605 542 -14 0
-53 -31 -110 -88z m367 -449 c96 -92 175 -173 175 -180 0 -23 -22 -14 -69 29
-257 232 -336 318 -291 318 6 0 89 -75 185 -167z"/>
  </g>
  <g transform="translate(0.000000,532.000000) scale(0.100000,-0.100000)" fill="#b6d7dd">
    <path d="M2113 5090 c-108 -23 -193 -106 -193 -189 0 -48 -17 -51 -246 -51
-229 0 -246 -3 -261 -47 -17 -50 -1 -329 20 -350 23 -23 1434 -28 1474 -5 29
16 30 26 37 199 9 203 9 203 -197 204 -295 1 -319 7 -331 81 -17 106 -169 186
-303 158z m137 -107 c77 -69 30 -183 -75 -183 -87 0 -141 86 -101 159 32 57
125 70 176 24z m596 -444 c13 -22 -14 -29 -136 -34 -195 -9 -1205 8 -1205 20
0 21 1328 35 1341 14z"/>
    <path d="M715 4468 c-3 -7 -4 -825 -3 -1817 l3 -1804 1470 2 1470 2 -1 284 c0
177 -4 289 -10 295 -7 7 -42 -5 -107 -35 -264 -126 -557 -129 -813 -10 -79 36
-79 36 -334 29 -271 -7 -290 -4 -290 41 0 40 25 45 216 45 101 0 184 3 184 6
0 4 -29 37 -64 74 -35 37 -78 90 -97 116 -43 64 -42 64 -131 64 -56 0 -81 4
-92 16 -38 37 -5 74 64 74 62 0 66 8 40 77 -37 100 -52 192 -54 332 -1 134 -1
134 -28 143 -57 19 -44 75 19 80 34 3 36 5 63 78 15 41 37 95 49 118 33 64 25
72 -63 72 -76 0 -106 13 -106 45 0 33 42 45 158 45 113 0 113 0 150 41 275
308 745 396 1131 213 52 -24 98 -41 103 -36 4 4 7 325 6 713 l-3 704 -319 1
c-319 0 -319 0 -339 -33 -38 -66 0 -63 -818 -63 -815 0 -745 -7 -817 84 -17
21 -629 25 -637 4z m1099 -504 c30 -12 19 -66 -29 -140 -45 -69 -45 -69 -45
-281 0 -271 17 -248 -201 -258 -232 -10 -354 -5 -376 17 -25 26 -32 109 -25
323 7 257 -20 235 293 235 242 0 242 0 294 55 54 56 61 60 89 49z m1507 -160
c44 -54 -1 -58 -717 -68 -428 -7 -473 -6 -488 9 -20 21 -20 39 0 59 24 24
1185 24 1205 0z m-8 -349 c22 -9 22 -41 0 -49 -15 -6 -827 -25 -1085 -26 -120
0 -160 27 -111 76 16 16 56 17 598 11 319 -3 588 -9 598 -12z m-1487 -501 c7
-29 -9 -69 -57 -145 -29 -46 -29 -46 -27 -252 4 -272 25 -250 -245 -259 -376
-14 -357 -28 -357 275 0 228 7 279 38 292 9 4 121 9 247 12 278 5 266 3 306
58 39 55 84 64 95 19z m-1 -974 c21 -24 17 -35 -46 -142 -40 -67 -40 -67 -37
-267 4 -266 26 -244 -254 -252 -370 -9 -348 -27 -348 270 0 223 8 284 38 296
9 5 129 10 267 13 249 4 249 4 269 31 58 74 81 85 111 51z"/>
    <path d="M1210 3786 c-15 -15 -14 -408 2 -424 17 -17 431 -17 446 1 15 17 28
277 14 277 -6 0 -41 -44 -77 -97 -133 -193 -137 -193 -254 -11 -66 102 -71
127 -29 149 30 16 59 -1 98 -60 19 -28 43 -51 52 -51 18 0 158 193 158 218 0
17 -393 15 -410 -2z"/>
    <path d="M1335 2813 c-153 -5 -139 19 -131 -220 4 -127 10 -211 17 -220 14
-16 392 -19 434 -3 26 10 26 10 23 132 -4 154 -8 155 -103 25 -110 -154 -122
-154 -219 -2 -80 125 -84 135 -56 160 31 28 66 11 118 -58 52 -68 45 -71 136
62 97 143 112 135 -219 124z"/>
    <path d="M1300 1831 l-95 -6 3 -209 c1 -134 6 -214 13 -223 12 -14 362 -18
424 -4 30 6 30 6 33 116 3 170 -13 175 -109 35 -99 -146 -117 -145 -214 10
-69 112 -80 151 -45 170 33 18 57 3 102 -61 23 -32 47 -59 53 -59 17 0 168
218 160 230 -6 10 -154 11 -325 1z"/>
    <path d="M3050 2904 c-125 -21 -214 -49 -204 -65 3 -5 106 -9 229 -9 249 0
273 -6 241 -55 -15 -23 -14 -24 50 -54 73 -34 173 -123 210 -187 39 -67 58
-132 44 -149 -17 -21 -26 -12 -63 63 -54 112 -150 202 -257 243 -31 12 -46 24
-50 40 -7 29 -118 35 -399 24 -165 -7 -165 -7 -216 -55 -56 -54 -125 -162
-125 -197 0 -23 0 -23 384 -23 385 0 436 -4 436 -35 0 -28 -43 -32 -445 -39
-314 -6 -403 -10 -414 -21 -45 -44 -19 -290 46 -427 54 -116 22 -108 430 -108
306 0 354 -2 367 -16 47 -47 17 -52 -322 -60 -343 -8 -345 -8 -269 -64 256
-189 633 -158 859 72 404 409 143 1089 -431 1122 -42 3 -87 3 -101 0z"/>
    <path d="M3803 1590 c-52 -57 -52 -53 0 -104 86 -85 91 -86 148 -30 61 60 61
59 -10 127 -71 68 -84 69 -138 7z"/>
  </g>
</svg>
