<?xml version="1.0" standalone="no"?>
<!DOCTYPE svg PUBLIC "-//W3C//DTD SVG 20010904//EN"
 "http://www.w3.org/TR/2001/REC-SVG-20010904/DTD/svg10.dtd">
<svg version="1.0" xmlns="http://www.w3.org/2000/svg"
 width="506.000000pt" height="532.000000pt" viewBox="0 0 506.000000 532.000000"
 preserveAspectRatio="xMidYMid meet">
<metadata>
Created by potrace 1.16, written by Peter Selinger 2001-2019
</metadata>
<g transform="translate(0.000000,532.000000) scale(0.100000,-0.100000)"
fill="currentColor" stroke="none">
<path d="M2066 5135 c-95 -27 -165 -95 -189 -182 l-11 -43 -203 0 c-222 0
-255 -6 -286 -54 -10 -14 -20 -39 -23 -56 l-6 -29 -413 -3 -413 -3 -43 -30
c-26 -18 -53 -50 -68 -80 l-26 -49 3 -1960 c4 -2140 -1 -1995 60 -2059 15 -16
45 -39 67 -50 l40 -22 1590 -3 c1131 -2 1605 0 1641 8 61 13 122 61 150 117
16 33 20 69 24 261 l5 223 249 -243 c137 -134 262 -251 278 -262 31 -20 95
-24 125 -7 32 17 192 189 209 225 24 48 12 97 -34 144 -145 147 -617 575 -642
582 -17 5 -43 5 -60 0 -27 -8 -36 -4 -80 33 l-49 42 0 93 c-1 80 2 99 24 142
55 109 70 190 70 380 -1 165 -3 180 -29 260 -16 47 -37 102 -47 122 -18 36
-19 77 -19 1003 0 1057 3 1004 -58 1068 -15 16 -45 38 -67 50 -39 21 -52 21
-434 22 l-394 0 -11 30 c-37 101 -47 105 -309 105 l-213 0 -13 52 c-17 66 -74
128 -143 158 -65 28 -183 35 -252 15z m241 -70 c60 -30 113 -97 113 -145 0
-58 5 -59 240 -61 236 -1 258 -6 280 -59 13 -32 10 -297 -4 -331 -16 -38 -38
-39 -767 -39 l-710 0 -23 23 c-21 21 -23 35 -30 175 -7 161 0 198 43 221 10 6
110 10 233 9 119 0 221 3 227 6 6 4 11 21 11 37 0 16 9 47 20 68 61 120 228
163 367 96z m-957 -439 l0 -95 -335 -3 c-257 -2 -337 -6 -347 -16 -19 -19 -19
-3685 0 -3704 11 -11 284 -14 1430 -16 779 -1 1460 1 1512 5 l95 8 5 337 5
338 71 -68 c65 -61 71 -69 64 -95 -10 -34 3 -86 30 -115 19 -20 20 -35 20
-262 0 -269 -5 -294 -72 -342 l-33 -23 -1608 -3 c-1587 -2 -1608 -2 -1646 18
-46 23 -75 60 -90 116 -8 28 -10 602 -8 1965 l2 1924 21 40 c12 24 37 49 60
62 39 22 44 23 432 23 l392 0 0 -94z m2470 68 c19 -11 45 -35 57 -54 l23 -33
0 -909 0 -910 -39 49 c-21 26 -64 73 -95 103 l-56 54 -1 721 c0 396 -4 740 -7
765 l-7 45 -349 3 -348 2 6 23 c3 12 6 55 6 95 l0 73 388 -3 c370 -3 389 -4
422 -24z m-2460 -229 c0 -8 13 -29 29 -47 l29 -33 746 -3 c827 -3 788 -6 820
63 l17 35 324 0 c178 0 326 -4 329 -8 3 -5 2 -331 -1 -724 l-6 -716 -37 24
c-52 35 -182 88 -270 110 -116 29 -357 27 -465 -5 -176 -51 -326 -140 -445
-263 l-66 -67 -123 -3 c-105 -3 -126 -6 -135 -20 -8 -13 -8 -23 0 -35 9 -15
28 -19 103 -21 68 -2 91 -6 88 -15 -3 -7 -23 -52 -45 -102 -22 -49 -43 -104
-46 -122 -7 -29 -11 -32 -48 -35 -70 -5 -80 -69 -12 -76 l29 -3 -3 -129 c-4
-143 13 -252 54 -354 13 -33 24 -61 24 -63 0 -2 -25 -3 -56 -3 -66 0 -94 -13
-94 -43 0 -39 18 -47 112 -47 l87 0 42 -62 c23 -35 73 -93 111 -131 l70 -67
-192 0 c-113 0 -199 -4 -211 -10 -27 -15 -25 -58 4 -69 12 -5 136 -6 275 -3
l253 5 47 -25 c58 -31 186 -73 266 -87 85 -15 253 -13 333 3 98 21 156 41 259
92 49 24 93 44 97 44 4 0 7 -136 7 -302 l0 -303 -1475 0 -1475 0 0 1818 0
1817 325 0 c281 0 325 -2 325 -15z m1970 -1376 c115 -26 268 -103 356 -177
124 -105 231 -276 275 -437 32 -118 32 -336 0 -455 -43 -162 -118 -286 -243
-406 -263 -250 -642 -310 -975 -154 -261 122 -423 331 -483 620 -68 328 79
695 350 875 227 151 461 194 720 134z m612 -1507 c69 -67 70 -69 55 -93 -9
-13 -35 -40 -59 -60 l-43 -36 -73 68 -73 69 52 60 c30 33 57 60 62 60 5 0 41
-31 79 -68z m282 -170 c45 -42 137 -129 206 -192 338 -311 340 -314 340 -342
0 -10 -40 -61 -91 -113 -108 -112 -120 -115 -188 -53 -172 157 -561 549 -567
572 -5 23 4 37 82 116 64 66 94 90 113 90 17 0 48 -23 105 -78z"/>
<path d="M2093 4975 c-32 -32 -35 -39 -30 -78 4 -30 15 -50 38 -71 28 -25 38
-28 81 -24 53 6 80 24 98 69 16 37 6 75 -30 110 -23 24 -37 29 -75 29 -40 0
-52 -5 -82 -35z m129 -32 c22 -20 23 -56 2 -77 -18 -18 -66 -21 -95 -6 -25 14
-26 75 -1 89 26 16 73 13 94 -6z"/>
<path d="M1741 4540 c-183 -4 -245 -8 -249 -17 -3 -10 137 -13 677 -13 670 0
725 2 680 31 -14 9 -678 9 -1108 -1z"/>
<path d="M503 4578 c-4 -7 -7 -141 -5 -298 3 -252 8 -317 27 -299 2 3 6 140 7
304 2 219 0 299 -9 302 -6 2 -15 -2 -20 -9z"/>
<path d="M501 3866 c-17 -20 -11 -180 6 -197 22 -22 28 0 28 96 0 98 -11 129
-34 101z"/>
<path d="M512 1598 c-9 -9 -12 -81 -12 -267 0 -237 6 -298 27 -277 11 10 16
522 6 541 -7 12 -12 12 -21 3z"/>
<path d="M507 924 c-4 -4 -7 -37 -7 -73 0 -69 23 -133 60 -166 35 -32 44 -4
15 47 -17 30 -28 70 -33 118 -6 68 -18 91 -35 74z"/>
<path d="M1728 3915 l-43 -55 -231 0 c-276 0 -289 -2 -303 -43 -14 -38 -15
-472 -1 -497 22 -41 82 -46 385 -33 220 9 205 -10 205 261 l0 209 45 69 c60
93 60 144 0 144 -8 0 -33 -25 -57 -55z m-95 -127 c-5 -7 -43 -60 -83 -118 -41
-58 -77 -109 -80 -113 -4 -4 -26 17 -49 48 -65 86 -106 102 -132 54 -11 -22 4
-55 83 -174 43 -64 59 -81 81 -83 16 -2 35 2 44 10 9 7 52 67 97 133 93 138
89 141 84 -58 l-3 -132 -117 -5 c-65 -3 -171 -3 -235 0 l-118 5 -3 223 -2 222
221 0 c176 0 219 -3 212 -12z"/>
<path d="M2118 3809 c-24 -14 -23 -56 2 -69 15 -8 186 -8 607 0 322 6 590 13
594 16 5 3 9 16 9 28 0 21 -6 24 -61 30 -105 10 -1132 7 -1151 -5z"/>
<path d="M2118 3460 c-25 -15 -23 -57 2 -70 15 -8 183 -8 608 0 493 9 589 13
602 25 13 13 13 17 0 30 -13 12 -105 15 -605 20 -424 5 -595 3 -607 -5z"/>
<path d="M1729 2931 l-44 -50 -245 -4 c-153 -3 -254 -8 -267 -15 -13 -7 -23
-25 -27 -49 -10 -61 -7 -439 4 -468 5 -14 22 -30 37 -36 30 -12 431 -14 491
-3 60 11 65 30 63 257 l-1 202 45 75 c54 88 58 133 14 138 -21 2 -35 -7 -70
-47z m-89 -115 c0 -12 -172 -250 -178 -247 -4 3 -27 32 -52 65 -29 39 -54 62
-69 64 -28 4 -64 -26 -58 -49 10 -39 143 -230 164 -235 36 -10 57 10 147 143
l87 127 -3 -159 -3 -160 -224 -3 c-139 -1 -228 1 -235 8 -5 5 -11 102 -14 224
l-5 215 64 4 c101 5 379 7 379 3z"/>
<path d="M1773 1992 c-6 -4 -26 -26 -45 -49 l-33 -43 -250 -4 c-138 -2 -258
-7 -268 -11 -28 -12 -32 -48 -32 -292 0 -210 2 -234 18 -250 16 -16 42 -18
230 -21 234 -4 309 2 332 24 12 13 15 52 15 227 l0 212 36 54 c31 46 64 110
64 125 0 2 -7 12 -16 20 -17 17 -32 20 -51 8z m-133 -157 c0 -8 -160 -234
-169 -240 -5 -2 -31 24 -57 60 -55 72 -64 78 -99 65 -42 -16 -32 -54 43 -173
37 -59 75 -110 85 -113 36 -11 60 11 147 138 l90 131 0 -155 0 -155 -31 -7
c-58 -11 -427 -7 -435 5 -4 7 -9 108 -12 225 l-5 213 64 4 c111 6 379 7 379 2z"/>
<path d="M2963 2955 c-215 -49 -410 -198 -497 -380 -62 -128 -71 -170 -71
-330 0 -143 2 -154 31 -236 99 -278 352 -469 644 -486 408 -23 747 282 767
692 7 134 -14 232 -78 364 -35 71 -58 101 -133 176 -99 98 -176 146 -301 185
-90 28 -271 36 -362 15z m327 -70 c123 -32 266 -123 340 -217 89 -112 150
-278 150 -408 0 -309 -204 -576 -500 -656 -192 -51 -445 4 -583 126 l-42 37
320 7 c176 4 328 10 338 12 26 8 21 43 -9 54 -15 6 -173 10 -378 10 l-352 0
-32 53 c-17 29 -44 86 -58 127 -24 67 -27 90 -28 212 -1 79 3 141 9 147 6 5
159 12 365 15 195 4 388 9 428 12 67 5 72 7 72 28 0 22 -5 23 -82 29 -46 4
-233 7 -415 7 -280 0 -333 2 -333 14 0 30 81 153 137 208 l58 57 307 3 c323 3
346 7 322 46 -10 15 -39 18 -265 22 -252 5 -253 5 -214 22 36 16 116 38 185
52 45 9 195 -2 260 -19z"/>
<path d="M3248 2744 c-16 -16 -6 -25 75 -63 112 -53 181 -122 233 -230 38 -79
56 -96 68 -65 8 21 -26 114 -62 166 -45 65 -126 136 -187 164 -60 28 -116 40
-127 28z"/>
<path d="M4043 1234 c-5 -15 32 -64 49 -64 20 0 19 33 -2 56 -27 28 -38 30
-47 8z"/>
<path d="M4173 1115 c-4 -12 13 -35 53 -76 89 -91 303 -284 319 -287 38 -9 20
25 -45 86 -40 37 -121 113 -179 170 -121 118 -138 131 -148 107z"/>
</g>
</svg>
