<?xml version="1.0" encoding="UTF-8"?>
<svg version="1.0" xmlns="http://www.w3.org/2000/svg"
 width="661.000000pt" height="631.000000pt" viewBox="0 0 661.000000 631.000000"
 preserveAspectRatio="xMidYMid meet">
  <g transform="translate(0.000000,631.000000) scale(0.100000,-0.100000)" fill="#1d2d4a">
    <path d="M3225 6018 c-198 -68 -790 -325 -1250 -543 -66 -31 -187 -88 -270
-127 -227 -106 -543 -269 -571 -295 -20 -19 -23 -26 -14 -43 23 -43 200 -143
453 -255 59 -26 104 -52 100 -56 -4 -4 -156 -9 -338 -11 -330 -3 -330 -3 -390
-32 -111 -55 -184 -157 -204 -286 -7 -42 -11 -601 -11 -1570 l0 -1505 -96 0
c-124 0 -124 1 -124 -158 0 -239 85 -408 247 -494 125 -67 -71 -62 2528 -65
2360 -3 2360 -3 2419 20 243 92 362 293 340 570 -9 114 -17 122 -128 122 -47
0 -87 4 -91 9 -3 6 -5 689 -5 1519 0 1091 -3 1525 -11 1563 -26 121 -96 210
-207 262 -67 32 -67 32 -407 35 -193 2 -344 7 -349 12 -6 6 76 52 217 120 267
130 322 162 342 201 52 100 15 124 -598 408 -550 255 -1158 514 -1370 585 -80
27 -159 32 -212 14z m236 -122 c220 -91 532 -230 1124 -501 105 -47 270 -122
368 -166 213 -95 349 -167 344 -183 -4 -13 -48 -36 -234 -121 -78 -35 -180
-82 -226 -104 -124 -57 -121 -57 -145 -17 -25 42 -77 70 -223 121 -204 71
-651 192 -899 242 -59 12 -83 23 -110 49 -124 116 -360 56 -360 -92 0 -115
133 -186 279 -149 66 17 66 17 156 -18 50 -19 133 -46 185 -61 52 -15 176 -52
275 -81 99 -30 225 -66 280 -80 264 -70 263 -63 10 -183 -832 -394 -932 -435
-1011 -414 -41 11 -356 144 -599 252 -71 32 -179 79 -240 105 -232 100 -333
144 -430 190 -55 26 -194 88 -310 137 -115 50 -254 110 -308 133 -93 40 -126
60 -116 68 10 10 124 64 224 107 61 26 297 135 525 243 228 107 505 236 615
287 110 50 281 129 380 175 168 78 271 123 286 124 4 1 76 -28 160 -63z m-89
-717 c25 -13 40 -46 33 -70 -23 -72 -215 -54 -215 19 0 61 107 90 182 51z
m543 -165 c403 -111 622 -177 676 -205 61 -31 62 -37 63 -634 1 -530 1 -530
-37 -533 -24 -2 -39 1 -42 10 -2 7 -8 243 -14 523 -5 281 -13 518 -16 527 -7
19 -69 46 -170 76 -38 12 -115 34 -170 51 -186 56 -489 142 -605 172 -135 36
-133 35 -117 79 15 44 24 50 56 39 14 -4 184 -51 376 -105z m-1925 -449 c30
-16 30 -16 30 -114 0 -67 -4 -102 -12 -109 -8 -6 -178 -14 -438 -19 -432 -10
-453 -12 -465 -41 -13 -30 -28 -1724 -20 -2216 7 -433 9 -480 25 -496 28 -28
181 -30 2269 -30 1916 1 2054 3 2072 31 18 29 3 2667 -15 2711 -12 28 -30 29
-369 35 -242 5 -330 9 -337 18 -6 8 -10 57 -8 121 l3 109 375 3 c472 3 506 -6
578 -142 27 -51 27 -51 27 -1581 0 -981 -3 -1535 -10 -1544 -11 -15 -4819 -14
-4841 1 -8 6 -10 422 -7 1541 5 1532 5 1532 29 1584 29 61 89 116 148 137 63
22 924 23 966 1z m297 -139 c81 -36 227 -99 323 -141 157 -69 271 -117 455
-192 131 -54 220 -83 251 -83 89 0 377 120 968 404 114 54 163 73 170 66 7 -7
13 -95 17 -228 4 -119 10 -277 14 -350 8 -133 8 -133 -46 -185 -187 -182 -748
-328 -1204 -314 -393 12 -834 135 -1072 299 -73 50 -77 65 -64 258 6 92 11
246 11 342 0 165 3 188 21 188 5 0 75 -29 156 -64z m-287 -216 c3 -5 -1 -104
-8 -222 -15 -247 -13 -256 69 -333 227 -212 727 -359 1229 -360 452 0 881 106
1140 283 83 57 94 59 56 10 -61 -81 -71 -156 -31 -232 32 -59 32 -52 -14 -149
-64 -131 -108 -331 -80 -353 58 -45 458 -40 515 6 30 26 -11 212 -78 349 -35
75 -39 87 -27 105 39 62 51 101 45 144 -7 53 -41 116 -73 137 -23 15 -23 15
-23 311 0 226 3 296 13 299 6 3 149 6 317 8 l305 2 -3 -1275 c-2 -701 -7
-1278 -11 -1282 -4 -4 -724 -9 -1601 -10 -877 -1 -1806 -5 -2065 -8 -258 -3
-473 -3 -477 0 -5 4 -14 2541 -9 2580 2 9 805 -1 811 -10z m2694 -661 c100
-78 55 -219 -69 -219 -94 0 -146 77 -114 169 23 66 127 94 183 50z m-74 -293
c14 0 39 3 57 8 31 7 33 6 61 -51 32 -64 85 -252 80 -286 -2 -15 -13 -23 -38
-28 -42 -9 -60 3 -60 42 0 39 -19 84 -30 73 -5 -5 -10 -34 -12 -64 -3 -55 -3
-55 -58 -55 -55 0 -55 0 -58 58 -4 70 -22 72 -39 4 -6 -25 -14 -51 -18 -57
-10 -17 -75 -12 -82 6 -12 31 63 281 102 341 13 19 21 22 43 16 15 -4 38 -7
52 -7z m-1962 -2088 c6 -6 12 -18 12 -27 1 -68 98 -187 190 -230 89 -42 794
-40 885 2 97 45 185 150 185 220 0 49 -30 47 1016 45 l989 -3 -1 -87 c-4 -184
-93 -319 -251 -378 -58 -22 -58 -22 -2400 -20 -2530 1 -2381 -2 -2476 53 -53
31 -118 101 -147 157 -39 76 -65 251 -40 276 13 13 2021 5 2038 -8z m1162 -8
c0 -50 -54 -112 -128 -149 -67 -34 -734 -28 -798 6 -65 34 -124 113 -111 147
6 14 64 16 522 16 512 0 515 0 515 -20z"/>
    <path d="M2250 4710 c0 -20 146 -91 575 -279 239 -105 273 -117 287 -103 29
29 -26 56 -648 316 -179 75 -214 86 -214 66z"/>
    <path d="M3230 4297 c0 -20 22 -37 47 -37 29 0 29 14 1 34 -27 19 -48 21 -48
3z"/>
    <path d="M2216 4273 c-11 -55 -28 -385 -22 -419 13 -67 110 -148 231 -193 95
-36 258 -72 269 -61 15 15 -1 26 -65 44 -88 25 -223 84 -288 126 -91 59 -93
66 -85 289 4 103 4 200 0 214 -8 35 -33 35 -40 0z"/>
    <path d="M4321 4256 c-10 -12 -11 -52 -6 -181 9 -195 1 -229 -70 -294 -64 -59
-218 -131 -377 -176 -116 -33 -86 -65 33 -36 356 86 476 183 472 386 -4 245
-21 339 -52 301z"/>
    <path d="M2395 3070 c-630 -9 -725 -16 -725 -57 0 -38 61 -45 457 -55 422 -10
1768 6 1868 21 111 18 106 69 -7 82 -101 12 -1041 17 -1593 9z"/>
    <path d="M2500 2560 c-738 -9 -871 -19 -854 -65 16 -40 203 -46 1414 -46 1405
0 1586 9 1518 77 -34 35 -868 48 -2078 34z"/>
    <path d="M1791 2109 c-111 -12 -142 -38 -86 -75 64 -42 1618 -41 1729 2 25 10
27 33 3 49 -17 10 -74 18 -203 25 -217 12 -1325 11 -1443 -1z"/>
  </g>
  <g transform="translate(0.000000,631.000000) scale(0.100000,-0.100000)" fill="#365072">
    <path d="M3133 5980 c-18 -4 -43 -14 -55 -22 -13 -8 -39 -20 -59 -27 -42 -13
-83 -51 -57 -51 32 0 44 -30 19 -49 -29 -22 -211 -101 -232 -101 -16 0 -34 26
-30 43 3 14 -30 20 -52 9 -12 -6 -42 -19 -67 -30 -25 -11 -54 -27 -65 -36 -19
-15 -18 -15 18 -16 42 0 41 1 27 -35 -7 -19 -29 -35 -77 -57 -38 -17 -138 -63
-225 -104 -199 -94 -259 -117 -272 -104 -16 16 -28 11 -21 -10 7 -21 -45 -53
-137 -85 -57 -20 -56 -20 -60 18 -3 30 -5 32 -38 29 -36 -3 -91 -30 -97 -48
-4 -12 47 -37 63 -32 33 11 10 -21 -31 -44 -157 -85 -255 -103 -255 -46 0 20
-17 23 -40 8 -12 -8 -12 -11 3 -28 9 -10 17 -23 17 -29 0 -17 -60 -64 -109
-85 -38 -16 -111 -77 -111 -92 0 -7 66 -46 79 -46 6 0 11 6 11 13 0 53 119 44
160 -13 13 -18 32 -30 57 -34 88 -16 112 -26 115 -48 3 -24 39 -37 113 -42 64
-4 235 -83 246 -114 14 -36 8 -55 -19 -62 -31 -7 -25 -22 13 -36 16 -6 37 -14
46 -18 11 -5 21 1 32 18 34 51 80 52 185 1 68 -32 95 -51 102 -70 6 -17 17
-25 33 -25 23 0 47 -16 47 -32 0 -17 -64 -7 -85 12 -19 17 -26 19 -54 9 -27
-9 -40 -8 -83 10 -80 33 -88 30 -81 -27 7 -58 -12 -84 -55 -77 -36 7 -80 -56
-62 -89 6 -12 9 -32 8 -46 -3 -21 2 -26 29 -30 71 -11 78 -38 64 -246 -7 -101
-10 -188 -7 -193 9 -14 -15 -61 -31 -61 -22 0 -14 -35 15 -63 31 -30 54 -34
71 -13 33 39 184 -4 210 -60 8 -17 21 -24 58 -29 79 -10 206 -49 233 -71 14
-11 34 -24 44 -28 28 -10 11 -19 -31 -18 -21 1 -51 -2 -68 -7 -30 -8 -30 -8
10 -26 22 -10 64 -20 93 -22 51 -5 52 -5 52 21 0 20 5 26 21 26 11 0 29 5 39
10 13 7 55 4 142 -10 168 -29 378 -36 566 -20 153 13 153 13 192 -25 37 -36
41 -37 95 -33 80 7 99 28 60 68 -36 38 -31 42 76 68 93 23 151 13 162 -29 4
-15 11 -16 53 -8 90 17 115 53 54 76 -17 6 -30 15 -30 20 0 14 226 123 255
123 21 0 43 15 87 60 57 59 59 63 56 108 -3 48 -10 54 -50 37 -22 -9 -29 48
-31 285 -2 189 4 218 32 166 22 -39 36 -38 39 4 3 46 -8 61 -49 63 -34 2 -34
3 -39 57 -3 30 -9 55 -15 54 -5 0 -28 -4 -49 -8 -36 -8 -42 -6 -63 18 -37 43
-30 54 62 97 91 43 98 53 61 88 -15 14 -22 30 -19 42 4 13 -2 21 -22 29 -37
14 -55 13 -55 -4 0 -27 -17 -26 -147 3 -204 47 -273 77 -212 91 41 10 30 26
-30 45 -61 18 -84 15 -74 -10 9 -24 -60 -19 -172 14 -188 54 -255 86 -255 124
0 49 -17 54 -54 18 -32 -31 -39 -33 -82 -28 -40 4 -47 2 -51 -14 -14 -54 -163
8 -163 68 0 35 36 38 94 8 109 -56 237 5 178 85 -28 38 -28 48 4 62 24 11 29
9 51 -16 20 -23 40 -32 111 -46 48 -10 101 -22 117 -28 17 -6 79 -21 139 -32
149 -30 240 -61 244 -82 2 -12 -3 -18 -13 -18 -14 0 -15 -3 -5 -15 7 -8 26
-15 42 -15 16 0 38 -5 49 -11 17 -9 21 -7 26 11 8 32 74 23 233 -30 135 -45
147 -52 161 -87 7 -20 11 -22 28 -11 30 18 73 -1 93 -40 22 -46 21 -45 72 -28
26 9 62 16 81 16 23 0 41 7 53 21 26 32 72 52 125 56 26 1 47 0 47 -3 0 -17
-47 -64 -64 -64 -12 -1 -32 -7 -45 -14 -13 -7 -32 -11 -43 -8 -12 3 -18 -1
-18 -12 0 -26 33 -19 142 30 136 61 153 76 103 88 -30 8 -31 17 -6 40 22 20
61 7 61 -19 0 -33 108 7 178 67 83 70 74 154 -13 123 -54 -19 -69 -18 -116 5
-53 27 -58 45 -24 80 34 35 34 35 -52 72 -80 33 -85 34 -100 9 -24 -38 -87
-33 -200 16 -124 55 -126 57 -103 105 21 43 13 52 -73 91 -48 22 -53 21 -77
-3 -41 -41 -214 -4 -300 64 -8 7 -48 25 -88 41 -40 15 -77 34 -83 42 -6 7 -18
13 -25 13 -23 0 -16 14 16 32 40 23 38 39 -10 66 -44 25 -82 28 -99 8 -57 -69
-371 62 -371 155 0 20 -24 26 -35 9 -17 -27 -155 -4 -155 26 0 12 -6 14 -29 9
-17 -3 -45 1 -70 11 -39 15 -103 14 -148 -3 -9 -4 -16 2 -20 15 -6 26 -19 30
-60 22z m82 -771 c9 -14 -24 -49 -45 -49 -28 0 -45 27 -30 45 14 17 66 20 75
4z m-766 -573 c14 -15 13 -16 -9 -16 -31 1 -133 51 -138 68 -5 16 124 -30 147
-52z m252 -98 c30 -12 67 -32 82 -45 29 -23 29 -23 -5 -23 -18 0 -62 15 -98
33 -103 52 -87 79 21 35z m1569 -68 c0 -5 -6 -13 -13 -17 -7 -4 -20 -20 -29
-34 -25 -40 -283 -164 -327 -157 -31 4 -71 -12 -71 -30 0 -37 -419 -211 -511
-212 -14 0 -41 11 -59 25 -24 18 -42 24 -60 20 -27 -6 -101 19 -225 75 -38 17
-90 39 -115 47 -25 8 -74 30 -110 47 -36 18 -108 49 -160 70 -160 62 -165 66
-165 108 0 35 2 37 37 43 51 9 221 -70 240 -110 10 -23 16 -26 43 -21 19 4 54
-3 99 -19 38 -14 70 -25 71 -25 2 0 8 -12 14 -27 14 -35 88 -68 132 -59 33 6
149 -37 194 -73 21 -15 31 -17 67 -9 24 6 63 11 88 11 35 2 52 9 75 31 39 37
184 106 224 106 17 0 31 5 31 10 0 13 77 49 106 50 12 0 33 11 48 25 38 35
120 75 153 75 14 0 37 10 50 21 21 20 37 24 161 38 6 0 12 -3 12 -9z m-1242
-94 c4 -20 -20 -21 -58 -1 -32 16 -38 31 -17 38 19 6 72 -19 75 -37z m1326
-203 c3 -38 2 -81 -3 -98 -8 -30 -8 -30 -20 -2 -12 30 -15 159 -5 170 14 14
22 -5 28 -70z m-2106 -108 c-3 -89 -10 -170 -16 -181 -8 -15 -7 -23 5 -37 18
-19 12 -33 -11 -24 -23 9 -29 100 -17 257 12 149 15 165 33 154 7 -5 9 -60 6
-169z m2095 -212 c-12 -77 -49 -120 -154 -177 -66 -36 -125 -48 -117 -23 3 6
37 30 76 52 79 45 155 113 173 157 16 40 29 35 22 -9z m-1913 -141 c56 -28 65
-48 19 -46 -40 2 -119 41 -119 58 0 23 37 19 100 -12z"/>
    <path d="M4320 5610 c0 -14 39 -32 52 -24 7 5 5 11 -7 21 -22 15 -45 17 -45 3z"/>
    <path d="M1998 5468 c-46 -22 -57 -38 -25 -38 21 0 77 45 66 53 -2 2 -21 -5
-41 -15z"/>
    <path d="M4660 4705 c-16 -42 -12 -65 9 -65 26 0 54 29 47 47 -3 8 -6 16 -6
18 0 3 -9 9 -20 15 -17 9 -22 7 -30 -15z"/>
    <path d="M5553 4648 c-15 -24 -43 -82 -40 -84 44 -36 69 -35 107 4 43 43 41
54 -13 77 -44 18 -44 18 -54 3z"/>
    <path d="M4795 4600 c-14 -23 10 -36 35 -20 13 9 13 11 0 20 -19 12 -27 12
-35 0z"/>
    <path d="M836 4458 c-30 -43 -12 -99 21 -65 18 18 23 78 6 84 -6 2 -18 -6 -27
-19z"/>
    <path d="M5740 4451 c-6 -12 -17 -21 -25 -21 -11 0 -15 -13 -15 -50 0 -56 4
-58 62 -33 47 21 55 44 31 85 -23 39 -39 45 -53 19z"/>
    <path d="M4680 4350 c-6 -12 -10 -33 -8 -48 3 -27 3 -27 26 5 12 17 19 38 16
47 -8 22 -21 20 -34 -4z"/>
    <path d="M1104 4276 c-3 -7 -4 -40 -2 -72 3 -55 5 -59 26 -56 20 3 22 -1 22
-40 0 -49 12 -74 30 -63 8 5 10 28 5 81 -5 54 -4 78 5 89 11 13 8 21 -15 45
-30 32 -62 39 -71 16z"/>
    <path d="M4532 4238 c-7 -7 -12 -20 -12 -31 0 -24 33 -19 38 7 5 24 -11 39
-26 24z"/>
    <path d="M5393 4211 c-29 -24 -33 -33 -33 -80 0 -59 15 -96 33 -84 7 4 21 8
32 8 18 0 20 8 23 70 5 118 -3 131 -55 86z"/>
    <path d="M4678 4119 c-26 -15 -22 -53 8 -89 34 -40 46 -28 42 41 -3 57 -16 69
-50 48z"/>
    <path d="M4682 3674 c-12 -8 -22 -22 -22 -30 0 -8 -8 -17 -17 -21 -57 -20 -58
-53 -2 -53 14 0 34 -7 45 -15 21 -16 80 -20 89 -6 3 6 -8 25 -25 44 -17 19
-30 46 -30 60 0 33 -12 40 -38 21z"/>
    <path d="M2320 3510 c-9 -5 -6 -12 11 -24 29 -20 59 -21 59 -2 0 17 -52 37
-70 26z"/>
    <path d="M4765 3391 c-11 -3 -39 -19 -62 -35 -50 -33 -127 -34 -164 0 -17 16
-22 16 -30 4 -6 -11 -3 -19 13 -30 12 -8 33 -25 46 -37 43 -40 93 -36 131 11
8 9 19 16 27 16 25 0 64 23 70 43 8 24 -5 36 -31 28z"/>
    <path d="M2956 3331 c-6 -9 41 -21 78 -21 16 1 18 2 6 9 -24 13 -79 21 -84 12z"/>
    <path d="M4446 3217 c-25 -18 -18 -61 11 -65 23 -3 43 27 43 64 0 18 -30 18
-54 1z"/>
    <path d="M4757 3223 c-21 -21 9 -93 39 -93 24 0 28 30 9 66 -17 32 -34 42 -48
27z"/>
    <path d="M1685 3020 c-9 -15 4 -30 26 -30 23 0 26 25 3 34 -21 8 -22 8 -29 -4z"/>
    <path d="M4834 2950 c-8 -36 -29 -50 -80 -50 -36 0 -37 0 -19 -20 30 -33 79
-44 115 -25 29 15 31 19 28 68 -4 63 -34 81 -44 27z"/>
    <path d="M4378 2953 c-8 -10 -18 -37 -22 -60 -6 -42 -6 -42 31 -52 62 -18 100
-14 117 11 25 35 20 48 -13 42 -42 -9 -71 11 -71 46 0 34 -19 39 -42 13z"/>
    <path d="M1694 2075 c-8 -20 13 -45 37 -45 26 0 30 13 13 38 -18 25 -42 29
-50 7z"/>
    <path d="M1170 1570 c0 -5 6 -10 14 -10 7 0 29 -3 47 -6 32 -5 33 -5 15 10
-22 18 -76 22 -76 6z"/>
    <path d="M5651 1279 c-18 -7 -21 -13 -13 -21 24 -24 94 -5 78 21 -9 13 -32 13
-65 0z"/>
    <path d="M5623 1213 c-47 -6 -41 -23 7 -23 29 0 40 4 40 15 0 8 -3 14 -7 13
-5 0 -23 -3 -40 -5z"/>
    <path d="M845 1200 c-4 -6 8 -10 29 -10 20 0 36 5 36 10 0 6 -13 10 -29 10
-17 0 -33 -4 -36 -10z"/>
    <path d="M3920 1197 c-30 -15 -38 -45 -14 -54 12 -4 22 0 32 15 8 12 25 22 38
22 12 0 26 5 29 10 3 6 0 10 -7 10 -7 0 -22 3 -33 5 -11 3 -31 -1 -45 -8z"/>
    <path d="M2822 1028 c-9 -11 -28 -24 -41 -29 -24 -10 -24 -10 4 -39 54 -56
145 -81 145 -40 0 11 9 25 20 32 32 20 24 31 -46 65 -65 31 -66 31 -82 11z"/>
    <path d="M3693 1016 c-67 -33 -73 -46 -28 -58 16 -4 33 -14 37 -23 14 -23 67
-18 110 11 48 34 48 44 -3 77 -48 32 -39 32 -116 -7z"/>
    <path d="M582 965 c-39 -21 -48 -33 -34 -47 8 -8 15 -8 26 1 8 7 24 10 35 6
25 -8 35 9 21 35 -12 23 -16 23 -48 5z"/>
    <path d="M775 710 c-10 -11 -27 -20 -37 -20 -33 0 -16 -33 28 -57 76 -42 116
-31 69 19 -33 35 -32 37 14 31 53 -7 60 11 11 31 -52 21 -63 20 -85 -4z"/>
    <path d="M5698 714 c-37 -19 -35 -34 2 -34 18 0 30 -5 30 -13 0 -18 -21 -37
-41 -37 -21 0 -66 -36 -57 -46 11 -10 153 44 173 66 17 18 16 20 -8 31 -14 6
-28 20 -30 30 -6 23 -32 24 -69 3z"/>
  </g>
  <g transform="translate(0.000000,631.000000) scale(0.100000,-0.100000)" fill="#cdb979">
    <path d="M3503 5099 c-24 -24 -16 -58 15 -64 46 -10 91 -23 267 -75 94 -27
190 -55 215 -60 25 -6 104 -29 175 -51 72 -23 174 -55 228 -72 158 -49 157
-46 161 -287 3 -155 9 -180 47 -180 27 0 34 37 34 175 -1 271 -5 292 -75 321
-57 24 -362 124 -378 124 -16 0 -88 20 -187 51 -33 10 -96 28 -140 39 -44 12
-132 35 -195 52 -156 41 -153 41 -167 27z"/>
    <path d="M4601 4271 c-22 -14 -30 -199 -20 -506 4 -106 5 -110 27 -113 50 -7
51 2 47 251 -4 290 -19 389 -54 368z"/>
    <path d="M4574 3550 c-91 -36 -81 -170 16 -210 61 -25 150 39 150 107 0 76
-92 133 -166 103z"/>
    <path d="M4530 3245 c-20 -26 -86 -225 -95 -288 -7 -47 -7 -47 28 -47 35 0 36
2 53 58 29 95 55 94 53 -3 -1 -80 -4 -76 49 -73 47 3 47 3 50 71 4 86 52 100
52 14 0 -32 36 -65 65 -59 14 2 25 11 25 19 0 42 -44 195 -73 253 -32 64 -32
64 -115 65 -46 0 -87 -4 -92 -10z"/>
  </g>
  <g transform="translate(0.000000,631.000000) scale(0.100000,-0.100000)" fill="#365782">
    <path d="M3205 5926 c-44 -18 -125 -54 -180 -81 -55 -26 -197 -91 -315 -145
-118 -54 -379 -175 -580 -270 -201 -95 -435 -203 -520 -241 -211 -95 -350
-162 -350 -170 0 -13 26 -27 120 -67 231 -98 560 -241 610 -267 30 -15 100
-47 155 -70 55 -24 188 -81 295 -128 816 -355 820 -357 876 -357 80 0 154 32
1061 461 150 71 148 78 -25 127 -519 147 -710 204 -826 247 -95 36 -98 36
-137 21 -143 -57 -309 41 -285 169 23 123 273 156 361 48 15 -19 38 -28 90
-38 452 -84 1114 -294 1131 -359 13 -53 21 -51 225 44 107 50 232 107 279 127
86 37 127 64 117 79 -8 13 -254 136 -417 208 -179 79 -383 171 -820 371 -372
170 -739 325 -768 325 -10 -1 -53 -16 -97 -34z m-627 -1335 c367 -152 522
-225 522 -245 0 -9 -7 -16 -15 -16 -38 0 -805 345 -819 369 -15 24 35 7 312
-108z m702 -306 c7 -9 11 -18 8 -21 -9 -9 -59 16 -53 26 9 15 31 12 45 -5z"/>
    <path d="M3235 5191 c-95 -41 -46 -131 71 -131 92 0 142 75 78 117 -29 19
-119 27 -149 14z"/>
    <path d="M2116 4488 c-3 -7 -7 -101 -10 -208 -3 -107 -9 -265 -12 -351 -7
-156 -7 -156 30 -197 130 -143 622 -302 1034 -333 427 -32 1027 106 1260 290
86 68 82 50 67 341 -8 140 -14 299 -15 353 0 125 0 125 -153 52 -845 -400
-974 -448 -1085 -402 -20 8 -129 52 -241 97 -112 46 -286 119 -385 162 -199
88 -478 208 -483 208 -2 0 -5 -6 -7 -12z m138 -228 c3 -17 3 -115 -1 -218 -6
-189 -6 -189 31 -229 48 -54 162 -112 349 -178 75 -27 42 -37 -49 -15 -205 49
-342 122 -374 201 -13 30 -9 263 7 411 6 63 26 78 37 28z m2099 -47 c4 -21 9
-106 13 -190 7 -151 7 -152 -20 -208 -54 -110 -243 -206 -490 -251 -77 -14
-32 20 75 57 212 71 329 141 372 222 20 40 21 52 18 225 -2 154 0 182 12 182
9 0 17 -14 20 -37z"/>
  </g>
  <g transform="translate(0.000000,631.000000) scale(0.100000,-0.100000)" fill="#5d7488">
    <path d="M3210 5921 c-36 -16 -143 -65 -238 -110 -95 -44 -175 -81 -177 -81
-3 0 -80 -36 -172 -79 -93 -43 -269 -126 -393 -184 -124 -58 -283 -133 -355
-167 -166 -79 -319 -148 -418 -190 -109 -46 -113 -66 -20 -92 42 -12 43 -13
37 -49 -5 -31 -3 -39 17 -52 49 -32 313 -138 353 -141 59 -6 122 -34 141 -62
25 -38 167 -100 233 -102 12 -1 37 -13 54 -27 59 -49 230 -125 284 -125 41 0
87 -17 79 -30 -11 -18 12 -28 437 -208 116 -48 108 -49 198 16 2 1 -9 13 -25
26 -45 36 -7 65 42 31 15 -11 21 -25 20 -51 -1 -24 5 -41 16 -49 25 -18 21
-25 -15 -23 -23 2 -33 -1 -33 -12 0 -35 164 -7 216 37 8 7 24 13 35 13 20 0
716 320 777 357 20 13 61 32 90 43 68 25 95 45 82 59 -15 15 -252 81 -305 85
-92 8 -139 19 -156 37 -20 22 -126 58 -298 99 -65 16 -123 34 -130 39 -6 5
-42 21 -80 36 -68 27 -70 27 -115 11 -124 -44 -253 7 -291 115 -52 148 189
249 343 145 21 -14 44 -22 55 -19 11 2 31 -2 44 -11 64 -42 342 -115 391 -102
14 3 34 -3 57 -19 19 -13 93 -40 165 -59 297 -81 524 -169 539 -208 15 -39 47
-37 148 11 46 21 120 56 165 76 45 21 84 44 87 51 3 7 22 16 43 19 38 6 126
41 151 58 19 15 -12 44 -56 52 -20 4 -50 19 -67 34 -17 15 -76 47 -131 70
-160 70 -183 80 -314 141 -224 104 -701 321 -860 390 -85 38 -186 82 -225 100
-126 58 -314 130 -337 129 -13 0 -52 -13 -88 -28z m-837 -1237 c61 -25 171
-70 243 -99 383 -155 534 -232 507 -259 -19 -19 -66 -3 -293 98 -69 31 -137
56 -152 56 -16 0 -28 4 -28 9 0 26 -313 164 -352 155 -22 -4 -29 -1 -34 13 -3
10 -10 26 -15 36 -9 16 -5 37 7 37 2 0 55 -21 117 -46z"/>
    <path d="M3228 5179 c-24 -13 -39 -44 -32 -63 8 -20 67 -39 96 -31 94 26 121
58 76 89 -25 18 -113 21 -140 5z"/>
    <path d="M4300 4419 c-118 -57 -136 -69 -178 -111 -9 -10 -31 -18 -48 -18 -34
0 -99 -26 -304 -119 -250 -115 -378 -161 -451 -161 -61 0 -215 58 -671 254
-59 25 -117 46 -128 46 -25 0 -57 15 -85 41 -35 32 -234 110 -253 100 -54 -29
-59 -47 -67 -218 -8 -183 -5 -190 52 -127 28 32 33 45 39 116 5 56 11 81 21
85 28 11 33 -23 33 -239 0 -217 0 -217 32 -254 30 -34 116 -84 146 -84 7 0 25
-9 40 -20 16 -12 72 -36 127 -55 102 -36 117 -46 113 -80 -5 -33 -48 -30 -97
5 -34 25 -155 69 -193 70 -17 0 -38 -58 -24 -69 37 -31 148 -52 161 -31 17 27
75 3 75 -31 0 -66 537 -132 840 -104 290 27 299 29 273 83 -25 51 12 81 147
122 58 17 121 42 141 56 19 13 41 24 48 24 7 0 24 9 38 20 14 11 32 20 40 20
28 0 104 62 126 103 26 50 28 287 3 362 -16 46 -11 55 40 80 42 20 50 15 69
-41 14 -42 39 -65 53 -49 16 18 -1 279 -18 282 -8 1 -71 -25 -140 -58z"/>
    <path d="M4394 4012 c-6 -4 -13 -43 -16 -87 -6 -100 -28 -146 -103 -213 -56
-49 -56 -49 -16 -66 47 -18 67 -13 145 43 76 54 85 76 79 190 -7 118 -39 166
-89 133z"/>
    <path d="M2140 3896 c0 -4 6 -15 13 -26 11 -18 8 -23 -20 -46 -41 -31 -41 -44
-4 -87 53 -59 118 -87 174 -75 59 14 59 14 -13 66 -45 32 -68 59 -92 105 -28
51 -58 84 -58 63z"/>
    <path d="M3995 3591 c-129 -40 -153 -60 -98 -82 37 -14 104 -6 193 25 93 33
101 39 86 71 -15 33 -36 32 -181 -14z"/>
  </g>
  <g transform="translate(0.000000,631.000000) scale(0.100000,-0.100000)" fill="#96aeb8">

  </g>
  <g transform="translate(0.000000,631.000000) scale(0.100000,-0.100000)" fill="#b6d9e0">
    <path d="M1004 4546 c-61 -28 -117 -92 -134 -150 -9 -32 -12 -415 -13 -1567
l-2 -1524 2420 0 2420 0 3 1519 c2 1626 4 1565 -51 1638 -71 94 -69 93 -517
93 l-395 0 -3 -108 c-2 -80 1 -108 10 -112 7 -2 163 -8 346 -12 299 -7 335
-10 346 -25 22 -29 26 -294 26 -1539 0 -1027 -2 -1190 -15 -1202 -25 -25 -416
-29 -2405 -25 -2017 4 -1932 2 -1947 55 -4 15 -8 615 -8 1333 0 1367 0 1378
43 1395 9 4 208 11 441 16 233 4 427 12 431 16 4 4 10 50 13 101 7 133 52 122
-498 122 -460 0 -460 0 -511 -24z"/>
    <path d="M1203 4207 c-3 -5 -6 -584 -7 -1286 l-1 -1276 115 0 c63 1 907 5
1875 10 968 5 1805 8 1860 6 55 -1 144 -3 197 -4 l96 -2 5 1255 c3 690 6 1260
7 1265 8 35 5 35 -304 35 -168 0 -307 -4 -310 -8 -3 -5 -6 -135 -7 -290 -2
-274 -1 -282 19 -299 70 -60 94 -197 47 -267 -31 -45 -31 -60 -2 -111 44 -78
95 -243 99 -321 3 -47 2 -50 -32 -66 -94 -45 -445 -44 -502 2 -22 17 -22 18
-5 101 25 123 66 248 99 296 34 50 34 56 7 92 -40 55 -44 117 -12 194 22 52
13 54 -54 14 -75 -46 -218 -117 -233 -117 -7 0 -58 -14 -114 -31 -55 -17 -130
-39 -166 -49 -544 -152 -1342 -39 -1764 250 -129 89 -140 117 -132 333 3 100
9 198 11 217 3 19 2 40 -2 46 -10 15 -781 25 -790 11z m2721 -1136 c138 -10
164 -20 151 -60 -16 -50 -231 -60 -1300 -60 -820 -1 -1050 7 -1091 34 -47 31
-19 60 68 70 178 22 1909 34 2172 16z m445 -511 c191 -11 221 -18 221 -49 0
-59 -59 -62 -1310 -68 -1102 -5 -1558 3 -1614 28 -30 14 -36 55 -8 63 90 25
406 32 1537 34 593 1 1064 -2 1174 -8z m-1030 -449 c102 -10 135 -27 115 -58
-27 -43 -311 -56 -1097 -51 -659 5 -682 7 -682 58 0 37 39 50 178 60 151 11
1358 3 1486 -9z"/>
    <path d="M628 1174 c-11 -10 -10 -87 2 -157 23 -144 140 -276 271 -306 28 -6
876 -12 2370 -16 2312 -5 2327 -5 2390 15 166 52 261 186 263 370 l1 85 -989
0 c-990 0 -990 0 -1001 -45 -25 -96 -91 -170 -193 -218 -57 -27 -57 -27 -406
-30 -364 -3 -420 1 -491 39 -90 48 -164 137 -180 216 -4 18 -10 35 -13 37 -13
8 -2017 18 -2024 10z"/>
    <path d="M2794 1156 c-14 -37 70 -128 136 -146 19 -6 181 -13 360 -16 381 -7
404 -3 480 84 81 92 108 87 -468 90 -426 2 -503 0 -508 -12z"/>
  </g>
</svg>
