<?xml version="1.0" standalone="no"?>
<!DOCTYPE svg PUBLIC "-//W3C//DTD SVG 20010904//EN"
 "http://www.w3.org/TR/2001/REC-SVG-20010904/DTD/svg10.dtd">
<svg version="1.0" xmlns="http://www.w3.org/2000/svg"
 width="661.000000pt" height="631.000000pt" viewBox="0 0 661.000000 631.000000"
 preserveAspectRatio="xMidYMid meet">
<metadata>
Created by potrace 1.16, written by Peter Selinger 2001-2019
</metadata>
<g transform="translate(0.000000,631.000000) scale(0.100000,-0.100000)"
fill="currentColor" stroke="none">
<path d="M3180 6006 c-421 -152 -1895 -834 -2037 -942 -18 -14 -33 -34 -33
-44 0 -39 201 -156 455 -265 61 -26 114 -51 119 -56 5 -5 -138 -8 -325 -7
-328 1 -335 1 -394 -22 -82 -32 -173 -122 -206 -205 l-24 -60 -3 -1552 -2
-1553 -95 0 c-84 0 -98 -3 -116 -21 -21 -21 -21 -29 -16 -153 4 -103 10 -148
31 -213 50 -154 152 -259 307 -315 l64 -23 2345 -3 c1743 -2 2359 0 2400 8 91
19 194 75 255 137 99 100 145 231 145 418 0 153 -2 155 -131 155 l-99 0 1
1538 c0 1671 3 1577 -54 1675 -44 75 -145 151 -228 170 -15 4 -180 7 -368 8
-187 1 -341 3 -341 6 0 2 114 60 253 127 270 133 332 175 343 234 14 73 -80
129 -685 407 -737 338 -1296 568 -1413 580 -44 5 -69 0 -148 -29z m696 -985
c601 -168 733 -211 752 -248 17 -33 22 -131 27 -630 l6 -493 -35 0 c-20 0 -38
-1 -41 -2 -6 -3 -11 140 -20 617 -7 423 -9 441 -42 462 -25 17 -298 106 -453
148 -47 13 -125 35 -175 50 -93 27 -175 50 -329 91 -99 26 -105 29 -88 46 7 7
12 22 12 33 0 24 9 37 20 30 4 -3 169 -49 366 -104z m-1886 -461 l30 -13 -6
-106 c-4 -58 -7 -107 -8 -107 0 -1 -194 -4 -431 -6 -297 -3 -437 -8 -451 -16
-14 -7 -24 -26 -28 -49 -10 -53 -20 -2455 -11 -2581 5 -66 12 -107 21 -117 8
-7 39 -17 70 -21 31 -3 997 -7 2148 -8 1690 -1 2095 1 2114 12 l22 13 -2 1207
c-2 1176 -6 1513 -20 1527 -18 18 -109 24 -394 26 l-311 2 -7 115 c-3 63 -4
117 -2 119 10 10 773 2 808 -9 54 -16 117 -74 144 -132 l24 -51 0 -1537 0
-1536 -517 3 c-285 2 -1376 4 -2426 4 l-1907 1 2 1538 c3 1535 3 1537 24 1582
22 48 88 114 132 132 48 19 148 23 554 22 298 -1 404 -4 428 -14z m6 -425 c-3
-44 -9 -145 -12 -225 -6 -134 -5 -148 14 -185 86 -167 506 -350 952 -415 271
-39 514 -34 790 16 316 58 555 146 711 263 58 45 77 46 37 3 -41 -43 -58 -87
-58 -147 0 -58 9 -85 41 -121 19 -21 19 -21 -16 -80 -40 -66 -74 -167 -100
-293 -14 -71 -15 -86 -3 -97 22 -22 211 -47 303 -39 100 8 226 32 238 44 23
23 -45 271 -106 382 l-30 56 28 38 c22 28 30 51 33 94 5 66 -11 105 -63 161
l-33 35 5 293 6 292 314 0 315 0 -6 -102 c-4 -57 -8 -633 -9 -1280 l-2 -1177
-1830 -1 c-1006 0 -1941 -3 -2077 -6 l-248 -7 1 1274 c0 701 -3 1281 -6 1290
-6 15 30 16 406 15 l412 -1 -7 -80z m2684 -580 c64 -33 82 -135 32 -185 -78
-77 -202 -30 -202 77 0 55 12 79 53 103 38 24 78 25 117 5z m-55 -305 c19 0
45 4 58 9 23 9 26 6 55 -57 30 -66 89 -278 81 -287 -3 -2 -23 -7 -45 -11 -40
-6 -41 -5 -48 26 -3 18 -6 42 -6 54 0 12 -7 31 -15 42 -22 29 -36 1 -33 -71
l2 -60 -58 -3 -57 -3 7 50 c7 58 -1 104 -19 98 -7 -2 -19 -35 -28 -73 l-16
-69 -39 3 c-21 2 -40 5 -42 7 -5 5 47 198 68 254 39 102 47 112 76 101 14 -6
40 -10 59 -10z m-2148 -2078 l182 -3 7 -32 c18 -86 95 -182 181 -225 71 -36
133 -42 467 -42 266 0 332 3 377 16 131 38 212 119 244 244 6 25 17 45 23 44
7 -1 453 -2 992 -2 l980 -2 0 -72 c0 -175 -81 -307 -228 -376 l-57 -27 -2360
3 c-2634 3 -2405 -3 -2512 76 -98 73 -153 194 -153 339 l0 68 838 -3 c460 -2
919 -4 1019 -6z m1343 -13 c0 -8 -14 -36 -31 -62 -23 -35 -46 -54 -94 -78
l-63 -31 -338 4 c-318 3 -342 4 -384 24 -61 28 -130 109 -130 153 0 4 234 7
520 7 467 -1 520 -3 520 -17z"/>
<path d="M2080 3070 c-366 -10 -433 -20 -417 -64 11 -28 55 -37 242 -48 224
-13 1897 -4 2038 11 112 12 137 22 137 56 0 31 -18 36 -155 45 -140 9 -1507 9
-1845 0z"/>
<path d="M2269 2565 c-3 -2 -86 -5 -184 -6 -210 -2 -390 -15 -423 -29 -36 -16
-26 -52 18 -62 99 -22 636 -30 1620 -25 996 5 1223 12 1271 37 25 14 24 46 -1
60 -11 6 -102 14 -202 19 -188 9 -2091 14 -2099 6z"/>
<path d="M1858 2120 c-70 -5 -139 -14 -155 -22 -51 -24 -40 -63 23 -80 60 -15
1135 -22 1419 -9 272 13 315 20 315 55 0 31 -14 36 -150 47 -147 13 -1285 19
-1452 9z"/>
</g>
</svg>
