<?xml version="1.0" encoding="UTF-8"?>
<svg version="1.0" xmlns="http://www.w3.org/2000/svg"
 width="757.000000pt" height="708.000000pt" viewBox="0 0 757.000000 708.000000"
 preserveAspectRatio="xMidYMid meet">
  <g transform="translate(0.000000,708.000000) scale(0.100000,-0.100000)" fill="#253450">
    <path d="M1715 6608 c-79 -19 -153 -52 -187 -82 -50 -46 -118 -136 -124 -165
-3 -14 -9 -35 -14 -46 -5 -11 -12 -42 -16 -70 -11 -84 -15 -2518 -4 -2529 5
-5 10 -20 10 -33 0 -13 4 -31 8 -41 70 -144 111 -188 232 -246 65 -31 65 -31
833 -36 746 -5 769 -6 783 -24 16 -23 20 -331 4 -356 -8 -13 -149 -16 -1132
-21 -618 -3 -1139 -9 -1158 -13 -33 -7 -77 -26 -142 -62 -70 -38 -168 -174
-168 -234 0 -12 -5 -31 -12 -43 -16 -30 -13 -1691 3 -1751 6 -22 20 -53 30
-67 10 -15 19 -30 19 -34 0 -45 143 -165 229 -191 62 -19 2562 -21 2620 -2
160 51 301 193 301 303 0 14 5 36 11 47 7 13 12 107 13 259 0 143 5 242 11
248 6 6 293 12 795 14 517 3 794 9 812 16 51 19 85 111 59 159 -31 58 -5 57
-861 60 -533 2 -789 7 -797 14 -10 8 -13 111 -13 477 0 466 0 466 -25 531 -48
126 -157 229 -278 264 -30 9 -59 22 -65 29 -21 25 -20 635 2 684 22 53 73 98
123 112 53 15 2943 15 2996 0 21 -6 56 -26 77 -45 74 -67 71 -21 68 -1035 -3
-906 -3 -906 -30 -941 -39 -51 -82 -74 -173 -93 -92 -19 -122 -35 -131 -71 -6
-24 -3 -36 30 -104 63 -132 386 -11 478 180 49 103 48 75 48 1050 0 989 2 944
-54 1058 -53 109 -164 193 -286 218 -19 3 -137 9 -262 13 -124 3 -229 9 -232
12 -20 20 -36 125 -26 173 6 33 8 217 4 526 -4 261 -5 540 -3 620 11 443 0
925 -21 975 -4 11 -14 36 -21 55 -37 103 -148 196 -281 234 -95 27 -2902 24
-2956 -3 -71 -36 -89 -145 -29 -181 31 -20 54 -20 1477 -20 1390 0 1447 -1
1486 -19 39 -18 77 -58 104 -110 20 -39 26 -1629 6 -1637 -19 -7 -40 5 -143
79 -172 124 -275 198 -467 332 -140 98 -91 121 -665 -318 -164 -126 -262 -197
-272 -197 -4 0 -80 61 -170 136 -90 75 -240 200 -334 278 -204 170 -238 198
-479 400 -271 227 -264 225 -428 91 -57 -46 -240 -195 -408 -332 -168 -136
-397 -322 -510 -412 -113 -91 -247 -200 -298 -243 -115 -96 -129 -99 -134 -20
-1 31 -1 455 2 942 5 873 5 886 26 925 29 55 92 96 162 104 108 13 146 59 116
138 -26 68 -82 92 -169 71z m1476 -1420 c129 -114 183 -159 239 -201 30 -23
105 -84 165 -137 162 -140 235 -202 280 -235 22 -16 85 -68 140 -116 55 -47
116 -97 136 -110 70 -48 379 -324 379 -339 0 -39 -9 -40 -477 -40 -312 0 -461
-3 -480 -11 -126 -51 -186 -95 -243 -179 -22 -33 -40 -64 -40 -70 0 -5 -4 -19
-10 -30 -5 -11 -14 -29 -20 -40 -5 -11 -10 -30 -10 -42 -1 -64 17 -63 -855
-63 -666 0 -670 0 -710 21 -92 50 -125 126 -125 288 0 149 5 158 128 253 100
76 169 132 344 278 66 55 144 118 173 140 56 42 156 123 363 295 70 58 145
118 167 134 22 17 80 64 129 105 224 189 223 189 327 99z m2039 -384 c30 -20
69 -49 85 -65 17 -16 36 -29 41 -29 6 0 28 -15 50 -33 21 -18 59 -47 84 -63
103 -69 218 -149 255 -179 22 -17 56 -41 75 -53 75 -45 78 -52 82 -205 3 -128
1 -140 -16 -153 -17 -12 -97 -14 -480 -14 -529 0 -459 -15 -639 138 -134 115
-227 205 -227 220 0 20 101 106 199 171 20 13 52 39 72 56 20 18 61 49 90 69
30 20 94 67 143 106 103 81 112 82 186 34z m-1756 -2075 c47 -13 122 -81 142
-127 12 -29 14 -164 14 -849 0 -911 5 -847 -72 -920 -70 -67 20 -63 -1335 -63
-1374 0 -1269 -5 -1339 71 -55 60 -54 40 -54 921 0 787 1 820 19 856 26 50 79
98 121 110 50 15 2452 15 2504 1z"/>
    <path d="M1866 2310 c-77 -24 -75 -9 -80 -511 -5 -481 -2 -520 43 -561 67 -60
69 -59 476 191 77 47 147 91 156 96 310 185 319 193 319 273 0 53 -25 80 -121
130 -165 87 -278 147 -324 172 -27 15 -104 56 -170 90 -66 35 -141 76 -166 91
-55 32 -94 41 -133 29z m262 -360 c31 -16 75 -38 97 -49 142 -67 199 -108 189
-135 -5 -13 -25 -28 -125 -91 -226 -141 -258 -150 -271 -80 -12 71 -9 360 4
373 19 19 45 14 106 -18z"/>
    <path d="M2325 6613 c-53 -13 -104 -107 -85 -157 25 -68 165 -72 200 -7 36 68
-24 182 -89 170 -3 -1 -15 -3 -26 -6z"/>
    <path d="M4240 6101 c-109 -22 -235 -119 -280 -218 -12 -26 -26 -56 -31 -65
-5 -10 -9 -65 -9 -124 0 -248 172 -422 419 -424 293 -2 503 322 381 587 -11
24 -20 46 -20 51 0 4 -22 33 -49 63 -97 109 -259 160 -411 130z m168 -235 c94
-49 136 -180 86 -266 -98 -167 -344 -103 -344 90 0 136 145 235 258 176z"/>
    <path d="M5859 3536 c-2 -2 -42 -9 -89 -16 -47 -6 -107 -15 -135 -20 -27 -5
-95 -16 -150 -25 -55 -9 -122 -20 -150 -26 -27 -5 -84 -14 -125 -19 -121 -17
-349 -52 -445 -69 -33 -6 -139 -11 -235 -11 -217 -1 -248 -11 -323 -112 -38
-52 -47 -111 -47 -321 0 -235 9 -277 76 -344 66 -66 98 -76 254 -82 l135 -6 5
-240 c7 -344 0 -335 290 -335 194 0 246 8 274 39 10 11 49 111 87 222 74 218
76 223 129 213 19 -3 60 -10 90 -14 30 -5 105 -17 165 -28 254 -46 262 -47
305 -27 74 33 80 56 80 294 0 220 2 231 48 231 14 0 38 14 58 34 64 64 35 171
-52 192 -54 13 -54 13 -54 206 0 191 -6 220 -52 252 -20 14 -127 23 -139 12z
m-61 -258 c19 -19 17 -691 -2 -707 -12 -10 -246 22 -491 69 -27 5 -99 16 -160
25 -181 25 -249 38 -262 48 -10 7 -13 61 -13 208 0 195 0 199 23 213 20 14
142 37 287 56 30 4 114 17 185 29 132 22 406 68 416 70 3 1 10 -4 17 -11z
m-1173 -168 c4 -6 7 -89 8 -184 2 -212 6 -206 -108 -206 -128 0 -129 1 -134
194 -4 209 -6 206 129 206 58 0 101 -4 105 -10z m377 -658 c48 -10 92 -22 99
-29 15 -15 -48 -229 -79 -265 -18 -21 -121 -25 -140 -6 -13 13 -18 299 -5 311
9 10 26 8 125 -11z"/>
    <path d="M5899 1631 c-72 -72 4 -204 107 -186 78 14 113 128 56 185 -44 43
-120 44 -163 1z"/>
  </g>
  <g transform="translate(0.000000,708.000000) scale(0.100000,-0.100000)" fill="#415168">
    <path d="M1695 6607 c-189 -47 -296 -168 -331 -372 -13 -76 -16 -2476 -3
-2520 40 -135 64 -179 137 -247 115 -107 65 -102 940 -108 751 -5 774 -6 788
-24 16 -23 20 -331 4 -356 -8 -13 -151 -16 -1153 -20 -1144 -5 -1144 -5 -1222
-45 -115 -59 -194 -152 -227 -267 -17 -59 -24 -1714 -8 -1773 42 -149 152
-271 285 -316 41 -14 961 -18 2150 -8 490 4 490 4 546 32 209 102 262 227 258
601 -3 218 -3 218 29 247 36 32 68 37 98 14 28 -21 1441 -22 1482 -1 41 21 63
50 73 96 11 50 2 71 -49 105 -37 25 -37 25 -819 25 -662 0 -784 2 -796 14 -21
22 -27 148 -27 550 1 197 -2 361 -4 364 -3 2 -1 13 5 24 20 38 -54 178 -95
178 -28 0 -46 18 -46 47 0 35 -27 55 -120 92 -47 18 -91 40 -97 49 -10 12 -13
91 -13 319 0 376 3 388 105 454 29 18 64 19 1530 19 1690 0 1540 7 1600 -78
30 -44 30 -44 33 -968 3 -1032 8 -954 -70 -1017 -34 -27 -60 -37 -127 -50
-121 -23 -152 -56 -126 -134 37 -109 125 -130 283 -67 141 56 234 160 268 302
22 92 20 1820 -2 1906 -45 173 -165 292 -332 325 -29 6 -147 11 -261 11 -186
0 -211 2 -231 18 -22 18 -22 18 -25 1093 -3 1299 2 1241 -130 1374 -130 132
38 120 -1660 123 -1065 2 -1477 -1 -1497 -9 -68 -28 -86 -119 -35 -175 35 -39
35 -39 1499 -44 1087 -4 1468 -8 1483 -17 28 -16 68 -61 94 -108 23 -40 23
-40 21 -780 -2 -589 0 -746 10 -771 36 -85 -28 -117 -100 -50 -48 44 -241 176
-258 176 -5 0 -32 21 -59 48 -62 60 -277 203 -325 216 -25 7 -44 6 -60 -1 -40
-18 -226 -163 -265 -207 -21 -22 -52 -46 -69 -52 -34 -12 -137 -88 -189 -139
-17 -18 -41 -36 -52 -39 -22 -7 -114 -77 -151 -113 -31 -32 -35 -31 -121 40
-95 79 -165 127 -185 127 -9 0 -24 16 -34 36 -21 41 -195 192 -232 201 -14 3
-61 43 -105 88 -109 111 -204 188 -223 180 -21 -8 -62 21 -62 45 0 18 -122
137 -167 163 -11 7 -44 31 -73 55 -66 53 -150 60 -150 11 0 -13 -7 -19 -21
-19 -37 0 -189 -114 -189 -142 0 -17 -49 -58 -70 -58 -11 0 -24 -9 -30 -20 -6
-11 -15 -20 -21 -20 -29 0 -257 -194 -271 -231 -4 -10 -16 -19 -26 -19 -40 0
-202 -138 -202 -172 0 -12 -13 -21 -40 -28 -56 -15 -280 -188 -280 -216 0 -4
-10 -27 -21 -52 -23 -47 -44 -61 -62 -43 -17 17 -39 13 -68 -12 -102 -87 -118
-97 -133 -91 -23 9 -25 1801 -1 1880 22 74 93 134 160 134 81 0 150 62 140
125 -14 87 -86 121 -200 92z m1452 -1389 c22 -18 85 -72 139 -119 55 -47 127
-107 161 -133 34 -26 124 -101 200 -167 76 -66 163 -139 193 -162 30 -23 100
-80 155 -128 55 -47 125 -104 155 -126 120 -89 365 -310 368 -331 6 -39 -27
-42 -494 -42 -445 0 -445 0 -520 -35 -127 -58 -197 -145 -254 -315 -12 -36
-27 -68 -33 -72 -7 -4 -344 -8 -750 -8 -706 0 -739 1 -775 19 -94 48 -121 113
-122 288 0 157 -3 152 164 283 176 138 223 178 229 194 4 9 13 16 21 16 9 0
29 12 45 28 17 15 65 54 107 87 42 33 118 94 168 135 50 41 119 97 154 123 34
27 110 88 167 135 327 272 443 362 465 362 10 0 35 -15 57 -32z m2052 -400
c20 -12 86 -58 146 -103 103 -76 330 -237 468 -332 88 -61 87 -59 87 -203 0
-185 58 -165 -492 -165 -530 0 -457 -21 -713 203 -153 133 -161 143 -145 171
6 12 15 21 19 21 5 0 46 28 90 63 121 93 166 128 226 172 29 22 99 75 156 118
114 87 109 85 158 55z m-1673 -2115 c34 -19 49 -39 78 -97 36 -73 36 -73 33
-862 -2 -744 -3 -792 -21 -839 -30 -78 -30 -79 -77 -96 -24 -9 -51 -19 -59
-22 -90 -38 -61 -37 -1273 -37 -1492 0 -1358 -43 -1368 444 -10 471 -10 1337
1 1376 24 91 33 106 79 131 46 24 46 24 1256 29 1343 6 1294 7 1351 -27z"/>
    <path d="M1853 2299 c-15 -5 -23 -17 -23 -31 0 -28 -9 -42 -32 -51 -29 -11
-27 -880 2 -936 37 -73 94 -98 150 -66 14 7 40 21 58 29 19 9 54 29 78 46 25
16 47 30 49 30 10 0 143 85 191 121 28 21 55 39 60 39 9 0 182 102 224 133 47
33 101 67 109 67 45 0 87 119 57 165 -25 38 -116 95 -152 95 -48 0 -95 20
-104 45 -9 23 -163 115 -193 115 -21 0 -80 30 -97 50 -20 24 -145 88 -187 96
-18 3 -36 10 -39 15 -3 5 -15 9 -26 9 -12 0 -29 6 -37 14 -22 19 -62 26 -88
15z m366 -400 c218 -112 225 -124 109 -192 -35 -21 -101 -62 -148 -91 -161
-99 -164 -97 -166 143 -2 178 6 221 38 221 6 0 81 -36 167 -81z"/>
    <path d="M2286 6599 c-64 -50 -72 -111 -20 -163 65 -65 169 -43 190 38 26 104
-89 189 -170 125z"/>
    <path d="M4236 6097 c-16 -5 -45 -20 -64 -33 -19 -13 -47 -24 -61 -24 -44 0
-151 -123 -151 -173 0 -8 -6 -20 -14 -26 -8 -7 -17 -31 -20 -54 -18 -115 -18
-128 -3 -150 8 -12 17 -49 21 -82 14 -114 73 -172 266 -266 68 -33 171 -38
200 -9 15 15 30 20 48 17 46 -9 202 87 202 123 0 5 16 31 35 60 19 29 38 64
41 79 3 14 10 38 16 53 29 78 -31 307 -87 328 -15 6 -25 18 -25 29 0 50 -126
123 -220 127 -36 2 -85 5 -110 7 -25 2 -58 -1 -74 -6z m111 -213 c131 -57 141
-65 159 -120 16 -51 16 -61 -2 -176 -6 -34 -14 -43 -37 -39 -4 1 -26 -9 -50
-21 -39 -20 -96 -36 -141 -41 -20 -2 -69 56 -107 128 -12 22 -28 48 -36 57
-15 17 -10 58 7 58 5 0 17 15 26 33 9 17 29 46 43 63 14 17 34 41 43 53 21 25
45 27 95 5z"/>
    <path d="M5905 3530 c-4 -7 -24 -8 -49 -5 -63 10 -196 -12 -222 -37 -23 -20
-69 -25 -117 -13 -22 6 -33 3 -48 -14 -23 -24 -37 -26 -89 -10 -30 9 -48 8
-93 -5 -30 -9 -73 -16 -94 -16 -26 0 -44 -6 -56 -20 -19 -22 -42 -25 -82 -10
-18 7 -38 6 -68 -4 -23 -8 -55 -14 -72 -14 -16 -1 -55 -6 -85 -11 -30 -6 -143
-11 -250 -10 -184 0 -197 -1 -214 -20 -10 -11 -38 -23 -62 -27 -50 -7 -104
-58 -104 -97 0 -12 -9 -30 -19 -39 -14 -11 -21 -36 -26 -82 -10 -94 -1 -377
12 -401 7 -11 14 -32 18 -48 6 -30 65 -101 99 -119 12 -7 53 -13 91 -14 168
-7 230 -15 243 -32 9 -11 12 -77 12 -244 0 -275 4 -291 90 -321 65 -23 401
-15 421 9 6 8 20 14 29 14 25 0 58 44 70 94 6 22 15 48 19 57 5 9 15 45 21 80
12 63 64 187 85 201 18 13 119 8 165 -8 25 -9 71 -18 104 -19 77 -5 132 -14
184 -31 90 -30 178 -10 216 48 17 27 21 141 10 316 -7 129 -6 133 71 166 60
27 74 43 82 89 10 64 -27 116 -101 142 -31 11 -59 97 -55 170 8 134 -1 196
-30 223 -74 70 -94 81 -106 62z m-113 -259 c9 -8 13 -689 4 -698 -26 -27 -287
-3 -322 29 -27 24 -97 32 -264 29 -53 -1 -123 16 -115 29 7 12 -32 23 -59 16
-37 -9 -129 21 -154 50 -21 24 -23 33 -17 93 8 87 8 164 0 229 -8 59 10 92 48
92 11 0 39 11 63 25 36 21 47 23 68 14 20 -9 38 -8 84 5 32 9 77 15 99 14 24
-1 52 6 66 15 16 10 37 14 58 11 45 -7 230 21 268 40 16 9 36 14 43 11 7 -3
27 -1 43 4 29 9 73 5 87 -8z m-1172 -171 c4 -8 15 -30 24 -48 16 -30 16 -35 2
-57 -21 -32 -22 -162 -1 -189 41 -55 8 -76 -117 -76 -143 1 -164 25 -137 153
11 51 11 62 -4 87 -33 55 -13 126 41 141 40 12 185 3 192 -11z m464 -667 c32
-29 32 -23 0 -108 -14 -39 -30 -83 -35 -99 -19 -64 -35 -76 -98 -76 -89 0 -96
12 -93 163 3 147 2 146 117 145 73 -1 86 -3 109 -25z"/>
    <path d="M5904 1646 c-38 -27 -48 -67 -29 -122 21 -63 29 -72 76 -84 92 -25
175 79 130 164 -23 43 -138 70 -177 42z"/>
  </g>
  <g transform="translate(0.000000,708.000000) scale(0.100000,-0.100000)" fill="#6b8498">

  </g>
  <g transform="translate(0.000000,708.000000) scale(0.100000,-0.100000)" fill="#99b0b9">

  </g>
  <g transform="translate(0.000000,708.000000) scale(0.100000,-0.100000)" fill="#bedee5">
    <path d="M1900 6453 c-24 -42 -60 -64 -112 -70 -83 -9 -142 -45 -173 -104 -21
-39 -24 -1873 -3 -1877 16 -3 26 5 249 186 90 74 191 155 224 182 33 27 175
142 315 257 237 194 302 246 465 378 34 28 86 69 114 93 48 38 58 42 109 42
59 0 160 -81 1185 -941 32 -27 61 -49 65 -49 11 0 87 54 264 190 90 68 225
172 301 230 204 156 194 150 247 150 47 0 75 -14 175 -89 22 -16 83 -60 135
-96 52 -37 129 -91 170 -121 154 -112 235 -163 242 -156 5 5 7 364 6 798 -3
884 1 833 -76 892 -35 27 -35 27 -1502 32 -1636 6 -1504 -1 -1535 73 -13 32
-13 32 -117 26 -56 -4 -120 -7 -140 -8 -31 -1 -40 -6 -53 -31 -41 -80 -186
-74 -230 10 -15 29 -15 29 -160 32 -146 3 -146 3 -165 -29z m2513 -333 c389
-63 488 -602 148 -804 -111 -66 -260 -85 -356 -46 -88 36 -125 59 -175 109
-306 307 -45 811 383 741z"/>
    <path d="M3588 3753 c-88 -46 -98 -93 -98 -448 0 -337 -6 -312 78 -338 142
-44 267 -181 301 -328 6 -26 11 -226 11 -490 0 -359 3 -449 13 -458 10 -7 246
-11 805 -13 790 -3 790 -3 815 -26 14 -13 31 -37 37 -53 12 -29 12 -29 155
-29 142 0 143 0 149 24 27 108 195 112 248 6 10 -19 25 -35 33 -34 8 0 69 1
134 2 119 2 119 2 140 37 28 47 71 71 142 79 81 10 134 38 164 91 25 42 25 42
25 944 0 976 2 941 -53 999 -51 55 30 52 -1581 51 -1278 -1 -1495 -3 -1518
-16z m2410 -213 c55 -34 66 -73 72 -270 5 -175 5 -175 40 -186 52 -17 100 -78
100 -128 0 -70 -39 -114 -122 -140 -16 -5 -18 -23 -18 -188 0 -231 -4 -250
-50 -299 -41 -43 -103 -52 -217 -30 -26 5 -93 17 -148 26 -55 9 -120 20 -145
25 -25 5 -66 12 -92 15 -57 7 -53 15 -123 -205 -90 -279 -77 -269 -360 -269
-315 -1 -318 1 -325 349 l-5 235 -140 5 c-154 5 -176 13 -242 82 -77 81 -78
85 -77 358 0 276 7 307 88 378 73 64 82 66 316 73 193 6 349 20 390 35 8 3 47
9 85 14 39 5 115 16 170 26 55 9 123 20 150 24 149 24 247 40 310 49 39 6 104
17 145 25 110 20 159 19 198 -4z"/>
    <path d="M4901 2440 c-8 -4 -11 -48 -9 -136 3 -129 3 -129 63 -129 65 0 63 -4
120 174 20 64 9 81 -54 81 -20 0 -52 4 -72 9 -21 5 -42 5 -48 1z"/>
    <path d="M955 2704 c-49 -25 -83 -64 -100 -112 -16 -49 -22 -1302 -6 -1569 8
-138 27 -177 107 -218 63 -32 2477 -30 2539 2 51 27 89 68 104 113 16 46 16
1636 0 1677 -14 38 -67 92 -106 109 -52 22 -2495 20 -2538 -2z m1114 -443 c69
-37 171 -92 226 -121 55 -29 105 -56 110 -60 6 -4 82 -44 170 -90 202 -104
225 -125 225 -200 0 -83 -19 -97 -550 -413 -74 -44 -169 -103 -210 -131 -90
-60 -153 -71 -208 -36 -62 38 -62 40 -62 558 0 469 0 469 23 503 55 82 111 80
276 -10z"/>
  </g>
  <g transform="translate(0.000000,708.000000) scale(0.100000,-0.100000)" fill="#c6e1e4">
    <path d="M1900 6453 c-25 -43 -76 -73 -121 -73 -67 0 -135 -44 -168 -107 -19
-37 -15 -1873 4 -1873 8 0 56 35 107 78 51 43 197 161 323 262 195 157 496
401 878 713 142 117 184 121 294 28 208 -175 749 -625 818 -681 44 -36 128
-107 188 -157 59 -51 111 -93 115 -93 14 0 171 117 580 433 238 183 230 183
454 16 238 -176 479 -341 493 -335 19 7 23 1529 4 1587 -15 43 -65 97 -106
115 -27 12 -270 14 -1470 14 -1608 0 -1488 -5 -1525 70 -18 35 -18 35 -90 31
-209 -9 -198 -6 -224 -45 -56 -81 -215 -64 -237 26 -6 23 -9 23 -152 23 -146
0 -146 0 -165 -32z m2618 -365 c282 -136 342 -516 114 -719 -45 -40 -74 -58
-166 -100 -42 -20 -209 -18 -266 3 -205 74 -336 283 -300 481 53 293 360 459
618 335z"/>
    <path d="M3588 3750 c-40 -22 -69 -58 -86 -109 -14 -39 -17 -618 -4 -638 4 -7
34 -22 67 -33 122 -42 217 -128 278 -250 32 -65 32 -65 35 -540 2 -319 6 -478
14 -487 8 -10 165 -13 798 -13 788 0 788 0 818 -25 16 -14 37 -39 45 -57 16
-33 16 -33 155 -30 137 3 140 3 146 26 3 13 22 38 41 55 70 61 174 33 212 -57
14 -35 14 -35 111 -29 53 4 115 7 137 7 35 0 42 4 55 33 21 44 69 73 137 82
87 11 148 47 179 107 22 42 21 1812 -1 1865 -20 48 -41 71 -87 94 -59 30
-2993 29 -3050 -1z m2409 -210 c59 -36 67 -65 73 -265 5 -179 5 -179 38 -189
131 -37 136 -216 6 -261 -39 -13 -39 -13 -44 -227 -8 -351 -15 -354 -565 -247
-143 27 -133 36 -205 -182 -99 -295 -80 -281 -380 -277 -306 4 -303 1 -310
348 l-5 235 -140 5 c-173 6 -235 39 -302 162 -31 57 -26 506 6 568 70 134 113
153 381 161 118 4 231 10 250 14 37 6 163 26 290 45 125 18 262 41 310 50 25
5 97 17 160 26 63 9 158 24 210 34 129 25 187 25 227 0z"/>
    <path d="M4902 2441 c-9 -6 -12 -43 -10 -137 3 -129 3 -129 42 -132 77 -7 81
-3 121 120 41 129 42 126 -54 139 -40 5 -76 11 -80 13 -4 3 -13 1 -19 -3z"/>
    <path d="M948 2700 c-44 -24 -82 -72 -95 -120 -10 -37 -7 -1616 3 -1660 9 -39
51 -88 94 -110 39 -20 61 -20 1270 -20 1355 0 1269 -4 1336 61 55 54 55 46 52
931 -3 922 5 832 -82 902 -38 31 -38 31 -1289 33 -1226 2 -1253 2 -1289 -17z
m1132 -444 c74 -40 173 -94 220 -118 47 -25 114 -61 150 -80 36 -20 115 -61
175 -93 141 -73 175 -107 175 -175 0 -69 -33 -104 -194 -199 -72 -43 -180
-108 -241 -146 -60 -37 -123 -75 -140 -85 -69 -40 -134 -80 -200 -124 -81 -53
-136 -61 -193 -26 -62 38 -62 40 -62 564 0 475 0 475 30 509 64 74 99 70 280
-27z"/>
  </g>
</svg>
