<?xml version="1.0" standalone="no"?>
<!DOCTYPE svg PUBLIC "-//W3C//DTD SVG 20010904//EN"
 "http://www.w3.org/TR/2001/REC-SVG-20010904/DTD/svg10.dtd">
<svg version="1.0" xmlns="http://www.w3.org/2000/svg"
 width="757.000000pt" height="708.000000pt" viewBox="0 0 757.000000 708.000000"
 preserveAspectRatio="xMidYMid meet">
<metadata>
Created by potrace 1.16, written by Peter Selinger 2001-2019
</metadata>
<g transform="translate(0.000000,708.000000) scale(0.100000,-0.100000)"
fill="currentColor" stroke="none">
<path d="M1725 6620 c-11 -5 -31 -9 -45 -9 -66 -2 -192 -89 -256 -177 -26 -36
-52 -111 -67 -189 -14 -81 -21 -2505 -7 -2519 5 -5 10 -21 10 -34 0 -13 15
-56 33 -95 43 -93 124 -169 222 -212 l70 -30 767 -5 c421 -3 770 -9 775 -13
13 -13 16 -322 3 -346 l-11 -21 -1104 0 c-1215 0 -1179 2 -1291 -61 -96 -55
-179 -164 -208 -274 -12 -48 -14 -1722 -1 -1774 10 -45 60 -137 98 -181 43
-50 132 -108 192 -125 44 -13 221 -15 1341 -13 l1290 3 77 38 c92 46 176 133
215 223 24 57 25 70 31 326 4 199 9 270 19 280 10 10 174 14 800 18 841 5 810
3 851 56 27 34 28 110 3 140 -42 50 -13 49 -862 54 l-795 5 -5 486 -5 485 -37
75 c-59 119 -139 188 -272 234 l-61 21 -3 324 c-2 267 0 330 12 355 18 36 42
65 76 88 23 16 131 17 1528 17 1488 0 1503 0 1542 -20 22 -11 51 -38 65 -60
l25 -39 0 -921 0 -922 -21 -38 c-28 -49 -78 -76 -164 -90 -69 -11 -108 -28
-133 -59 -14 -18 -8 -101 9 -133 20 -37 70 -58 139 -58 82 0 204 47 273 105
47 40 127 159 127 190 0 9 5 26 11 37 8 15 11 280 10 951 -2 1016 -1 986 -61
1092 -35 61 -126 145 -184 169 -89 37 -163 46 -375 46 -179 0 -210 2 -222 16
-11 13 -13 211 -14 1083 -1 670 -6 1092 -12 1137 -13 91 -48 165 -108 232 -55
61 -105 92 -194 121 -64 21 -72 21 -1505 20 -1133 0 -1448 -3 -1476 -13 -40
-15 -65 -52 -74 -114 -6 -40 -4 -46 28 -78 l34 -34 1445 0 c1050 0 1453 -3
1478 -11 19 -7 49 -26 68 -43 69 -64 66 -16 69 -886 1 -456 -2 -791 -7 -799
-7 -11 -22 -5 -73 31 -34 25 -148 105 -253 178 -104 74 -192 137 -195 140 -3
4 -42 33 -88 64 -124 84 -136 81 -337 -75 -71 -55 -211 -162 -310 -237 -99
-74 -202 -153 -228 -174 -27 -21 -52 -38 -55 -38 -4 0 -20 12 -37 26 -16 14
-50 42 -74 62 -24 21 -49 42 -55 47 -6 6 -63 53 -126 105 -63 51 -147 121
-186 154 -78 67 -96 82 -169 141 -28 21 -52 42 -55 45 -3 3 -32 28 -65 55 -33
28 -69 58 -80 67 -11 9 -54 44 -95 79 -41 34 -101 85 -134 113 -152 133 -192
138 -311 37 -17 -14 -48 -39 -69 -56 -21 -16 -167 -135 -325 -264 -157 -129
-409 -334 -560 -455 -150 -122 -300 -242 -332 -269 -32 -26 -63 -47 -69 -47
-7 0 -10 297 -10 928 0 878 1 929 19 967 31 70 104 115 185 115 36 0 89 32
103 63 15 33 1 103 -28 133 -34 36 -101 52 -144 34z m1413 -1402 c22 -18 96
-80 164 -138 68 -58 141 -119 163 -135 22 -16 119 -97 217 -180 233 -198 433
-365 461 -384 31 -21 349 -294 366 -314 11 -14 11 -20 1 -32 -10 -12 -84 -15
-478 -17 l-467 -3 -68 -32 c-123 -60 -214 -174 -251 -317 -8 -31 -18 -61 -21
-66 -4 -6 -271 -10 -751 -10 -603 0 -751 3 -777 14 -41 17 -91 74 -108 123
-14 41 -19 250 -7 293 4 14 32 45 63 70 31 25 101 81 155 125 54 44 132 106
172 137 40 31 91 73 113 93 22 19 65 54 95 77 30 24 93 74 140 113 47 39 105
86 130 105 25 19 100 80 166 135 67 55 183 150 258 210 75 61 142 115 149 120
21 18 61 45 68 45 3 0 25 -15 47 -32z m2090 -426 c29 -20 122 -86 205 -146
219 -158 225 -162 302 -216 39 -27 89 -63 113 -80 l42 -31 0 -137 c0 -94 -4
-142 -12 -150 -9 -9 -127 -12 -468 -12 l-457 0 -59 41 c-32 23 -61 45 -64 48
-3 4 -67 60 -142 125 -89 76 -138 124 -138 137 0 11 12 27 28 37 15 9 80 58
145 107 65 50 142 108 171 130 30 22 96 72 147 112 52 40 103 72 114 72 11 0
44 -16 73 -37z m-1721 -2087 c41 -20 87 -76 102 -124 8 -27 11 -266 11 -832
l0 -794 -24 -51 c-13 -28 -36 -61 -52 -73 -68 -54 -3 -51 -1320 -51 -1213 0
-1225 0 -1268 21 -55 26 -81 54 -101 108 -13 38 -15 151 -15 851 0 897 -3 854
66 915 19 17 48 35 64 40 19 7 462 9 1267 8 1089 -2 1241 -5 1270 -18z"/>
<path d="M1854 2320 c-35 -14 -72 -67 -79 -113 -3 -23 -5 -240 -3 -483 l3
-441 27 -35 c33 -43 76 -62 122 -54 18 4 85 39 147 78 63 39 128 79 144 88 17
10 80 48 140 85 61 38 168 104 240 147 71 43 142 89 157 103 58 52 59 147 2
190 -29 22 -92 56 -509 275 -121 64 -221 117 -273 146 -44 25 -81 29 -118 14z
m294 -392 c177 -85 253 -131 250 -152 -4 -29 -289 -206 -336 -209 -24 -2 -27
2 -34 43 -8 49 -9 314 -1 343 6 25 24 22 121 -25z"/>
<path d="M2305 6620 c-45 -18 -85 -86 -85 -144 0 -10 16 -34 36 -52 30 -29 43
-34 83 -34 33 0 58 7 82 23 32 21 34 27 37 85 3 60 1 65 -32 98 -35 35 -75 43
-121 24z"/>
<path d="M4199 6101 c-199 -65 -328 -277 -290 -478 43 -223 207 -363 427 -363
161 0 311 89 377 223 55 113 68 209 42 306 -35 134 -114 233 -233 291 -60 30
-78 33 -167 36 -76 3 -113 -1 -156 -15z m204 -243 c62 -36 107 -104 107 -164
0 -39 -31 -113 -57 -136 -75 -67 -197 -54 -258 27 -45 58 -43 164 4 222 47 57
148 82 204 51z"/>
<path d="M5810 3540 c-109 -20 -219 -38 -305 -50 -33 -5 -116 -18 -185 -29
-69 -12 -154 -25 -190 -30 -178 -27 -280 -43 -330 -54 -30 -6 -143 -11 -250
-12 -183 0 -198 -2 -242 -23 -26 -13 -65 -44 -87 -68 -65 -74 -71 -106 -71
-358 0 -211 1 -223 24 -271 12 -27 40 -67 61 -87 64 -62 94 -71 247 -76 l137
-5 3 -241 c3 -268 5 -276 71 -317 30 -18 48 -19 254 -17 l223 3 25 26 c18 18
46 84 94 227 37 112 72 207 77 212 5 5 43 2 89 -6 44 -9 107 -19 140 -24 33
-4 98 -15 145 -23 156 -28 201 -30 240 -10 19 10 45 33 57 52 22 33 23 42 23
246 l0 213 43 10 c131 33 137 218 8 249 -50 12 -51 15 -51 197 0 193 -8 222
-69 263 -39 27 -53 27 -181 3z m-12 -617 l-3 -348 -30 1 c-27 0 -82 9 -287 44
-145 25 -186 32 -228 40 -25 5 -83 14 -130 20 -133 17 -214 33 -227 43 -10 7
-13 61 -13 207 l0 197 83 16 c45 9 100 18 122 21 79 11 492 77 565 90 41 8 92
14 113 15 l37 1 -2 -347z m-1180 0 l2 -182 -35 -7 c-48 -9 -153 0 -167 14 -16
16 -24 312 -9 341 11 20 18 22 109 19 l97 -3 3 -182z m397 -488 c76 -11 80
-13 77 -36 -4 -35 -62 -212 -75 -227 -7 -9 -30 -12 -71 -10 l-61 3 -3 134 c-1
74 0 141 3 149 3 9 12 11 27 6 13 -4 59 -12 103 -19z"/>
<path d="M5913 1659 c-17 -11 -38 -35 -47 -54 -15 -32 -15 -37 4 -88 25 -67
37 -78 95 -85 73 -8 124 36 140 120 5 26 1 40 -19 67 -46 62 -114 78 -173 40z"/>
</g>
</svg>
